<?xml version="1.0" encoding="utf-8" standalone="no"?>
<!DOCTYPE svg PUBLIC "-//W3C//DTD SVG 1.1//EN"
  "http://www.w3.org/Graphics/SVG/1.1/DTD/svg11.dtd">
<svg xmlns:xlink="http://www.w3.org/1999/xlink" width="460.8pt" height="345.6pt" viewBox="0 0 460.8 345.6" xmlns="http://www.w3.org/2000/svg" version="1.1">
 <metadata>
  <rdf:RDF xmlns:dc="http://purl.org/dc/elements/1.1/" xmlns:cc="http://creativecommons.org/ns#" xmlns:rdf="http://www.w3.org/1999/02/22-rdf-syntax-ns#">
   <cc:Work>
    <dc:type rdf:resource="http://purl.org/dc/dcmitype/StillImage"/>
    <dc:date>2024-11-14T07:51:58.959534</dc:date>
    <dc:format>image/svg+xml</dc:format>
    <dc:creator>
     <cc:Agent>
      <dc:title>Matplotlib v3.9.2, https://matplotlib.org/</dc:title>
     </cc:Agent>
    </dc:creator>
   </cc:Work>
  </rdf:RDF>
 </metadata>
 <defs>
  <style type="text/css">*{stroke-linejoin: round; stroke-linecap: butt}</style>
 </defs>
 <g id="figure_1">
  <g id="patch_1">
   <path d="M 0 345.6 
L 460.8 345.6 
L 460.8 0 
L 0 0 
z
" style="fill: #ffffff"/>
  </g>
  <g id="axes_1">
   <g id="patch_2">
    <path d="M 57.6 307.584 
L 343.296 307.584 
L 343.296 41.472 
L 57.6 41.472 
z
" style="fill: #ffffff"/>
   </g>
   <g id="matplotlib.axis_1">
    <g id="xtick_1">
     <g id="line2d_1">
      <defs>
       <path id="m9782551b7b" d="M 0 0 
L 0 3.5 
" style="stroke: #000000; stroke-width: 0.8"/>
      </defs>
      <g>
       <use xlink:href="#m9782551b7b" x="57.6" y="307.584" style="stroke: #000000; stroke-width: 0.8"/>
      </g>
     </g>
     <g id="text_1">
      <!-- −2.0 -->
      <g transform="translate(45.458594 322.182437) scale(0.1 -0.1)">
       <defs>
        <path id="DejaVuSans-2212" d="M 678 2272 
L 4684 2272 
L 4684 1741 
L 678 1741 
L 678 2272 
z
" transform="scale(0.015625)"/>
        <path id="DejaVuSans-32" d="M 1228 531 
L 3431 531 
L 3431 0 
L 469 0 
L 469 531 
Q 828 903 1448 1529 
Q 2069 2156 2228 2338 
Q 2531 2678 2651 2914 
Q 2772 3150 2772 3378 
Q 2772 3750 2511 3984 
Q 2250 4219 1831 4219 
Q 1534 4219 1204 4116 
Q 875 4013 500 3803 
L 500 4441 
Q 881 4594 1212 4672 
Q 1544 4750 1819 4750 
Q 2544 4750 2975 4387 
Q 3406 4025 3406 3419 
Q 3406 3131 3298 2873 
Q 3191 2616 2906 2266 
Q 2828 2175 2409 1742 
Q 1991 1309 1228 531 
z
" transform="scale(0.015625)"/>
        <path id="DejaVuSans-2e" d="M 684 794 
L 1344 794 
L 1344 0 
L 684 0 
L 684 794 
z
" transform="scale(0.015625)"/>
        <path id="DejaVuSans-30" d="M 2034 4250 
Q 1547 4250 1301 3770 
Q 1056 3291 1056 2328 
Q 1056 1369 1301 889 
Q 1547 409 2034 409 
Q 2525 409 2770 889 
Q 3016 1369 3016 2328 
Q 3016 3291 2770 3770 
Q 2525 4250 2034 4250 
z
M 2034 4750 
Q 2819 4750 3233 4129 
Q 3647 3509 3647 2328 
Q 3647 1150 3233 529 
Q 2819 -91 2034 -91 
Q 1250 -91 836 529 
Q 422 1150 422 2328 
Q 422 3509 836 4129 
Q 1250 4750 2034 4750 
z
" transform="scale(0.015625)"/>
       </defs>
       <use xlink:href="#DejaVuSans-2212"/>
       <use xlink:href="#DejaVuSans-32" x="83.789062"/>
       <use xlink:href="#DejaVuSans-2e" x="147.412109"/>
       <use xlink:href="#DejaVuSans-30" x="179.199219"/>
      </g>
     </g>
    </g>
    <g id="xtick_2">
     <g id="line2d_2">
      <g>
       <use xlink:href="#m9782551b7b" x="93.312" y="307.584" style="stroke: #000000; stroke-width: 0.8"/>
      </g>
     </g>
     <g id="text_2">
      <!-- −1.5 -->
      <g transform="translate(81.170594 322.182437) scale(0.1 -0.1)">
       <defs>
        <path id="DejaVuSans-31" d="M 794 531 
L 1825 531 
L 1825 4091 
L 703 3866 
L 703 4441 
L 1819 4666 
L 2450 4666 
L 2450 531 
L 3481 531 
L 3481 0 
L 794 0 
L 794 531 
z
" transform="scale(0.015625)"/>
        <path id="DejaVuSans-35" d="M 691 4666 
L 3169 4666 
L 3169 4134 
L 1269 4134 
L 1269 2991 
Q 1406 3038 1543 3061 
Q 1681 3084 1819 3084 
Q 2600 3084 3056 2656 
Q 3513 2228 3513 1497 
Q 3513 744 3044 326 
Q 2575 -91 1722 -91 
Q 1428 -91 1123 -41 
Q 819 9 494 109 
L 494 744 
Q 775 591 1075 516 
Q 1375 441 1709 441 
Q 2250 441 2565 725 
Q 2881 1009 2881 1497 
Q 2881 1984 2565 2268 
Q 2250 2553 1709 2553 
Q 1456 2553 1204 2497 
Q 953 2441 691 2322 
L 691 4666 
z
" transform="scale(0.015625)"/>
       </defs>
       <use xlink:href="#DejaVuSans-2212"/>
       <use xlink:href="#DejaVuSans-31" x="83.789062"/>
       <use xlink:href="#DejaVuSans-2e" x="147.412109"/>
       <use xlink:href="#DejaVuSans-35" x="179.199219"/>
      </g>
     </g>
    </g>
    <g id="xtick_3">
     <g id="line2d_3">
      <g>
       <use xlink:href="#m9782551b7b" x="129.024" y="307.584" style="stroke: #000000; stroke-width: 0.8"/>
      </g>
     </g>
     <g id="text_3">
      <!-- −1.0 -->
      <g transform="translate(116.882594 322.182437) scale(0.1 -0.1)">
       <use xlink:href="#DejaVuSans-2212"/>
       <use xlink:href="#DejaVuSans-31" x="83.789062"/>
       <use xlink:href="#DejaVuSans-2e" x="147.412109"/>
       <use xlink:href="#DejaVuSans-30" x="179.199219"/>
      </g>
     </g>
    </g>
    <g id="xtick_4">
     <g id="line2d_4">
      <g>
       <use xlink:href="#m9782551b7b" x="164.736" y="307.584" style="stroke: #000000; stroke-width: 0.8"/>
      </g>
     </g>
     <g id="text_4">
      <!-- −0.5 -->
      <g transform="translate(152.594594 322.182437) scale(0.1 -0.1)">
       <use xlink:href="#DejaVuSans-2212"/>
       <use xlink:href="#DejaVuSans-30" x="83.789062"/>
       <use xlink:href="#DejaVuSans-2e" x="147.412109"/>
       <use xlink:href="#DejaVuSans-35" x="179.199219"/>
      </g>
     </g>
    </g>
    <g id="xtick_5">
     <g id="line2d_5">
      <g>
       <use xlink:href="#m9782551b7b" x="200.448" y="307.584" style="stroke: #000000; stroke-width: 0.8"/>
      </g>
     </g>
     <g id="text_5">
      <!-- 0.0 -->
      <g transform="translate(192.496438 322.182437) scale(0.1 -0.1)">
       <use xlink:href="#DejaVuSans-30"/>
       <use xlink:href="#DejaVuSans-2e" x="63.623047"/>
       <use xlink:href="#DejaVuSans-30" x="95.410156"/>
      </g>
     </g>
    </g>
    <g id="xtick_6">
     <g id="line2d_6">
      <g>
       <use xlink:href="#m9782551b7b" x="236.16" y="307.584" style="stroke: #000000; stroke-width: 0.8"/>
      </g>
     </g>
     <g id="text_6">
      <!-- 0.5 -->
      <g transform="translate(228.208438 322.182437) scale(0.1 -0.1)">
       <use xlink:href="#DejaVuSans-30"/>
       <use xlink:href="#DejaVuSans-2e" x="63.623047"/>
       <use xlink:href="#DejaVuSans-35" x="95.410156"/>
      </g>
     </g>
    </g>
    <g id="xtick_7">
     <g id="line2d_7">
      <g>
       <use xlink:href="#m9782551b7b" x="271.872" y="307.584" style="stroke: #000000; stroke-width: 0.8"/>
      </g>
     </g>
     <g id="text_7">
      <!-- 1.0 -->
      <g transform="translate(263.920437 322.182437) scale(0.1 -0.1)">
       <use xlink:href="#DejaVuSans-31"/>
       <use xlink:href="#DejaVuSans-2e" x="63.623047"/>
       <use xlink:href="#DejaVuSans-30" x="95.410156"/>
      </g>
     </g>
    </g>
    <g id="xtick_8">
     <g id="line2d_8">
      <g>
       <use xlink:href="#m9782551b7b" x="307.584" y="307.584" style="stroke: #000000; stroke-width: 0.8"/>
      </g>
     </g>
     <g id="text_8">
      <!-- 1.5 -->
      <g transform="translate(299.632437 322.182437) scale(0.1 -0.1)">
       <use xlink:href="#DejaVuSans-31"/>
       <use xlink:href="#DejaVuSans-2e" x="63.623047"/>
       <use xlink:href="#DejaVuSans-35" x="95.410156"/>
      </g>
     </g>
    </g>
    <g id="xtick_9">
     <g id="line2d_9">
      <g>
       <use xlink:href="#m9782551b7b" x="343.296" y="307.584" style="stroke: #000000; stroke-width: 0.8"/>
      </g>
     </g>
     <g id="text_9">
      <!-- 2.0 -->
      <g transform="translate(335.344438 322.182437) scale(0.1 -0.1)">
       <use xlink:href="#DejaVuSans-32"/>
       <use xlink:href="#DejaVuSans-2e" x="63.623047"/>
       <use xlink:href="#DejaVuSans-30" x="95.410156"/>
      </g>
     </g>
    </g>
   </g>
   <g id="matplotlib.axis_2">
    <g id="ytick_1">
     <g id="line2d_10">
      <defs>
       <path id="m42ec6cf96e" d="M 0 0 
L -3.5 0 
" style="stroke: #000000; stroke-width: 0.8"/>
      </defs>
      <g>
       <use xlink:href="#m42ec6cf96e" x="57.6" y="280.9728" style="stroke: #000000; stroke-width: 0.8"/>
      </g>
     </g>
     <g id="text_10">
      <!-- −2 -->
      <g transform="translate(35.857813 284.772019) scale(0.1 -0.1)">
       <use xlink:href="#DejaVuSans-2212"/>
       <use xlink:href="#DejaVuSans-32" x="83.789062"/>
      </g>
     </g>
    </g>
    <g id="ytick_2">
     <g id="line2d_11">
      <g>
       <use xlink:href="#m42ec6cf96e" x="57.6" y="227.7504" style="stroke: #000000; stroke-width: 0.8"/>
      </g>
     </g>
     <g id="text_11">
      <!-- −1 -->
      <g transform="translate(35.857813 231.549619) scale(0.1 -0.1)">
       <use xlink:href="#DejaVuSans-2212"/>
       <use xlink:href="#DejaVuSans-31" x="83.789062"/>
      </g>
     </g>
    </g>
    <g id="ytick_3">
     <g id="line2d_12">
      <g>
       <use xlink:href="#m42ec6cf96e" x="57.6" y="174.528" style="stroke: #000000; stroke-width: 0.8"/>
      </g>
     </g>
     <g id="text_12">
      <!-- 0 -->
      <g transform="translate(44.2375 178.327219) scale(0.1 -0.1)">
       <use xlink:href="#DejaVuSans-30"/>
      </g>
     </g>
    </g>
    <g id="ytick_4">
     <g id="line2d_13">
      <g>
       <use xlink:href="#m42ec6cf96e" x="57.6" y="121.3056" style="stroke: #000000; stroke-width: 0.8"/>
      </g>
     </g>
     <g id="text_13">
      <!-- 1 -->
      <g transform="translate(44.2375 125.104819) scale(0.1 -0.1)">
       <use xlink:href="#DejaVuSans-31"/>
      </g>
     </g>
    </g>
    <g id="ytick_5">
     <g id="line2d_14">
      <g>
       <use xlink:href="#m42ec6cf96e" x="57.6" y="68.0832" style="stroke: #000000; stroke-width: 0.8"/>
      </g>
     </g>
     <g id="text_14">
      <!-- 2 -->
      <g transform="translate(44.2375 71.882419) scale(0.1 -0.1)">
       <use xlink:href="#DejaVuSans-32"/>
      </g>
     </g>
    </g>
   </g>
   <g id="QuadContourSet_1">
    <path clip-path="url(#p083e5b5778)" style="fill: none; stroke: #440154; stroke-width: 1.5"/>
    <path d="M 215.951646 307.584 
L 216.32 306.371542 
L 218.357767 304.896 
L 219.205818 304.147395 
L 220.743634 304.896 
L 222.091636 305.686715 
L 223.502477 307.584 
M 184.944354 41.472 
L 184.576 42.684458 
L 182.538233 44.16 
L 181.690182 44.908605 
L 180.152366 44.16 
L 178.804364 43.369285 
L 177.393523 41.472 
" clip-path="url(#p083e5b5778)" style="fill: none; stroke: #472d7b; stroke-width: 1.5"/>
    <path d="M 192.980293 307.584 
L 192.905148 304.896 
L 192.841086 302.208 
L 192.789894 299.52 
L 192.754213 296.832 
L 192.738014 294.144 
L 192.747456 291.456 
L 192.792491 288.768 
L 192.890128 286.08 
L 193.071763 283.392 
L 193.233455 281.929978 
L 193.289395 283.392 
L 193.365622 286.08 
L 193.421093 288.768 
L 193.461784 291.456 
L 193.4911 294.144 
L 193.510816 296.832 
L 193.521495 299.52 
L 193.522562 302.208 
L 193.512068 304.896 
L 193.485936 307.584 
M 201.582855 307.584 
L 201.43192 304.896 
L 201.474053 302.208 
L 201.769548 299.52 
L 201.890909 299.042518 
L 203.559676 299.52 
L 203.846093 302.208 
L 203.553453 304.896 
L 202.889598 307.584 
M 212.444626 307.584 
L 212.79133 304.896 
L 213.126462 302.208 
L 213.434182 299.675224 
L 213.482653 299.52 
L 214.275852 296.832 
L 214.995669 294.144 
L 215.655291 291.456 
L 216.265744 288.768 
L 216.32 288.519677 
L 217.636054 286.08 
L 218.876541 283.392 
L 219.205818 282.606451 
L 221.393243 280.704 
L 222.091636 279.987329 
L 224.977455 279.646262 
L 227.320852 280.704 
L 227.863273 280.988901 
L 230.513266 283.392 
L 230.749091 283.637328 
L 232.74015 286.08 
L 233.634909 287.32269 
L 234.630964 288.768 
L 236.300765 291.456 
L 236.520727 291.837884 
L 237.87683 294.144 
L 239.309851 296.832 
L 239.406545 297.023773 
L 240.730778 299.52 
L 242.041712 302.208 
L 242.292364 302.748966 
L 243.354873 304.896 
L 244.598627 307.584 
M 343.296 194.907205 
L 342.987331 194.688 
L 341.386847 192 
L 343.296 189.909517 
M 57.6 154.148795 
L 57.908669 154.368 
L 59.509153 157.056 
L 57.6 159.146483 
M 188.451374 41.472 
L 188.10467 44.16 
L 187.769538 46.848 
L 187.461818 49.380776 
L 187.413347 49.536 
L 186.620148 52.224 
L 185.900331 54.912 
L 185.240709 57.6 
L 184.630256 60.288 
L 184.576 60.536323 
L 183.259946 62.976 
L 182.019459 65.664 
L 181.690182 66.449549 
L 179.502757 68.352 
L 178.804364 69.068671 
L 175.918545 69.409738 
L 173.575148 68.352 
L 173.032727 68.067099 
L 170.382734 65.664 
L 170.146909 65.418672 
L 168.15585 62.976 
L 167.261091 61.73331 
L 166.265036 60.288 
L 164.595235 57.6 
L 164.375273 57.218116 
L 163.01917 54.912 
L 161.586149 52.224 
L 161.489455 52.032227 
L 160.165222 49.536 
L 158.854288 46.848 
L 158.603636 46.307034 
L 157.541127 44.16 
L 156.297373 41.472 
M 199.313145 41.472 
L 199.46408 44.16 
L 199.421947 46.848 
L 199.126452 49.536 
L 199.005091 50.013482 
L 197.336324 49.536 
L 197.049907 46.848 
L 197.342547 44.16 
L 198.006402 41.472 
M 207.915707 41.472 
L 207.990852 44.16 
L 208.054914 46.848 
L 208.106106 49.536 
L 208.141787 52.224 
L 208.157986 54.912 
L 208.148544 57.6 
L 208.103509 60.288 
L 208.005872 62.976 
L 207.824237 65.664 
L 207.662545 67.126022 
L 207.606605 65.664 
L 207.530378 62.976 
L 207.474907 60.288 
L 207.434216 57.6 
L 207.4049 54.912 
L 207.385184 52.224 
L 207.374505 49.536 
L 207.373438 46.848 
L 207.383932 44.16 
L 207.410064 41.472 
M 204.776727 297.70858 
L 204.572313 296.832 
L 204.520888 294.144 
L 204.551771 291.456 
L 204.592973 288.768 
L 204.646617 286.08 
L 204.740645 283.392 
L 204.776727 282.83639 
L 204.809316 283.392 
L 204.906599 286.08 
L 204.949377 288.768 
L 204.947079 291.456 
L 204.903548 294.144 
L 204.818324 296.832 
L 204.776727 297.70858 
z
M 199.005091 288.840261 
L 198.990994 288.768 
L 198.877988 286.08 
L 199.005091 285.066327 
L 199.132326 286.08 
L 199.020068 288.768 
L 199.005091 288.840261 
M 196.119273 66.21961 
L 196.086684 65.664 
L 195.989401 62.976 
L 195.946623 60.288 
L 195.948921 57.6 
L 195.992452 54.912 
L 196.077676 52.224 
L 196.119273 51.34742 
L 196.323687 52.224 
L 196.375112 54.912 
L 196.344229 57.6 
L 196.303027 60.288 
L 196.249383 62.976 
L 196.155355 65.664 
L 196.119273 66.21961 
z
M 201.890909 63.989673 
L 201.763674 62.976 
L 201.875932 60.288 
L 201.890909 60.215739 
L 201.905006 60.288 
L 202.018012 62.976 
L 201.890909 63.989673 
z
" clip-path="url(#p083e5b5778)" style="fill: none; stroke: #3b528b; stroke-width: 1.5"/>
    <path d="M 192.092494 307.584 
L 191.977972 304.896 
L 191.865736 302.208 
L 191.755148 299.52 
L 191.64542 296.832 
L 191.535514 294.144 
L 191.423988 291.456 
L 191.3087 288.768 
L 191.186204 286.08 
L 191.050425 283.392 
L 190.889241 280.704 
L 190.673885 278.016 
L 190.347636 275.498653 
L 190.334391 275.328 
L 190.149292 272.64 
L 189.981094 269.952 
L 189.831697 267.264 
L 189.704644 264.576 
L 189.606471 261.888 
L 189.549668 259.2 
L 189.560089 256.512 
L 189.698966 253.824 
L 190.149283 251.136 
L 190.347636 250.574506 
L 190.392488 251.136 
L 190.575 253.824 
L 190.746161 256.512 
L 190.923371 259.2 
L 191.132528 261.888 
L 191.435984 264.576 
L 192.097139 267.264 
L 193.233455 268.74523 
L 193.454913 269.952 
L 193.706594 272.64 
L 193.829133 275.328 
L 193.901349 278.016 
L 193.950608 280.704 
L 193.988717 283.392 
L 194.021567 286.08 
L 194.052476 288.768 
L 194.083568 291.456 
L 194.116438 294.144 
L 194.152531 296.832 
L 194.193441 299.52 
L 194.241227 302.208 
L 194.298905 304.896 
L 194.371347 307.584 
M 201.015427 307.584 
L 200.93996 304.896 
L 200.961026 302.208 
L 201.108774 299.52 
L 201.703014 296.832 
L 201.890909 296.506007 
L 203.259371 294.144 
L 203.730683 291.456 
L 203.920981 288.768 
L 203.989466 286.08 
L 203.966372 283.392 
L 203.808453 280.704 
L 203.131384 278.016 
L 201.890909 276.842057 
L 201.401988 275.328 
L 201.306556 272.64 
L 201.890909 269.979207 
L 204.063453 272.64 
L 204.776727 274.151084 
L 204.960062 275.328 
L 205.23932 278.016 
L 205.407958 280.704 
L 205.508639 283.392 
L 205.562544 286.08 
L 205.580759 288.768 
L 205.568863 291.456 
L 205.528886 294.144 
L 205.460039 296.832 
L 205.358667 299.52 
L 205.217443 302.208 
L 205.023422 304.896 
L 204.776727 307.379176 
L 204.729154 307.584 
M 210.611826 307.584 
L 210.984834 304.896 
L 211.3405 302.208 
L 211.681567 299.52 
L 212.010704 296.832 
L 212.330585 294.144 
L 212.643972 291.456 
L 212.953832 288.768 
L 213.263464 286.08 
L 213.434182 284.603195 
L 213.718569 283.392 
L 214.317521 280.704 
L 214.882419 278.016 
L 215.420461 275.328 
L 215.938614 272.64 
L 216.32 270.612809 
L 216.561303 269.952 
L 217.485313 267.264 
L 218.337329 264.576 
L 219.134045 261.888 
L 219.205818 261.63755 
L 220.468222 259.2 
L 221.713505 256.512 
L 222.091636 255.638056 
L 223.460731 253.824 
L 224.977455 251.545979 
L 225.445693 251.136 
L 227.863273 248.746385 
L 228.366737 248.448 
L 230.749091 246.865191 
L 233.39728 245.76 
L 233.634909 245.649633 
L 236.520727 244.948093 
L 239.406545 244.635768 
L 242.292364 244.632337 
L 245.178182 244.877537 
L 248.064 245.325517 
L 250.160231 245.76 
L 250.949818 245.943016 
L 253.835636 246.705093 
L 256.721455 247.58608 
L 259.276727 248.448 
L 259.607273 248.571026 
L 262.493091 249.645398 
L 265.378909 250.800524 
L 266.222382 251.136 
L 268.264727 252.022293 
L 271.150545 253.308624 
L 272.316175 253.824 
L 274.036364 254.647401 
L 276.922182 256.039294 
L 277.921874 256.512 
L 279.808 257.470776 
L 282.693818 258.952508 
L 283.195365 259.2 
L 285.579636 260.456729 
L 288.243667 261.888 
L 288.465455 262.014733 
L 291.351273 263.580462 
L 293.173538 264.576 
L 294.237091 265.190571 
L 297.122909 266.825951 
L 297.918817 267.264 
L 300.008727 268.474242 
L 302.539448 269.952 
L 302.894545 270.169481 
L 305.780364 271.858223 
L 307.123528 272.64 
L 308.666182 273.577244 
L 311.532529 275.328 
L 311.552 275.340383 
L 314.437818 277.072398 
L 315.997796 278.016 
L 317.323636 278.84722 
L 320.209455 280.659967 
L 320.283247 280.704 
L 323.095273 282.435067 
L 324.635507 283.392 
L 325.981091 284.252895 
L 328.819965 286.08 
L 328.866909 286.111063 
L 331.752727 287.921844 
L 333.089621 288.768 
L 334.638545 289.771449 
L 337.217884 291.456 
L 337.524364 291.660629 
L 340.410182 293.515575 
L 341.39064 294.144 
L 343.296 295.386728 
M 343.296 264.18058 
L 340.765726 261.888 
L 340.410182 261.589112 
L 337.792782 259.2 
L 337.524364 258.972519 
L 334.853106 256.512 
L 334.638545 256.328354 
L 331.949572 253.824 
L 331.752727 253.653482 
L 329.085513 251.136 
L 328.866909 250.94386 
L 326.264783 248.448 
L 325.981091 248.19423 
L 323.491821 245.76 
L 323.095273 245.397653 
L 320.771728 243.072 
L 320.209455 242.544792 
L 318.110361 240.384 
L 317.323636 239.622772 
L 315.514437 237.696 
L 314.437818 236.613303 
L 312.991656 235.008 
L 311.552 233.489421 
L 310.550842 232.32 
L 308.666182 230.209533 
L 308.202116 229.632 
L 305.954736 226.944 
L 305.780364 226.745535 
L 303.820594 224.256 
L 302.894545 223.085066 
L 301.824845 221.568 
L 300.008727 218.915121 
L 299.987408 218.88 
L 298.335084 216.192 
L 297.122909 213.962197 
L 296.90393 213.504 
L 295.744795 210.816 
L 294.915319 208.128 
L 294.503102 205.44 
L 294.63086 202.752 
L 295.470585 200.064 
L 297.122909 197.628311 
L 297.271815 197.376 
L 300.008727 195.105138 
L 300.442257 194.688 
L 302.894545 193.518981 
L 305.625448 192 
L 305.780364 191.956901 
L 308.666182 191.114066 
L 311.552 190.179116 
L 313.956419 189.312 
L 314.437818 189.229547 
L 317.323636 188.720851 
L 320.209455 188.183452 
L 323.095273 187.610065 
L 325.981091 186.992576 
L 327.594594 186.624 
L 328.866909 186.494816 
L 331.752727 186.199061 
L 334.638545 185.898179 
L 337.524364 185.589499 
L 340.410182 185.270429 
L 343.296 184.938378 
M 57.6 180.648723 
L 60.485818 180.66472 
L 63.371636 180.682816 
L 66.257455 180.702881 
L 69.143273 180.725131 
L 72.029091 180.750107 
L 74.914909 180.77875 
L 77.800727 180.812572 
L 80.686545 180.853991 
L 83.572364 180.906979 
L 86.458182 180.978353 
L 89.344 181.080606 
L 92.229818 181.238823 
L 92.354178 181.248 
L 92.229818 181.293247 
L 89.344 181.891265 
L 86.458182 182.130525 
L 83.572364 182.234107 
L 80.686545 182.27139 
L 77.800727 182.270815 
L 74.914909 182.246097 
L 72.029091 182.204594 
L 69.143273 182.150551 
L 66.257455 182.086547 
L 63.371636 182.014198 
L 60.485818 181.934538 
L 57.6 181.848224 
M 343.296 177.552905 
L 340.410182 178.148451 
L 338.02668 178.56 
L 337.524364 178.594894 
L 334.638545 178.750742 
L 331.752727 178.860896 
L 328.866909 178.933549 
L 325.981091 178.97264 
L 323.095273 178.978735 
L 320.209455 178.949006 
L 317.323636 178.876264 
L 314.437818 178.746457 
L 311.878388 178.56 
L 314.437818 178.273551 
L 317.323636 178.209267 
L 320.209455 178.169654 
L 323.095273 178.113663 
L 325.981091 178.014367 
L 328.866909 177.80567 
L 331.752727 177.081559 
L 332.90436 175.872 
L 334.638545 175.489583 
L 337.524364 175.274579 
L 340.410182 175.243925 
L 343.296 175.353752 
M 57.6 171.503095 
L 60.485818 170.907549 
L 62.86932 170.496 
L 63.371636 170.461106 
L 66.257455 170.305258 
L 69.143273 170.195104 
L 72.029091 170.122451 
L 74.914909 170.08336 
L 77.800727 170.077265 
L 80.686545 170.106994 
L 83.572364 170.179736 
L 86.458182 170.309543 
L 89.017612 170.496 
L 86.458182 170.782449 
L 83.572364 170.846733 
L 80.686545 170.886346 
L 77.800727 170.942337 
L 74.914909 171.041633 
L 72.029091 171.25033 
L 69.143273 171.974441 
L 67.99164 173.184 
L 66.257455 173.566417 
L 63.371636 173.781421 
L 60.485818 173.812075 
L 57.6 173.702248 
M 343.296 168.407277 
L 340.410182 168.39128 
L 337.524364 168.373184 
L 334.638545 168.353119 
L 331.752727 168.330869 
L 328.866909 168.305893 
L 325.981091 168.27725 
L 323.095273 168.243428 
L 320.209455 168.202009 
L 317.323636 168.149021 
L 314.437818 168.077647 
L 311.552 167.975394 
L 308.666182 167.817177 
L 308.541822 167.808 
L 308.666182 167.762753 
L 311.552 167.164735 
L 314.437818 166.925475 
L 317.323636 166.821893 
L 320.209455 166.78461 
L 323.095273 166.785185 
L 325.981091 166.809903 
L 328.866909 166.851406 
L 331.752727 166.905449 
L 334.638545 166.969453 
L 337.524364 167.041802 
L 340.410182 167.121462 
L 343.296 167.207776 
M 57.6 84.87542 
L 60.130274 87.168 
L 60.485818 87.466888 
L 63.103218 89.856 
L 63.371636 90.083481 
L 66.042894 92.544 
L 66.257455 92.727646 
L 68.946428 95.232 
L 69.143273 95.402518 
L 71.810487 97.92 
L 72.029091 98.11214 
L 74.631217 100.608 
L 74.914909 100.86177 
L 77.404179 103.296 
L 77.800727 103.658347 
L 80.124272 105.984 
L 80.686545 106.511208 
L 82.785639 108.672 
L 83.572364 109.433228 
L 85.381563 111.36 
L 86.458182 112.442697 
L 87.904344 114.048 
L 89.344 115.566579 
L 90.345158 116.736 
L 92.229818 118.846467 
L 92.693884 119.424 
L 94.941264 122.112 
L 95.115636 122.310465 
L 97.075406 124.8 
L 98.001455 125.970934 
L 99.071155 127.488 
L 100.887273 130.140879 
L 100.908592 130.176 
L 102.560916 132.864 
L 103.773091 135.093803 
L 103.99207 135.552 
L 105.151205 138.24 
L 105.980681 140.928 
L 106.392898 143.616 
L 106.26514 146.304 
L 105.425415 148.992 
L 103.773091 151.427689 
L 103.624185 151.68 
L 100.887273 153.950862 
L 100.453743 154.368 
L 98.001455 155.537019 
L 95.270552 157.056 
L 95.115636 157.099099 
L 92.229818 157.941934 
L 89.344 158.876884 
L 86.939581 159.744 
L 86.458182 159.826453 
L 83.572364 160.335149 
L 80.686545 160.872548 
L 77.800727 161.445935 
L 74.914909 162.063424 
L 73.301406 162.432 
L 72.029091 162.561184 
L 69.143273 162.856939 
L 66.257455 163.157821 
L 63.371636 163.466501 
L 60.485818 163.785571 
L 57.6 164.117622 
M 190.284174 41.472 
L 189.911166 44.16 
L 189.5555 46.848 
L 189.214433 49.536 
L 188.885296 52.224 
L 188.565415 54.912 
L 188.252028 57.6 
L 187.942168 60.288 
L 187.632536 62.976 
L 187.461818 64.452805 
L 187.177431 65.664 
L 186.578479 68.352 
L 186.013581 71.04 
L 185.475539 73.728 
L 184.957386 76.416 
L 184.576 78.443191 
L 184.334697 79.104 
L 183.410687 81.792 
L 182.558671 84.48 
L 181.761955 87.168 
L 181.690182 87.41845 
L 180.427778 89.856 
L 179.182495 92.544 
L 178.804364 93.417944 
L 177.435269 95.232 
L 175.918545 97.510021 
L 175.450307 97.92 
L 173.032727 100.309615 
L 172.529263 100.608 
L 170.146909 102.190809 
L 167.49872 103.296 
L 167.261091 103.406367 
L 164.375273 104.107907 
L 161.489455 104.420232 
L 158.603636 104.423663 
L 155.717818 104.178463 
L 152.832 103.730483 
L 150.735769 103.296 
L 149.946182 103.112984 
L 147.060364 102.350907 
L 144.174545 101.46992 
L 141.619273 100.608 
L 141.288727 100.484974 
L 138.402909 99.410602 
L 135.517091 98.255476 
L 134.673618 97.92 
L 132.631273 97.033707 
L 129.745455 95.747376 
L 128.579825 95.232 
L 126.859636 94.408599 
L 123.973818 93.016706 
L 122.974126 92.544 
L 121.088 91.585224 
L 118.202182 90.103492 
L 117.700635 89.856 
L 115.316364 88.599271 
L 112.652333 87.168 
L 112.430545 87.041267 
L 109.544727 85.475538 
L 107.722462 84.48 
L 106.658909 83.865429 
L 103.773091 82.230049 
L 102.977183 81.792 
L 100.887273 80.581758 
L 98.356552 79.104 
L 98.001455 78.886519 
L 95.115636 77.197777 
L 93.772472 76.416 
L 92.229818 75.478756 
L 89.363471 73.728 
L 89.344 73.715617 
L 86.458182 71.983602 
L 84.898204 71.04 
L 83.572364 70.20878 
L 80.686545 68.396033 
L 80.612753 68.352 
L 77.800727 66.620933 
L 76.260493 65.664 
L 74.914909 64.803105 
L 72.076035 62.976 
L 72.029091 62.944937 
L 69.143273 61.134156 
L 67.806379 60.288 
L 66.257455 59.284551 
L 63.678116 57.6 
L 63.371636 57.395371 
L 60.485818 55.540425 
L 59.50536 54.912 
L 57.6 53.669272 
M 199.880573 41.472 
L 199.95604 44.16 
L 199.934974 46.848 
L 199.787226 49.536 
L 199.192986 52.224 
L 199.005091 52.549993 
L 197.636629 54.912 
L 197.165317 57.6 
L 196.975019 60.288 
L 196.906534 62.976 
L 196.929628 65.664 
L 197.087547 68.352 
L 197.764616 71.04 
L 199.005091 72.213943 
L 199.494012 73.728 
L 199.589444 76.416 
L 199.005091 79.076793 
L 196.832547 76.416 
L 196.119273 74.904916 
L 195.935938 73.728 
L 195.65668 71.04 
L 195.488042 68.352 
L 195.387361 65.664 
L 195.333456 62.976 
L 195.315241 60.288 
L 195.327137 57.6 
L 195.367114 54.912 
L 195.435961 52.224 
L 195.537333 49.536 
L 195.678557 46.848 
L 195.872578 44.16 
L 196.119273 41.676824 
L 196.166846 41.472 
M 208.803506 41.472 
L 208.918028 44.16 
L 209.030264 46.848 
L 209.140852 49.536 
L 209.25058 52.224 
L 209.360486 54.912 
L 209.472012 57.6 
L 209.5873 60.288 
L 209.709796 62.976 
L 209.845575 65.664 
L 210.006759 68.352 
L 210.222115 71.04 
L 210.548364 73.557347 
L 210.561609 73.728 
L 210.746708 76.416 
L 210.914906 79.104 
L 211.064303 81.792 
L 211.191356 84.48 
L 211.289529 87.168 
L 211.346332 89.856 
L 211.335911 92.544 
L 211.197034 95.232 
L 210.746717 97.92 
L 210.548364 98.481494 
L 210.503512 97.92 
L 210.321 95.232 
L 210.149839 92.544 
L 209.972629 89.856 
L 209.763472 87.168 
L 209.460016 84.48 
L 208.798861 81.792 
L 207.662545 80.31077 
L 207.441087 79.104 
L 207.189406 76.416 
L 207.066867 73.728 
L 206.994651 71.04 
L 206.945392 68.352 
L 206.907283 65.664 
L 206.874433 62.976 
L 206.843524 60.288 
L 206.812432 57.6 
L 206.779562 54.912 
L 206.743469 52.224 
L 206.702559 49.536 
L 206.654773 46.848 
L 206.597095 44.16 
L 206.524653 41.472 
M 199.005091 292.015639 
L 198.807494 291.456 
L 198.319002 288.768 
L 198.220837 286.08 
L 198.478176 283.392 
L 199.005091 281.657031 
L 199.589396 283.392 
L 199.790163 286.08 
L 199.734034 288.768 
L 199.284976 291.456 
L 199.005091 292.015639 
z
M 199.005091 265.0953 
L 198.250805 264.576 
L 197.343245 261.888 
L 199.005091 261.050574 
L 199.322805 261.888 
L 199.236238 264.576 
L 199.005091 265.0953 
z
M 196.119273 259.522902 
L 196.033185 259.2 
L 195.809781 256.512 
L 195.911349 253.824 
L 196.119273 252.224061 
L 196.262114 253.824 
L 196.330449 256.512 
L 196.244872 259.2 
L 196.119273 259.522902 
z
M 201.890909 254.53731 
L 201.785177 253.824 
L 201.890909 253.589346 
L 201.99523 253.824 
L 201.890909 254.53731 
M 77.800727 176.158944 
L 76.104452 175.872 
L 77.800727 175.566969 
L 80.686545 175.485283 
L 83.572364 175.777431 
L 83.896018 175.872 
L 83.572364 175.957228 
L 80.686545 176.258107 
L 77.800727 176.158944 
M 305.780364 176.224422 
L 305.283456 175.872 
L 305.780364 175.777321 
L 307.812441 175.872 
L 305.780364 176.224422 
z
M 95.115636 173.278679 
L 93.083559 173.184 
L 95.115636 172.831578 
L 95.612544 173.184 
L 95.115636 173.278679 
M 317.323636 173.278569 
L 316.999982 173.184 
L 317.323636 173.098772 
L 320.209455 172.797893 
L 323.095273 172.897056 
L 324.791548 173.184 
L 323.095273 173.489031 
L 320.209455 173.570717 
L 317.323636 173.278569 
M 199.005091 95.466654 
L 198.90077 95.232 
L 199.005091 94.51869 
L 199.110823 95.232 
L 199.005091 95.466654 
z
M 204.776727 96.831939 
L 204.633886 95.232 
L 204.565551 92.544 
L 204.651128 89.856 
L 204.776727 89.533098 
L 204.862815 89.856 
L 205.086219 92.544 
L 204.984651 95.232 
L 204.776727 96.831939 
z
M 201.890909 88.005426 
L 201.573195 87.168 
L 201.659762 84.48 
L 201.890909 83.9607 
L 202.645195 84.48 
L 203.552755 87.168 
L 201.890909 88.005426 
z
M 201.890909 67.398969 
L 201.306604 65.664 
L 201.105837 62.976 
L 201.161966 60.288 
L 201.611024 57.6 
L 201.890909 57.040361 
L 202.088506 57.6 
L 202.576998 60.288 
L 202.675163 62.976 
L 202.417824 65.664 
L 201.890909 67.398969 
z
" clip-path="url(#p083e5b5778)" style="fill: none; stroke: #2c728e; stroke-width: 1.5"/>
    <path d="M 191.204695 307.584 
L 191.050796 304.896 
L 190.890385 302.208 
L 190.720403 299.52 
L 190.536627 296.832 
L 190.347636 294.322997 
L 190.326225 294.144 
L 190.017913 291.456 
L 189.720976 288.768 
L 189.433167 286.08 
L 189.152085 283.392 
L 188.87506 280.704 
L 188.598969 278.016 
L 188.319986 275.328 
L 188.03317 272.64 
L 187.731806 269.952 
L 187.461818 267.694795 
L 187.383214 267.264 
L 186.915089 264.576 
L 186.462153 261.888 
L 186.017875 259.2 
L 185.574404 256.512 
L 185.121553 253.824 
L 184.64501 251.136 
L 184.576 250.75191 
L 183.999224 248.448 
L 183.347721 245.76 
L 182.700832 243.072 
L 182.037957 240.384 
L 181.690182 239.00942 
L 181.238751 237.696 
L 180.349488 235.008 
L 179.456485 232.32 
L 178.804364 230.412225 
L 178.453831 229.632 
L 177.291702 226.944 
L 176.102458 224.256 
L 175.918545 223.841133 
L 174.667635 221.568 
L 173.159228 218.88 
L 173.032727 218.655181 
L 171.366976 216.192 
L 170.146909 214.440651 
L 169.37625 213.504 
L 167.261091 210.985009 
L 167.097805 210.816 
L 164.435247 208.128 
L 164.375273 208.070103 
L 161.489455 205.586995 
L 161.302797 205.44 
L 158.603636 203.450466 
L 157.580953 202.752 
L 155.717818 201.591412 
L 153.068673 200.064 
L 152.832 199.94217 
L 149.946182 198.519569 
L 147.500199 197.376 
L 147.060364 197.199855 
L 144.174545 196.078374 
L 141.288727 195.007167 
L 140.445934 194.688 
L 138.402909 194.069971 
L 135.517091 193.23486 
L 132.631273 192.413643 
L 131.217708 192 
L 129.745455 191.671413 
L 126.859636 191.049358 
L 123.973818 190.446813 
L 121.088 189.843581 
L 118.613711 189.312 
L 118.202182 189.247051 
L 115.316364 188.799728 
L 112.430545 188.37634 
L 109.544727 187.963051 
L 106.658909 187.550099 
L 103.773091 187.130028 
L 100.887273 186.696691 
L 100.424448 186.624 
L 98.001455 186.371219 
L 95.115636 186.089508 
L 92.229818 185.821781 
L 89.344 185.561677 
L 86.458182 185.304528 
L 83.572364 185.046727 
L 80.686545 184.785344 
L 77.800727 184.517875 
L 74.914909 184.242082 
L 72.029091 183.955871 
L 71.836877 183.936 
L 69.143273 183.759528 
L 66.257455 183.588019 
L 63.371636 183.429457 
L 60.485818 183.279885 
L 57.6 183.136434 
M 200.448 307.584 
L 200.448 304.896 
L 200.448 302.208 
L 200.448 299.52 
L 200.448 296.832 
L 199.005091 294.328592 
L 198.898145 294.144 
L 197.986405 291.456 
L 197.647011 288.768 
L 197.563686 286.08 
L 197.703902 283.392 
L 198.266717 280.704 
L 199.005091 279.334236 
L 200.448 280.704 
L 200.448 283.392 
L 200.448 286.08 
L 200.448 288.768 
L 200.448 291.456 
L 200.448 294.144 
L 201.890909 294.328592 
L 201.997855 294.144 
L 202.909595 291.456 
L 203.248989 288.768 
L 203.332314 286.08 
L 203.192098 283.392 
L 202.629283 280.704 
L 201.890909 279.334236 
L 200.448 278.016 
L 200.448 275.328 
L 200.448 272.64 
L 200.448 269.952 
L 199.005091 267.720931 
L 196.119273 267.697145 
L 195.422334 269.952 
L 195.064669 272.64 
L 194.882535 275.328 
L 194.779015 278.016 
L 194.719325 280.704 
L 194.688039 283.392 
L 194.677512 286.08 
L 194.683858 288.768 
L 194.705352 291.456 
L 194.741776 294.144 
L 194.794246 296.832 
L 194.865387 299.52 
L 194.959892 302.208 
L 195.085742 304.896 
L 195.256759 307.584 
M 209.691305 307.584 
L 209.845204 304.896 
L 210.005615 302.208 
L 210.175597 299.52 
L 210.359373 296.832 
L 210.548364 294.322997 
L 210.569775 294.144 
L 210.878087 291.456 
L 211.175024 288.768 
L 211.462833 286.08 
L 211.743915 283.392 
L 212.02094 280.704 
L 212.297031 278.016 
L 212.576014 275.328 
L 212.86283 272.64 
L 213.164194 269.952 
L 213.434182 267.694795 
L 213.512786 267.264 
L 213.980911 264.576 
L 214.433847 261.888 
L 214.878125 259.2 
L 215.321596 256.512 
L 215.774447 253.824 
L 216.25099 251.136 
L 216.32 250.75191 
L 216.896776 248.448 
L 217.548279 245.76 
L 218.195168 243.072 
L 218.858043 240.384 
L 219.205818 239.00942 
L 219.657249 237.696 
L 220.546512 235.008 
L 221.439515 232.32 
L 222.091636 230.412225 
L 222.442169 229.632 
L 223.604298 226.944 
L 224.793542 224.256 
L 224.977455 223.841133 
L 226.228365 221.568 
L 227.736772 218.88 
L 227.863273 218.655181 
L 229.529024 216.192 
L 230.749091 214.440651 
L 231.51975 213.504 
L 233.634909 210.985009 
L 233.798195 210.816 
L 236.460753 208.128 
L 236.520727 208.070103 
L 239.406545 205.586995 
L 239.593203 205.44 
L 242.292364 203.450466 
L 243.315047 202.752 
L 245.178182 201.591412 
L 247.827327 200.064 
L 248.064 199.94217 
L 250.949818 198.519569 
L 253.395801 197.376 
L 253.835636 197.199855 
L 256.721455 196.078374 
L 259.607273 195.007167 
L 260.450066 194.688 
L 262.493091 194.069971 
L 265.378909 193.23486 
L 268.264727 192.413643 
L 269.678292 192 
L 271.150545 191.671413 
L 274.036364 191.049358 
L 276.922182 190.446813 
L 279.808 189.843581 
L 282.282289 189.312 
L 282.693818 189.247051 
L 285.579636 188.799728 
L 288.465455 188.37634 
L 291.351273 187.963051 
L 294.237091 187.550099 
L 297.122909 187.130028 
L 300.008727 186.696691 
L 300.471552 186.624 
L 302.894545 186.371219 
L 305.780364 186.089508 
L 308.666182 185.821781 
L 311.552 185.561677 
L 314.437818 185.304528 
L 317.323636 185.046727 
L 320.209455 184.785344 
L 323.095273 184.517875 
L 325.981091 184.242082 
L 328.866909 183.955871 
L 329.059123 183.936 
L 331.752727 183.759528 
L 334.638545 183.588019 
L 337.524364 183.429457 
L 340.410182 183.279885 
L 343.296 183.136434 
M 57.6 179.362545 
L 60.485818 179.521719 
L 63.371636 179.638855 
L 66.257455 179.726812 
L 69.143273 179.793014 
L 72.029091 179.841828 
L 74.914909 179.875695 
L 77.800727 179.895654 
L 80.686545 179.901499 
L 83.572364 179.891622 
L 86.458182 179.862405 
L 89.344 179.806732 
L 92.229818 179.710246 
L 95.115636 179.540598 
L 98.001455 179.207735 
L 100.422213 178.56 
L 100.396711 175.872 
L 98.001455 174.528 
L 95.115636 174.528 
L 92.229818 174.528 
L 89.344 174.528 
L 87.928746 175.872 
L 86.458182 176.559155 
L 83.572364 177.083247 
L 80.686545 177.213881 
L 77.800727 177.136303 
L 74.914909 176.820259 
L 72.029091 175.971526 
L 71.830913 175.872 
L 69.143273 174.528 
L 66.257455 174.528 
L 63.371636 174.528 
L 60.485818 174.528 
L 57.6 174.528 
M 343.296 179.362545 
L 340.410182 179.521719 
L 337.524364 179.638855 
L 334.638545 179.726812 
L 331.752727 179.793014 
L 328.866909 179.841828 
L 325.981091 179.875695 
L 323.095273 179.895654 
L 320.209455 179.901499 
L 317.323636 179.891622 
L 314.437818 179.862405 
L 311.552 179.806732 
L 308.666182 179.710246 
L 305.780364 179.540598 
L 302.894545 179.207735 
L 300.473787 178.56 
L 300.499289 175.872 
L 300.008727 174.528 
L 297.122909 174.528 
L 294.237091 174.528 
L 291.351273 174.528 
L 290.413499 173.184 
L 288.465455 172.092722 
L 285.579636 171.85936 
L 282.693818 172.7612 
L 282.206038 173.184 
L 282.693818 174.528 
L 285.579636 174.528 
L 288.465455 174.528 
L 290.413499 175.872 
L 288.465455 176.963278 
L 285.579636 177.19664 
L 282.693818 176.2948 
L 282.206038 175.872 
L 279.808 174.528 
L 276.922182 174.528 
L 275.4417 175.872 
L 275.4455 178.56 
L 276.922182 179.115492 
L 279.808 179.787524 
L 282.693818 180.206607 
L 285.579636 180.540287 
L 288.465455 180.897016 
L 290.457348 181.248 
L 288.465455 181.583984 
L 285.579636 181.945193 
L 282.693818 182.218716 
L 279.808 182.438718 
L 276.922182 182.626591 
L 274.036364 182.799646 
L 271.150545 182.979479 
L 268.264727 183.21357 
L 265.378909 183.705324 
L 264.73061 183.936 
L 262.493091 184.449036 
L 259.607273 184.956988 
L 256.721455 185.389985 
L 253.835636 185.833473 
L 250.949818 186.464006 
L 250.438809 186.624 
L 248.064 187.369013 
L 245.178182 188.119816 
L 242.292364 188.949375 
L 241.334669 189.312 
L 239.406545 190.143434 
L 236.520727 191.282895 
L 235.051501 192 
L 233.634909 192.806494 
L 230.749091 194.473487 
L 230.440601 194.688 
L 227.863273 196.563587 
L 226.917519 197.376 
L 224.977455 199.154032 
L 224.137369 200.064 
L 222.091636 202.454057 
L 221.872476 202.752 
L 220.102227 205.44 
L 219.205818 206.741973 
L 218.461254 208.128 
L 217.238184 210.816 
L 216.32 212.603028 
L 215.942105 213.504 
L 215.062059 216.192 
L 214.25028 218.88 
L 213.434182 221.089441 
L 213.265858 221.568 
L 212.597104 224.256 
L 212.122035 226.944 
L 211.655497 229.632 
L 211.105782 232.32 
L 210.548364 234.403198 
L 210.30308 235.008 
L 209.778237 237.696 
L 209.52734 240.384 
L 209.334189 243.072 
L 209.148112 245.76 
L 208.945968 248.448 
L 208.709129 251.136 
L 208.414497 253.824 
L 208.025097 256.512 
L 207.662545 258.367132 
L 207.287016 256.512 
L 206.905095 253.824 
L 206.547588 251.136 
L 206.09804 248.448 
L 205.375556 245.76 
L 204.776727 244.384385 
L 201.890909 244.380985 
L 200.448 243.072 
L 200.448 240.384 
L 199.005091 239.001133 
L 197.739376 237.696 
L 198.122301 235.008 
L 199.005091 234.174944 
L 200.448 235.008 
L 200.448 237.696 
L 201.890909 239.001133 
L 203.156624 237.696 
L 202.773699 235.008 
L 201.890909 234.174944 
L 200.448 232.32 
L 199.005091 230.614558 
L 196.119273 230.427356 
L 193.233455 230.414961 
L 192.636806 229.632 
L 192.00245 226.944 
L 191.827946 224.256 
L 191.806966 221.568 
L 191.973885 218.88 
L 193.233455 216.461879 
L 194.5036 218.88 
L 196.119273 221.032642 
L 199.005091 219.766961 
L 200.448 218.88 
L 200.448 216.192 
L 201.890909 215.36305 
L 204.776727 214.478401 
L 205.884905 213.504 
L 206.106042 210.816 
L 204.776727 209.402138 
L 201.890909 208.802155 
L 200.448 210.816 
L 200.448 213.504 
L 199.005091 215.36305 
L 196.119273 214.478401 
L 195.011095 213.504 
L 194.789958 210.816 
L 196.119273 209.402138 
L 199.005091 208.802155 
L 200.448 208.128 
L 199.005091 207.365769 
L 196.119273 205.75906 
L 193.233455 208.044983 
L 193.159511 208.128 
L 191.708845 210.816 
L 190.990328 213.504 
L 190.347636 214.433051 
L 189.792901 213.504 
L 189.057608 210.816 
L 188.638885 208.128 
L 187.461818 205.589168 
L 187.342512 205.44 
L 186.051464 202.752 
L 184.725165 200.064 
L 184.576 199.904876 
L 182.833018 197.376 
L 181.690182 195.986532 
L 180.39816 194.688 
L 178.804364 193.162116 
L 177.372241 192 
L 175.918545 190.893296 
L 173.197385 189.312 
L 173.032727 189.164876 
L 170.146909 187.901553 
L 167.261091 186.730132 
L 167.098461 186.624 
L 164.375273 185.502789 
L 161.489455 185.115288 
L 158.603636 184.440363 
L 157.602311 183.936 
L 158.603636 183.32614 
L 161.489455 182.649826 
L 164.375273 181.314809 
L 164.463874 181.248 
L 166.917846 178.56 
L 165.193442 175.872 
L 164.375273 174.528 
L 163.651391 175.872 
L 163.006043 178.56 
L 161.489455 179.785346 
L 158.603636 179.581554 
L 157.556722 178.56 
L 156.607689 175.872 
L 155.717818 174.528 
L 152.832 174.528 
L 151.879704 175.872 
L 150.520555 178.56 
L 152.832 180.056237 
L 155.42738 181.248 
L 152.832 182.408749 
L 149.946182 182.565328 
L 147.060364 182.546921 
L 144.174545 182.38555 
L 141.288727 181.798234 
L 140.447425 181.248 
L 140.434572 178.56 
L 140.233827 175.872 
L 138.402909 174.528 
L 136.411427 175.872 
L 135.517091 176.692209 
L 132.631273 177.048752 
L 131.230067 175.872 
L 129.745455 174.528 
L 126.859636 174.528 
L 125.4543 175.872 
L 125.4505 178.56 
L 123.973818 179.115492 
L 121.088 179.787524 
L 118.202182 180.206607 
L 115.316364 180.540287 
L 112.430545 180.897016 
L 110.438652 181.248 
L 112.430545 181.583984 
L 115.316364 181.945193 
L 118.202182 182.218716 
L 121.088 182.438718 
L 123.973818 182.626591 
L 126.859636 182.799646 
L 129.745455 182.979479 
L 132.631273 183.21357 
L 135.517091 183.705324 
L 136.16539 183.936 
L 138.402909 184.449036 
L 141.288727 184.956988 
L 144.174545 185.389985 
L 147.060364 185.833473 
L 149.946182 186.464006 
L 150.457191 186.624 
L 152.832 187.369013 
L 155.717818 188.119816 
L 158.603636 188.949375 
L 159.561331 189.312 
L 161.489455 190.143434 
L 164.375273 191.282895 
L 165.844499 192 
L 167.261091 192.806494 
L 170.146909 194.473487 
L 170.455399 194.688 
L 173.032727 196.563587 
L 173.978481 197.376 
L 175.918545 199.154032 
L 176.758631 200.064 
L 178.804364 202.454057 
L 179.023524 202.752 
L 180.793773 205.44 
L 181.690182 206.741973 
L 182.434746 208.128 
L 183.657816 210.816 
L 184.576 212.603028 
L 184.953895 213.504 
L 185.833941 216.192 
L 186.64572 218.88 
L 187.461818 221.089441 
L 187.630142 221.568 
L 188.298896 224.256 
L 188.773965 226.944 
L 189.240503 229.632 
L 189.790218 232.32 
L 190.347636 234.403198 
L 190.59292 235.008 
L 191.117763 237.696 
L 191.36866 240.384 
L 191.561811 243.072 
L 191.747888 245.76 
L 191.950032 248.448 
L 192.186871 251.136 
L 192.481503 253.824 
L 192.870903 256.512 
L 193.233455 258.367132 
L 193.608984 256.512 
L 193.990905 253.824 
L 194.348412 251.136 
L 194.79796 248.448 
L 195.520444 245.76 
L 196.119273 244.384385 
L 199.005091 244.380985 
L 200.448 245.76 
L 200.448 248.448 
L 201.890909 250.681649 
L 202.34569 251.136 
L 203.314558 253.824 
L 203.063874 256.512 
L 201.890909 258.3265 
L 200.448 256.512 
L 200.448 253.824 
L 200.448 251.136 
L 199.005091 250.681649 
L 198.55031 251.136 
L 197.581442 253.824 
L 197.832126 256.512 
L 199.005091 258.3265 
L 200.448 259.2 
L 200.448 261.888 
L 200.448 264.576 
L 200.448 267.264 
L 201.890909 267.720931 
L 204.776727 267.697145 
L 205.473666 269.952 
L 205.831331 272.64 
L 206.013465 275.328 
L 206.116985 278.016 
L 206.176675 280.704 
L 206.207961 283.392 
L 206.218488 286.08 
L 206.212142 288.768 
L 206.190648 291.456 
L 206.154224 294.144 
L 206.101754 296.832 
L 206.030613 299.52 
L 205.936108 302.208 
L 205.810258 304.896 
L 205.639241 307.584 
M 57.6 169.693455 
L 60.485818 169.534281 
L 63.371636 169.417145 
L 66.257455 169.329188 
L 69.143273 169.262986 
L 72.029091 169.214172 
L 74.914909 169.180305 
L 77.800727 169.160346 
L 80.686545 169.154501 
L 83.572364 169.164378 
L 86.458182 169.193595 
L 89.344 169.249268 
L 92.229818 169.345754 
L 95.115636 169.515402 
L 98.001455 169.848265 
L 100.422213 170.496 
L 100.396711 173.184 
L 100.887273 174.528 
L 103.773091 174.528 
L 106.658909 174.528 
L 109.544727 174.528 
L 110.482501 173.184 
L 112.430545 172.092722 
L 115.316364 171.85936 
L 118.202182 172.7612 
L 118.689962 173.184 
L 121.088 174.528 
L 123.973818 174.528 
L 125.4543 173.184 
L 125.4505 170.496 
L 123.973818 169.940508 
L 121.088 169.268476 
L 118.202182 168.849393 
L 115.316364 168.515713 
L 112.430545 168.158984 
L 110.438652 167.808 
L 112.430545 167.472016 
L 115.316364 167.110807 
L 118.202182 166.837284 
L 121.088 166.617282 
L 123.973818 166.429409 
L 126.859636 166.256354 
L 129.745455 166.076521 
L 132.631273 165.84243 
L 135.517091 165.350676 
L 136.16539 165.12 
L 138.402909 164.606964 
L 141.288727 164.099012 
L 144.174545 163.666015 
L 147.060364 163.222527 
L 149.946182 162.591994 
L 150.457191 162.432 
L 152.832 161.686987 
L 155.717818 160.936184 
L 158.603636 160.106625 
L 159.561331 159.744 
L 161.489455 158.912566 
L 164.375273 157.773105 
L 165.844499 157.056 
L 167.261091 156.249506 
L 170.146909 154.582513 
L 170.455399 154.368 
L 173.032727 152.492413 
L 173.978481 151.68 
L 175.918545 149.901968 
L 176.758631 148.992 
L 178.804364 146.601943 
L 179.023524 146.304 
L 180.793773 143.616 
L 181.690182 142.314027 
L 182.434746 140.928 
L 183.657816 138.24 
L 184.576 136.452972 
L 184.953895 135.552 
L 185.833941 132.864 
L 186.64572 130.176 
L 187.461818 127.966559 
L 187.630142 127.488 
L 188.298896 124.8 
L 188.773965 122.112 
L 189.240503 119.424 
L 189.790218 116.736 
L 190.347636 114.652802 
L 190.59292 114.048 
L 191.117763 111.36 
L 191.36866 108.672 
L 191.561811 105.984 
L 191.747888 103.296 
L 191.950032 100.608 
L 192.186871 97.92 
L 192.481503 95.232 
L 192.870903 92.544 
L 193.233455 90.688868 
L 193.608984 92.544 
L 193.990905 95.232 
L 194.348412 97.92 
L 194.79796 100.608 
L 195.520444 103.296 
L 196.119273 104.671615 
L 199.005091 104.675015 
L 200.448 103.296 
L 200.448 100.608 
L 201.890909 98.374351 
L 202.34569 97.92 
L 203.314558 95.232 
L 203.063874 92.544 
L 201.890909 90.7295 
L 200.448 92.544 
L 200.448 95.232 
L 200.448 97.92 
L 199.005091 98.374351 
L 198.55031 97.92 
L 197.581442 95.232 
L 197.832126 92.544 
L 199.005091 90.7295 
L 200.448 89.856 
L 200.448 87.168 
L 200.448 84.48 
L 200.448 81.792 
L 201.890909 81.335069 
L 204.776727 81.358855 
L 205.473666 79.104 
L 205.831331 76.416 
L 206.013465 73.728 
L 206.116985 71.04 
L 206.176675 68.352 
L 206.207961 65.664 
L 206.218488 62.976 
L 206.212142 60.288 
L 206.190648 57.6 
L 206.154224 54.912 
L 206.101754 52.224 
L 206.030613 49.536 
L 205.936108 46.848 
L 205.810258 44.16 
L 205.639241 41.472 
M 343.296 169.693455 
L 340.410182 169.534281 
L 337.524364 169.417145 
L 334.638545 169.329188 
L 331.752727 169.262986 
L 328.866909 169.214172 
L 325.981091 169.180305 
L 323.095273 169.160346 
L 320.209455 169.154501 
L 317.323636 169.164378 
L 314.437818 169.193595 
L 311.552 169.249268 
L 308.666182 169.345754 
L 305.780364 169.515402 
L 302.894545 169.848265 
L 300.473787 170.496 
L 300.499289 173.184 
L 302.894545 174.528 
L 305.780364 174.528 
L 308.666182 174.528 
L 311.552 174.528 
L 312.967254 173.184 
L 314.437818 172.496845 
L 317.323636 171.972753 
L 320.209455 171.842119 
L 323.095273 171.919697 
L 325.981091 172.235741 
L 328.866909 173.084474 
L 329.065087 173.184 
L 331.752727 174.528 
L 334.638545 174.528 
L 337.524364 174.528 
L 340.410182 174.528 
L 343.296 174.528 
M 191.204695 41.472 
L 191.050796 44.16 
L 190.890385 46.848 
L 190.720403 49.536 
L 190.536627 52.224 
L 190.347636 54.733003 
L 190.326225 54.912 
L 190.017913 57.6 
L 189.720976 60.288 
L 189.433167 62.976 
L 189.152085 65.664 
L 188.87506 68.352 
L 188.598969 71.04 
L 188.319986 73.728 
L 188.03317 76.416 
L 187.731806 79.104 
L 187.461818 81.361205 
L 187.383214 81.792 
L 186.915089 84.48 
L 186.462153 87.168 
L 186.017875 89.856 
L 185.574404 92.544 
L 185.121553 95.232 
L 184.64501 97.92 
L 184.576 98.30409 
L 183.999224 100.608 
L 183.347721 103.296 
L 182.700832 105.984 
L 182.037957 108.672 
L 181.690182 110.04658 
L 181.238751 111.36 
L 180.349488 114.048 
L 179.456485 116.736 
L 178.804364 118.643775 
L 178.453831 119.424 
L 177.291702 122.112 
L 176.102458 124.8 
L 175.918545 125.214867 
L 174.667635 127.488 
L 173.159228 130.176 
L 173.032727 130.400819 
L 171.366976 132.864 
L 170.146909 134.615349 
L 169.37625 135.552 
L 167.261091 138.070991 
L 167.097805 138.24 
L 164.435247 140.928 
L 164.375273 140.985897 
L 161.489455 143.469005 
L 161.302797 143.616 
L 158.603636 145.605534 
L 157.580953 146.304 
L 155.717818 147.464588 
L 153.068673 148.992 
L 152.832 149.11383 
L 149.946182 150.536431 
L 147.500199 151.68 
L 147.060364 151.856145 
L 144.174545 152.977626 
L 141.288727 154.048833 
L 140.445934 154.368 
L 138.402909 154.986029 
L 135.517091 155.82114 
L 132.631273 156.642357 
L 131.217708 157.056 
L 129.745455 157.384587 
L 126.859636 158.006642 
L 123.973818 158.609187 
L 121.088 159.212419 
L 118.613711 159.744 
L 118.202182 159.808949 
L 115.316364 160.256272 
L 112.430545 160.67966 
L 109.544727 161.092949 
L 106.658909 161.505901 
L 103.773091 161.925972 
L 100.887273 162.359309 
L 100.424448 162.432 
L 98.001455 162.684781 
L 95.115636 162.966492 
L 92.229818 163.234219 
L 89.344 163.494323 
L 86.458182 163.751472 
L 83.572364 164.009273 
L 80.686545 164.270656 
L 77.800727 164.538125 
L 74.914909 164.813918 
L 72.029091 165.100129 
L 71.836877 165.12 
L 69.143273 165.296472 
L 66.257455 165.467981 
L 63.371636 165.626543 
L 60.485818 165.776115 
L 57.6 165.919566 
M 200.448 41.472 
L 200.448 44.16 
L 200.448 46.848 
L 200.448 49.536 
L 200.448 52.224 
L 199.005091 54.727408 
L 198.898145 54.912 
L 197.986405 57.6 
L 197.647011 60.288 
L 197.563686 62.976 
L 197.703902 65.664 
L 198.266717 68.352 
L 199.005091 69.721764 
L 200.448 68.352 
L 200.448 65.664 
L 200.448 62.976 
L 200.448 60.288 
L 200.448 57.6 
L 200.448 54.912 
L 201.890909 54.727408 
L 201.997855 54.912 
L 202.909595 57.6 
L 203.248989 60.288 
L 203.332314 62.976 
L 203.192098 65.664 
L 202.629283 68.352 
L 201.890909 69.721764 
L 200.448 71.04 
L 200.448 73.728 
L 200.448 76.416 
L 200.448 79.104 
L 199.005091 81.335069 
L 196.119273 81.358855 
L 195.422334 79.104 
L 195.064669 76.416 
L 194.882535 73.728 
L 194.779015 71.04 
L 194.719325 68.352 
L 194.688039 65.664 
L 194.677512 62.976 
L 194.683858 60.288 
L 194.705352 57.6 
L 194.741776 54.912 
L 194.794246 52.224 
L 194.865387 49.536 
L 194.959892 46.848 
L 195.085742 44.16 
L 195.256759 41.472 
M 209.691305 41.472 
L 209.845204 44.16 
L 210.005615 46.848 
L 210.175597 49.536 
L 210.359373 52.224 
L 210.548364 54.733003 
L 210.569775 54.912 
L 210.878087 57.6 
L 211.175024 60.288 
L 211.462833 62.976 
L 211.743915 65.664 
L 212.02094 68.352 
L 212.297031 71.04 
L 212.576014 73.728 
L 212.86283 76.416 
L 213.164194 79.104 
L 213.434182 81.361205 
L 213.512786 81.792 
L 213.980911 84.48 
L 214.433847 87.168 
L 214.878125 89.856 
L 215.321596 92.544 
L 215.774447 95.232 
L 216.25099 97.92 
L 216.32 98.30409 
L 216.896776 100.608 
L 217.548279 103.296 
L 218.195168 105.984 
L 218.858043 108.672 
L 219.205818 110.04658 
L 219.657249 111.36 
L 220.546512 114.048 
L 221.439515 116.736 
L 222.091636 118.643775 
L 222.442169 119.424 
L 223.604298 122.112 
L 224.793542 124.8 
L 224.977455 125.214867 
L 226.228365 127.488 
L 227.736772 130.176 
L 227.863273 130.400819 
L 229.529024 132.864 
L 230.749091 134.615349 
L 231.51975 135.552 
L 233.634909 138.070991 
L 233.798195 138.24 
L 236.460753 140.928 
L 236.520727 140.985897 
L 239.406545 143.469005 
L 239.593203 143.616 
L 242.292364 145.605534 
L 243.315047 146.304 
L 245.178182 147.464588 
L 247.827327 148.992 
L 248.064 149.11383 
L 250.949818 150.536431 
L 253.395801 151.68 
L 253.835636 151.856145 
L 256.721455 152.977626 
L 259.607273 154.048833 
L 260.450066 154.368 
L 262.493091 154.986029 
L 265.378909 155.82114 
L 268.264727 156.642357 
L 269.678292 157.056 
L 271.150545 157.384587 
L 274.036364 158.006642 
L 276.922182 158.609187 
L 279.808 159.212419 
L 282.282289 159.744 
L 282.693818 159.808949 
L 285.579636 160.256272 
L 288.465455 160.67966 
L 291.351273 161.092949 
L 294.237091 161.505901 
L 297.122909 161.925972 
L 300.008727 162.359309 
L 300.471552 162.432 
L 302.894545 162.684781 
L 305.780364 162.966492 
L 308.666182 163.234219 
L 311.552 163.494323 
L 314.437818 163.751472 
L 317.323636 164.009273 
L 320.209455 164.270656 
L 323.095273 164.538125 
L 325.981091 164.813918 
L 328.866909 165.100129 
L 329.059123 165.12 
L 331.752727 165.296472 
L 334.638545 165.467981 
L 337.524364 165.626543 
L 340.410182 165.776115 
L 343.296 165.919566 
M 201.890909 230.614558 
L 204.776727 230.427356 
L 207.662545 230.414961 
L 208.259194 229.632 
L 208.89355 226.944 
L 209.068054 224.256 
L 209.089034 221.568 
L 208.922115 218.88 
L 207.662545 216.461879 
L 206.3924 218.88 
L 204.776727 221.032642 
L 201.890909 219.766961 
L 200.448 221.568 
L 201.890909 222.983423 
L 202.781105 224.256 
L 201.890909 226.915962 
L 200.448 224.256 
L 199.005091 222.983423 
L 198.114895 224.256 
L 199.005091 226.915962 
L 200.448 226.944 
L 200.448 229.632 
L 201.890909 230.614558 
z
M 210.548364 214.433051 
L 211.103099 213.504 
L 211.838392 210.816 
L 212.257115 208.128 
L 213.434182 205.589168 
L 213.553488 205.44 
L 214.844536 202.752 
L 216.170835 200.064 
L 216.32 199.904876 
L 218.062982 197.376 
L 219.205818 195.986532 
L 220.49784 194.688 
L 222.091636 193.162116 
L 223.523759 192 
L 224.977455 190.893296 
L 227.698615 189.312 
L 227.863273 189.164876 
L 230.749091 187.901553 
L 233.634909 186.730132 
L 233.797539 186.624 
L 236.520727 185.502789 
L 239.406545 185.115288 
L 242.292364 184.440363 
L 243.293689 183.936 
L 242.292364 183.32614 
L 239.406545 182.649826 
L 236.520727 181.314809 
L 236.432126 181.248 
L 233.978154 178.56 
L 235.702558 175.872 
L 233.634909 174.528 
L 230.749091 174.528 
L 228.829352 175.872 
L 228.77792 178.56 
L 230.226756 181.248 
L 230.749091 181.768693 
L 232.506592 183.936 
L 230.749091 185.114691 
L 227.863273 185.15442 
L 226.166815 183.936 
L 226.200959 181.248 
L 224.977455 179.673418 
L 223.350477 181.248 
L 222.091636 183.409158 
L 221.119899 183.936 
L 222.091636 184.319567 
L 224.977455 185.857284 
L 225.520815 186.624 
L 224.977455 187.148459 
L 222.091636 188.113489 
L 220.80368 189.312 
L 219.205818 190.594762 
L 217.749568 192 
L 216.32 193.448723 
L 215.086652 194.688 
L 214.028547 197.376 
L 213.434182 197.869155 
L 212.649446 197.376 
L 210.98793 194.688 
L 210.548364 193.758072 
L 210.014345 194.688 
L 207.662545 195.848337 
L 206.003792 197.376 
L 207.662545 198.506771 
L 210.548364 198.468915 
L 211.897541 200.064 
L 211.849268 202.752 
L 210.548364 204.380175 
L 208.240804 202.752 
L 207.662545 202.261416 
L 204.776727 200.91364 
L 201.890909 200.96358 
L 200.448 202.752 
L 200.448 205.44 
L 201.890909 207.365769 
L 204.776727 205.75906 
L 207.662545 208.044983 
L 207.736489 208.128 
L 209.187155 210.816 
L 209.905672 213.504 
L 210.548364 214.433051 
z
M 190.347636 204.380175 
L 192.655196 202.752 
L 193.233455 202.261416 
L 196.119273 200.91364 
L 199.005091 200.96358 
L 200.448 200.064 
L 200.448 197.376 
L 199.005091 195.979779 
L 196.119273 195.557155 
L 195.202752 194.688 
L 193.233455 193.247841 
L 191.303715 192 
L 191.174202 189.312 
L 190.347636 187.718982 
L 187.461818 187.783626 
L 186.154943 186.624 
L 186.231329 183.936 
L 184.576 183.107585 
L 181.690182 182.993553 
L 180.331763 181.248 
L 178.804364 179.381385 
L 177.866459 178.56 
L 177.416871 175.872 
L 175.918545 174.528 
L 173.032727 174.528 
L 172.066648 175.872 
L 172.11808 178.56 
L 170.669244 181.248 
L 170.146909 181.768693 
L 168.389408 183.936 
L 170.146909 185.114691 
L 173.032727 185.15442 
L 174.729185 183.936 
L 174.695041 181.248 
L 175.918545 179.673418 
L 177.545523 181.248 
L 178.804364 183.409158 
L 179.776101 183.936 
L 178.804364 184.319567 
L 175.918545 185.857284 
L 175.375185 186.624 
L 175.918545 187.148459 
L 178.804364 188.113489 
L 180.09232 189.312 
L 181.690182 190.594762 
L 183.146432 192 
L 184.576 193.448723 
L 185.809348 194.688 
L 186.867453 197.376 
L 187.461818 197.869155 
L 188.246554 197.376 
L 189.90807 194.688 
L 190.347636 193.758072 
L 190.881655 194.688 
L 193.233455 195.848337 
L 194.892208 197.376 
L 193.233455 198.506771 
L 190.347636 198.468915 
L 188.998459 200.064 
L 189.046732 202.752 
L 190.347636 204.380175 
z
M 201.890909 195.979779 
L 204.776727 195.557155 
L 205.693248 194.688 
L 207.662545 193.247841 
L 209.592285 192 
L 209.721798 189.312 
L 210.548364 187.718982 
L 213.434182 187.783626 
L 214.741057 186.624 
L 214.664671 183.936 
L 216.32 183.107585 
L 219.205818 182.993553 
L 220.564237 181.248 
L 222.091636 179.381385 
L 223.029541 178.56 
L 223.479129 175.872 
L 222.091636 174.528 
L 219.205818 174.528 
L 219.145001 173.184 
L 219.152906 170.496 
L 216.32 169.918783 
L 214.741267 170.496 
L 214.675777 173.184 
L 216.32 174.528 
L 219.145001 175.872 
L 219.152906 178.56 
L 216.32 179.137217 
L 214.741267 178.56 
L 214.675777 175.872 
L 213.434182 174.528 
L 210.548364 174.528 
L 208.924488 175.872 
L 207.662545 176.688688 
L 204.869669 175.872 
L 204.776727 174.528 
L 201.890909 174.528 
L 200.448 175.872 
L 200.448 178.56 
L 201.890909 178.641996 
L 202.896683 181.248 
L 201.890909 182.41225 
L 200.448 183.936 
L 200.448 186.624 
L 201.890909 187.778061 
L 204.776727 187.822899 
L 205.442439 189.312 
L 204.776727 191.949884 
L 201.890909 191.943233 
L 200.448 189.312 
L 199.005091 187.778061 
L 196.119273 187.822899 
L 195.453561 189.312 
L 196.119273 191.949884 
L 199.005091 191.943233 
L 200.448 192 
L 200.448 194.688 
L 201.890909 195.979779 
z
M 187.461818 193.146884 
L 186.133433 192 
L 187.461818 190.45152 
L 189.443175 192 
L 187.461818 193.146884 
z
M 213.434182 193.146884 
L 214.762567 192 
L 213.434182 190.45152 
L 211.452825 192 
L 213.434182 193.146884 
z
M 184.576 190.104913 
L 183.680464 189.312 
L 184.576 188.180291 
L 185.730257 189.312 
L 184.576 190.104913 
z
M 216.32 190.104913 
L 217.215536 189.312 
L 216.32 188.180291 
L 215.165743 189.312 
L 216.32 190.104913 
z
M 181.690182 187.806681 
L 180.421703 186.624 
L 181.690182 184.728411 
L 183.304569 186.624 
L 181.690182 187.806681 
z
M 219.205818 187.806681 
L 220.474297 186.624 
L 219.205818 184.728411 
L 217.591431 186.624 
L 219.205818 187.806681 
z
M 190.347636 185.659591 
L 192.194051 183.936 
L 193.233455 181.61968 
L 193.681109 181.248 
L 193.233455 180.752665 
L 192.782802 181.248 
L 190.347636 182.129675 
L 188.426533 183.936 
L 190.347636 185.659591 
z
M 210.548364 185.659591 
L 208.701949 183.936 
L 207.662545 181.61968 
L 207.214891 181.248 
L 207.662545 180.752665 
L 208.113198 181.248 
L 210.548364 182.129675 
L 212.469467 183.936 
L 210.548364 185.659591 
z
M 199.005091 182.41225 
L 200.448 181.248 
L 199.005091 178.641996 
L 197.999317 181.248 
L 199.005091 182.41225 
z
M 248.064 182.408749 
L 250.949818 182.565328 
L 253.835636 182.546921 
L 256.721455 182.38555 
L 259.607273 181.798234 
L 260.448575 181.248 
L 260.461428 178.56 
L 260.662173 175.872 
L 259.607273 174.528 
L 256.721455 174.528 
L 256.691355 175.872 
L 253.835636 176.698111 
L 252.469463 175.872 
L 250.949818 174.528 
L 249.016296 175.872 
L 250.375445 178.56 
L 248.064 180.056237 
L 245.46862 181.248 
L 248.064 182.408749 
z
M 184.576 179.137217 
L 186.154733 178.56 
L 186.220223 175.872 
L 184.576 174.528 
L 181.750999 175.872 
L 181.743094 178.56 
L 184.576 179.137217 
z
M 239.406545 179.785346 
L 242.292364 179.581554 
L 243.339278 178.56 
L 244.288311 175.872 
L 242.292364 174.528 
L 239.406545 174.528 
L 237.244609 175.872 
L 237.889957 178.56 
L 239.406545 179.785346 
z
M 112.430545 176.963278 
L 115.316364 177.19664 
L 118.202182 176.2948 
L 118.689962 175.872 
L 118.202182 174.528 
L 115.316364 174.528 
L 112.430545 174.528 
L 110.482501 175.872 
L 112.430545 176.963278 
z
M 147.060364 176.698111 
L 148.426537 175.872 
L 147.060364 174.528 
L 144.204645 175.872 
L 147.060364 176.698111 
z
M 193.233455 176.688688 
L 196.026331 175.872 
L 193.233455 174.528 
L 191.971512 175.872 
L 193.233455 176.688688 
z
M 265.378909 176.692209 
L 268.264727 177.048752 
L 269.665933 175.872 
L 268.264727 174.528 
L 265.378909 174.528 
L 264.484573 175.872 
L 265.378909 176.692209 
z
M 314.437818 176.559155 
L 317.323636 177.083247 
L 320.209455 177.213881 
L 323.095273 177.136303 
L 325.981091 176.820259 
L 328.866909 175.971526 
L 329.065087 175.872 
L 328.866909 174.528 
L 325.981091 174.528 
L 323.095273 174.528 
L 320.209455 174.528 
L 317.323636 174.528 
L 314.437818 174.528 
L 312.967254 175.872 
L 314.437818 176.559155 
z
M 72.029091 174.528 
L 74.914909 174.528 
L 77.800727 174.528 
L 80.686545 174.528 
L 83.572364 174.528 
L 86.458182 174.528 
L 87.928746 173.184 
L 86.458182 172.496845 
L 83.572364 171.972753 
L 80.686545 171.842119 
L 77.800727 171.919697 
L 74.914909 172.235741 
L 72.029091 173.084474 
L 71.830913 173.184 
L 72.029091 174.528 
z
M 132.631273 174.528 
L 135.517091 174.528 
L 136.411427 173.184 
L 135.517091 172.363791 
L 132.631273 172.007248 
L 131.230067 173.184 
L 132.631273 174.528 
z
M 141.288727 174.528 
L 144.174545 174.528 
L 144.204645 173.184 
L 147.060364 172.357889 
L 148.426537 173.184 
L 149.946182 174.528 
L 151.879704 173.184 
L 150.520555 170.496 
L 152.832 168.999763 
L 155.42738 167.808 
L 152.832 166.647251 
L 149.946182 166.490672 
L 147.060364 166.509079 
L 144.174545 166.67045 
L 141.288727 167.257766 
L 140.447425 167.808 
L 140.434572 170.496 
L 140.233827 173.184 
L 141.288727 174.528 
z
M 158.603636 174.528 
L 161.489455 174.528 
L 163.651391 173.184 
L 163.006043 170.496 
L 161.489455 169.270654 
L 158.603636 169.474446 
L 157.556722 170.496 
L 156.607689 173.184 
L 158.603636 174.528 
z
M 167.261091 174.528 
L 170.146909 174.528 
L 172.066648 173.184 
L 172.11808 170.496 
L 170.669244 167.808 
L 170.146909 167.287307 
L 168.389408 165.12 
L 170.146909 163.941309 
L 173.032727 163.90158 
L 174.729185 165.12 
L 174.695041 167.808 
L 175.918545 169.382582 
L 177.545523 167.808 
L 178.804364 165.646842 
L 179.776101 165.12 
L 178.804364 164.736433 
L 175.918545 163.198716 
L 175.375185 162.432 
L 175.918545 161.907541 
L 178.804364 160.942511 
L 180.09232 159.744 
L 181.690182 158.461238 
L 183.146432 157.056 
L 184.576 155.607277 
L 185.809348 154.368 
L 186.867453 151.68 
L 187.461818 151.186845 
L 188.246554 151.68 
L 189.90807 154.368 
L 190.347636 155.297928 
L 190.881655 154.368 
L 193.233455 153.207663 
L 194.892208 151.68 
L 193.233455 150.549229 
L 190.347636 150.587085 
L 188.998459 148.992 
L 189.046732 146.304 
L 190.347636 144.675825 
L 192.655196 146.304 
L 193.233455 146.794584 
L 196.119273 148.14236 
L 199.005091 148.09242 
L 200.448 148.992 
L 200.448 151.68 
L 199.005091 153.076221 
L 196.119273 153.498845 
L 195.202752 154.368 
L 193.233455 155.808159 
L 191.303715 157.056 
L 191.174202 159.744 
L 190.347636 161.337018 
L 187.461818 161.272374 
L 186.154943 162.432 
L 186.231329 165.12 
L 184.576 165.948415 
L 181.690182 166.062447 
L 180.331763 167.808 
L 178.804364 169.674615 
L 177.866459 170.496 
L 177.416871 173.184 
L 178.804364 174.528 
L 181.690182 174.528 
L 181.750999 173.184 
L 181.743094 170.496 
L 184.576 169.918783 
L 186.154733 170.496 
L 186.220223 173.184 
L 187.461818 174.528 
L 190.347636 174.528 
L 191.971512 173.184 
L 193.233455 172.367312 
L 196.026331 173.184 
L 196.119273 174.528 
L 199.005091 174.528 
L 200.448 173.184 
L 200.448 170.496 
L 201.890909 170.414004 
L 202.896683 167.808 
L 201.890909 166.64375 
L 200.448 165.12 
L 200.448 162.432 
L 201.890909 161.277939 
L 204.776727 161.233101 
L 205.442439 159.744 
L 204.776727 157.106116 
L 201.890909 157.112767 
L 200.448 159.744 
L 199.005091 161.277939 
L 196.119273 161.233101 
L 195.453561 159.744 
L 196.119273 157.106116 
L 199.005091 157.112767 
L 200.448 157.056 
L 200.448 154.368 
L 201.890909 153.076221 
L 204.776727 153.498845 
L 205.693248 154.368 
L 207.662545 155.808159 
L 209.592285 157.056 
L 209.721798 159.744 
L 210.548364 161.337018 
L 213.434182 161.272374 
L 214.741057 162.432 
L 214.664671 165.12 
L 216.32 165.948415 
L 219.205818 166.062447 
L 220.564237 167.808 
L 222.091636 169.674615 
L 223.029541 170.496 
L 223.479129 173.184 
L 224.977455 174.528 
L 227.863273 174.528 
L 228.829352 173.184 
L 228.77792 170.496 
L 230.226756 167.808 
L 230.749091 167.287307 
L 232.506592 165.12 
L 230.749091 163.941309 
L 227.863273 163.90158 
L 226.166815 165.12 
L 226.200959 167.808 
L 224.977455 169.382582 
L 223.350477 167.808 
L 222.091636 165.646842 
L 221.119899 165.12 
L 222.091636 164.736433 
L 224.977455 163.198716 
L 225.520815 162.432 
L 224.977455 161.907541 
L 222.091636 160.942511 
L 220.80368 159.744 
L 219.205818 158.461238 
L 217.749568 157.056 
L 216.32 155.607277 
L 215.086652 154.368 
L 214.028547 151.68 
L 213.434182 151.186845 
L 212.649446 151.68 
L 210.98793 154.368 
L 210.548364 155.297928 
L 210.014345 154.368 
L 207.662545 153.207663 
L 206.003792 151.68 
L 207.662545 150.549229 
L 210.548364 150.587085 
L 211.897541 148.992 
L 211.849268 146.304 
L 210.548364 144.675825 
L 208.240804 146.304 
L 207.662545 146.794584 
L 204.776727 148.14236 
L 201.890909 148.09242 
L 200.448 146.304 
L 200.448 143.616 
L 201.890909 141.690231 
L 204.776727 143.29694 
L 207.662545 141.011017 
L 207.736489 140.928 
L 209.187155 138.24 
L 209.905672 135.552 
L 210.548364 134.622949 
L 211.103099 135.552 
L 211.838392 138.24 
L 212.257115 140.928 
L 213.434182 143.466832 
L 213.553488 143.616 
L 214.844536 146.304 
L 216.170835 148.992 
L 216.32 149.151124 
L 218.062982 151.68 
L 219.205818 153.069468 
L 220.49784 154.368 
L 222.091636 155.893884 
L 223.523759 157.056 
L 224.977455 158.162704 
L 227.698615 159.744 
L 227.863273 159.891124 
L 230.749091 161.154447 
L 233.634909 162.325868 
L 233.797539 162.432 
L 236.520727 163.553211 
L 239.406545 163.940712 
L 242.292364 164.615637 
L 243.293689 165.12 
L 242.292364 165.72986 
L 239.406545 166.406174 
L 236.520727 167.741191 
L 236.432126 167.808 
L 233.978154 170.496 
L 235.702558 173.184 
L 236.520727 174.528 
L 237.244609 173.184 
L 237.889957 170.496 
L 239.406545 169.270654 
L 242.292364 169.474446 
L 243.339278 170.496 
L 244.288311 173.184 
L 245.178182 174.528 
L 248.064 174.528 
L 249.016296 173.184 
L 250.375445 170.496 
L 248.064 168.999763 
L 245.46862 167.808 
L 248.064 166.647251 
L 250.949818 166.490672 
L 253.835636 166.509079 
L 256.721455 166.67045 
L 259.607273 167.257766 
L 260.448575 167.808 
L 260.461428 170.496 
L 260.662173 173.184 
L 262.493091 174.528 
L 264.484573 173.184 
L 265.378909 172.363791 
L 268.264727 172.007248 
L 269.665933 173.184 
L 271.150545 174.528 
L 274.036364 174.528 
L 275.4417 173.184 
L 275.4455 170.496 
L 276.922182 169.940508 
L 279.808 169.268476 
L 282.693818 168.849393 
L 285.579636 168.515713 
L 288.465455 168.158984 
L 290.457348 167.808 
L 288.465455 167.472016 
L 285.579636 167.110807 
L 282.693818 166.837284 
L 279.808 166.617282 
L 276.922182 166.429409 
L 274.036364 166.256354 
L 271.150545 166.076521 
L 268.264727 165.84243 
L 265.378909 165.350676 
L 264.73061 165.12 
L 262.493091 164.606964 
L 259.607273 164.099012 
L 256.721455 163.666015 
L 253.835636 163.222527 
L 250.949818 162.591994 
L 250.438809 162.432 
L 248.064 161.686987 
L 245.178182 160.936184 
L 242.292364 160.106625 
L 241.334669 159.744 
L 239.406545 158.912566 
L 236.520727 157.773105 
L 235.051501 157.056 
L 233.634909 156.249506 
L 230.749091 154.582513 
L 230.440601 154.368 
L 227.863273 152.492413 
L 226.917519 151.68 
L 224.977455 149.901968 
L 224.137369 148.992 
L 222.091636 146.601943 
L 221.872476 146.304 
L 220.102227 143.616 
L 219.205818 142.314027 
L 218.461254 140.928 
L 217.238184 138.24 
L 216.32 136.452972 
L 215.942105 135.552 
L 215.062059 132.864 
L 214.25028 130.176 
L 213.434182 127.966559 
L 213.265858 127.488 
L 212.597104 124.8 
L 212.122035 122.112 
L 211.655497 119.424 
L 211.105782 116.736 
L 210.548364 114.652802 
L 210.30308 114.048 
L 209.778237 111.36 
L 209.52734 108.672 
L 209.334189 105.984 
L 209.148112 103.296 
L 208.945968 100.608 
L 208.709129 97.92 
L 208.414497 95.232 
L 208.025097 92.544 
L 207.662545 90.688868 
L 207.287016 92.544 
L 206.905095 95.232 
L 206.547588 97.92 
L 206.09804 100.608 
L 205.375556 103.296 
L 204.776727 104.671615 
L 201.890909 104.675015 
L 200.448 105.984 
L 200.448 108.672 
L 199.005091 110.054867 
L 197.739376 111.36 
L 198.122301 114.048 
L 199.005091 114.881056 
L 200.448 114.048 
L 200.448 111.36 
L 201.890909 110.054867 
L 203.156624 111.36 
L 202.773699 114.048 
L 201.890909 114.881056 
L 200.448 116.736 
L 199.005091 118.441442 
L 196.119273 118.628644 
L 193.233455 118.641039 
L 192.636806 119.424 
L 192.00245 122.112 
L 191.827946 124.8 
L 191.806966 127.488 
L 191.973885 130.176 
L 193.233455 132.594121 
L 194.5036 130.176 
L 196.119273 128.023358 
L 199.005091 129.289039 
L 200.448 130.176 
L 200.448 132.864 
L 201.890909 133.69295 
L 204.776727 134.577599 
L 205.884905 135.552 
L 206.106042 138.24 
L 204.776727 139.653862 
L 201.890909 140.253845 
L 200.448 138.24 
L 200.448 135.552 
L 199.005091 133.69295 
L 196.119273 134.577599 
L 195.011095 135.552 
L 194.789958 138.24 
L 196.119273 139.653862 
L 199.005091 140.253845 
L 200.448 140.928 
L 199.005091 141.690231 
L 196.119273 143.29694 
L 193.233455 141.011017 
L 193.159511 140.928 
L 191.708845 138.24 
L 190.990328 135.552 
L 190.347636 134.622949 
L 189.792901 135.552 
L 189.057608 138.24 
L 188.638885 140.928 
L 187.461818 143.466832 
L 187.342512 143.616 
L 186.051464 146.304 
L 184.725165 148.992 
L 184.576 149.151124 
L 182.833018 151.68 
L 181.690182 153.069468 
L 180.39816 154.368 
L 178.804364 155.893884 
L 177.372241 157.056 
L 175.918545 158.162704 
L 173.197385 159.744 
L 173.032727 159.891124 
L 170.146909 161.154447 
L 167.261091 162.325868 
L 167.098461 162.432 
L 164.375273 163.553211 
L 161.489455 163.940712 
L 158.603636 164.615637 
L 157.602311 165.12 
L 158.603636 165.72986 
L 161.489455 166.406174 
L 164.375273 167.741191 
L 164.463874 167.808 
L 166.917846 170.496 
L 165.193442 173.184 
L 167.261091 174.528 
z
M 207.662545 174.528 
L 208.924488 173.184 
L 207.662545 172.367312 
L 204.869669 173.184 
L 207.662545 174.528 
z
M 253.835636 174.528 
L 256.691355 173.184 
L 253.835636 172.357889 
L 252.469463 173.184 
L 253.835636 174.528 
z
M 193.233455 168.303335 
L 192.782802 167.808 
L 190.347636 166.926325 
L 188.426533 165.12 
L 190.347636 163.396409 
L 192.194051 165.12 
L 193.233455 167.43632 
L 193.681109 167.808 
L 193.233455 168.303335 
z
M 199.005091 170.414004 
L 197.999317 167.808 
L 199.005091 166.64375 
L 200.448 167.808 
L 199.005091 170.414004 
z
M 207.662545 168.303335 
L 208.113198 167.808 
L 210.548364 166.926325 
L 212.469467 165.12 
L 210.548364 163.396409 
L 208.701949 165.12 
L 207.662545 167.43632 
L 207.214891 167.808 
L 207.662545 168.303335 
z
M 181.690182 164.327589 
L 183.304569 162.432 
L 181.690182 161.249319 
L 180.421703 162.432 
L 181.690182 164.327589 
z
M 219.205818 164.327589 
L 217.591431 162.432 
L 219.205818 161.249319 
L 220.474297 162.432 
L 219.205818 164.327589 
z
M 184.576 160.875709 
L 185.730257 159.744 
L 184.576 158.951087 
L 183.680464 159.744 
L 184.576 160.875709 
z
M 216.32 160.875709 
L 215.165743 159.744 
L 216.32 158.951087 
L 217.215536 159.744 
L 216.32 160.875709 
z
M 187.461818 158.60448 
L 189.443175 157.056 
L 187.461818 155.909116 
L 186.133433 157.056 
L 187.461818 158.60448 
z
M 213.434182 158.60448 
L 211.452825 157.056 
L 213.434182 155.909116 
L 214.762567 157.056 
L 213.434182 158.60448 
z
M 207.662545 132.594121 
L 206.3924 130.176 
L 204.776727 128.023358 
L 201.890909 129.289039 
L 200.448 127.488 
L 201.890909 126.072577 
L 202.781105 124.8 
L 201.890909 122.140038 
L 200.448 124.8 
L 199.005091 126.072577 
L 198.114895 124.8 
L 199.005091 122.140038 
L 200.448 122.112 
L 200.448 119.424 
L 201.890909 118.441442 
L 204.776727 118.628644 
L 207.662545 118.641039 
L 208.259194 119.424 
L 208.89355 122.112 
L 209.068054 124.8 
L 209.089034 127.488 
L 208.922115 130.176 
L 207.662545 132.594121 
z
" clip-path="url(#p083e5b5778)" style="fill: none; stroke: #21918c; stroke-width: 1.5"/>
    <path d="M 190.284174 307.584 
L 189.911166 304.896 
L 189.5555 302.208 
L 189.214433 299.52 
L 188.885296 296.832 
L 188.565415 294.144 
L 188.252028 291.456 
L 187.942168 288.768 
L 187.632536 286.08 
L 187.461818 284.603195 
L 187.177431 283.392 
L 186.578479 280.704 
L 186.013581 278.016 
L 185.475539 275.328 
L 184.957386 272.64 
L 184.576 270.612809 
L 184.334697 269.952 
L 183.410687 267.264 
L 182.558671 264.576 
L 181.761955 261.888 
L 181.690182 261.63755 
L 180.427778 259.2 
L 179.182495 256.512 
L 178.804364 255.638056 
L 177.435269 253.824 
L 175.918545 251.545979 
L 175.450307 251.136 
L 173.032727 248.746385 
L 172.529263 248.448 
L 170.146909 246.865191 
L 167.49872 245.76 
L 167.261091 245.649633 
L 164.375273 244.948093 
L 161.489455 244.635768 
L 158.603636 244.632337 
L 155.717818 244.877537 
L 152.832 245.325517 
L 150.735769 245.76 
L 149.946182 245.943016 
L 147.060364 246.705093 
L 144.174545 247.58608 
L 141.619273 248.448 
L 141.288727 248.571026 
L 138.402909 249.645398 
L 135.517091 250.800524 
L 134.673618 251.136 
L 132.631273 252.022293 
L 129.745455 253.308624 
L 128.579825 253.824 
L 126.859636 254.647401 
L 123.973818 256.039294 
L 122.974126 256.512 
L 121.088 257.470776 
L 118.202182 258.952508 
L 117.700635 259.2 
L 115.316364 260.456729 
L 112.652333 261.888 
L 112.430545 262.014733 
L 109.544727 263.580462 
L 107.722462 264.576 
L 106.658909 265.190571 
L 103.773091 266.825951 
L 102.977183 267.264 
L 100.887273 268.474242 
L 98.356552 269.952 
L 98.001455 270.169481 
L 95.115636 271.858223 
L 93.772472 272.64 
L 92.229818 273.577244 
L 89.363471 275.328 
L 89.344 275.340383 
L 86.458182 277.072398 
L 84.898204 278.016 
L 83.572364 278.84722 
L 80.686545 280.659967 
L 80.612753 280.704 
L 77.800727 282.435067 
L 76.260493 283.392 
L 74.914909 284.252895 
L 72.076035 286.08 
L 72.029091 286.111063 
L 69.143273 287.921844 
L 67.806379 288.768 
L 66.257455 289.771449 
L 63.678116 291.456 
L 63.371636 291.660629 
L 60.485818 293.515575 
L 59.50536 294.144 
L 57.6 295.386728 
M 199.880573 307.584 
L 199.95604 304.896 
L 199.934974 302.208 
L 199.787226 299.52 
L 199.192986 296.832 
L 199.005091 296.506007 
L 197.636629 294.144 
L 197.165317 291.456 
L 196.975019 288.768 
L 196.906534 286.08 
L 196.929628 283.392 
L 197.087547 280.704 
L 197.764616 278.016 
L 199.005091 276.842057 
L 199.494012 275.328 
L 199.589444 272.64 
L 199.005091 269.979207 
L 196.832547 272.64 
L 196.119273 274.151084 
L 195.935938 275.328 
L 195.65668 278.016 
L 195.488042 280.704 
L 195.387361 283.392 
L 195.333456 286.08 
L 195.315241 288.768 
L 195.327137 291.456 
L 195.367114 294.144 
L 195.435961 296.832 
L 195.537333 299.52 
L 195.678557 302.208 
L 195.872578 304.896 
L 196.119273 307.379176 
L 196.166846 307.584 
M 208.803506 307.584 
L 208.918028 304.896 
L 209.030264 302.208 
L 209.140852 299.52 
L 209.25058 296.832 
L 209.360486 294.144 
L 209.472012 291.456 
L 209.5873 288.768 
L 209.709796 286.08 
L 209.845575 283.392 
L 210.006759 280.704 
L 210.222115 278.016 
L 210.548364 275.498653 
L 210.561609 275.328 
L 210.746708 272.64 
L 210.914906 269.952 
L 211.064303 267.264 
L 211.191356 264.576 
L 211.289529 261.888 
L 211.346332 259.2 
L 211.335911 256.512 
L 211.197034 253.824 
L 210.746717 251.136 
L 210.548364 250.574506 
L 210.503512 251.136 
L 210.321 253.824 
L 210.149839 256.512 
L 209.972629 259.2 
L 209.763472 261.888 
L 209.460016 264.576 
L 208.798861 267.264 
L 207.662545 268.74523 
L 207.441087 269.952 
L 207.189406 272.64 
L 207.066867 275.328 
L 206.994651 278.016 
L 206.945392 280.704 
L 206.907283 283.392 
L 206.874433 286.08 
L 206.843524 288.768 
L 206.812432 291.456 
L 206.779562 294.144 
L 206.743469 296.832 
L 206.702559 299.52 
L 206.654773 302.208 
L 206.597095 304.896 
L 206.524653 307.584 
M 57.6 264.18058 
L 60.130274 261.888 
L 60.485818 261.589112 
L 63.103218 259.2 
L 63.371636 258.972519 
L 66.042894 256.512 
L 66.257455 256.328354 
L 68.946428 253.824 
L 69.143273 253.653482 
L 71.810487 251.136 
L 72.029091 250.94386 
L 74.631217 248.448 
L 74.914909 248.19423 
L 77.404179 245.76 
L 77.800727 245.397653 
L 80.124272 243.072 
L 80.686545 242.544792 
L 82.785639 240.384 
L 83.572364 239.622772 
L 85.381563 237.696 
L 86.458182 236.613303 
L 87.904344 235.008 
L 89.344 233.489421 
L 90.345158 232.32 
L 92.229818 230.209533 
L 92.693884 229.632 
L 94.941264 226.944 
L 95.115636 226.745535 
L 97.075406 224.256 
L 98.001455 223.085066 
L 99.071155 221.568 
L 100.887273 218.915121 
L 100.908592 218.88 
L 102.560916 216.192 
L 103.773091 213.962197 
L 103.99207 213.504 
L 105.151205 210.816 
L 105.980681 208.128 
L 106.392898 205.44 
L 106.26514 202.752 
L 105.425415 200.064 
L 103.773091 197.628311 
L 103.624185 197.376 
L 100.887273 195.105138 
L 100.453743 194.688 
L 98.001455 193.518981 
L 95.270552 192 
L 95.115636 191.956901 
L 92.229818 191.114066 
L 89.344 190.179116 
L 86.939581 189.312 
L 86.458182 189.229547 
L 83.572364 188.720851 
L 80.686545 188.183452 
L 77.800727 187.610065 
L 74.914909 186.992576 
L 73.301406 186.624 
L 72.029091 186.494816 
L 69.143273 186.199061 
L 66.257455 185.898179 
L 63.371636 185.589499 
L 60.485818 185.270429 
L 57.6 184.938378 
M 343.296 180.648723 
L 340.410182 180.66472 
L 337.524364 180.682816 
L 334.638545 180.702881 
L 331.752727 180.725131 
L 328.866909 180.750107 
L 325.981091 180.77875 
L 323.095273 180.812572 
L 320.209455 180.853991 
L 317.323636 180.906979 
L 314.437818 180.978353 
L 311.552 181.080606 
L 308.666182 181.238823 
L 308.541822 181.248 
L 308.666182 181.293247 
L 311.552 181.891265 
L 314.437818 182.130525 
L 317.323636 182.234107 
L 320.209455 182.27139 
L 323.095273 182.270815 
L 325.981091 182.246097 
L 328.866909 182.204594 
L 331.752727 182.150551 
L 334.638545 182.086547 
L 337.524364 182.014198 
L 340.410182 181.934538 
L 343.296 181.848224 
M 57.6 177.552905 
L 60.485818 178.148451 
L 62.86932 178.56 
L 63.371636 178.594894 
L 66.257455 178.750742 
L 69.143273 178.860896 
L 72.029091 178.933549 
L 74.914909 178.97264 
L 77.800727 178.978735 
L 80.686545 178.949006 
L 83.572364 178.876264 
L 86.458182 178.746457 
L 89.017612 178.56 
L 86.458182 178.273551 
L 83.572364 178.209267 
L 80.686545 178.169654 
L 77.800727 178.113663 
L 74.914909 178.014367 
L 72.029091 177.80567 
L 69.143273 177.081559 
L 67.99164 175.872 
L 66.257455 175.489583 
L 63.371636 175.274579 
L 60.485818 175.243925 
L 57.6 175.353752 
M 343.296 171.503095 
L 340.410182 170.907549 
L 338.02668 170.496 
L 337.524364 170.461106 
L 334.638545 170.305258 
L 331.752727 170.195104 
L 328.866909 170.122451 
L 325.981091 170.08336 
L 323.095273 170.077265 
L 320.209455 170.106994 
L 317.323636 170.179736 
L 314.437818 170.309543 
L 311.878388 170.496 
L 314.437818 170.782449 
L 317.323636 170.846733 
L 320.209455 170.886346 
L 323.095273 170.942337 
L 325.981091 171.041633 
L 328.866909 171.25033 
L 331.752727 171.974441 
L 332.90436 173.184 
L 334.638545 173.566417 
L 337.524364 173.781421 
L 340.410182 173.812075 
L 343.296 173.702248 
M 57.6 168.407277 
L 60.485818 168.39128 
L 63.371636 168.373184 
L 66.257455 168.353119 
L 69.143273 168.330869 
L 72.029091 168.305893 
L 74.914909 168.27725 
L 77.800727 168.243428 
L 80.686545 168.202009 
L 83.572364 168.149021 
L 86.458182 168.077647 
L 89.344 167.975394 
L 92.229818 167.817177 
L 92.354178 167.808 
L 92.229818 167.762753 
L 89.344 167.164735 
L 86.458182 166.925475 
L 83.572364 166.821893 
L 80.686545 166.78461 
L 77.800727 166.785185 
L 74.914909 166.809903 
L 72.029091 166.851406 
L 69.143273 166.905449 
L 66.257455 166.969453 
L 63.371636 167.041802 
L 60.485818 167.121462 
L 57.6 167.207776 
M 343.296 84.87542 
L 340.765726 87.168 
L 340.410182 87.466888 
L 337.792782 89.856 
L 337.524364 90.083481 
L 334.853106 92.544 
L 334.638545 92.727646 
L 331.949572 95.232 
L 331.752727 95.402518 
L 329.085513 97.92 
L 328.866909 98.11214 
L 326.264783 100.608 
L 325.981091 100.86177 
L 323.491821 103.296 
L 323.095273 103.658347 
L 320.771728 105.984 
L 320.209455 106.511208 
L 318.110361 108.672 
L 317.323636 109.433228 
L 315.514437 111.36 
L 314.437818 112.442697 
L 312.991656 114.048 
L 311.552 115.566579 
L 310.550842 116.736 
L 308.666182 118.846467 
L 308.202116 119.424 
L 305.954736 122.112 
L 305.780364 122.310465 
L 303.820594 124.8 
L 302.894545 125.970934 
L 301.824845 127.488 
L 300.008727 130.140879 
L 299.987408 130.176 
L 298.335084 132.864 
L 297.122909 135.093803 
L 296.90393 135.552 
L 295.744795 138.24 
L 294.915319 140.928 
L 294.503102 143.616 
L 294.63086 146.304 
L 295.470585 148.992 
L 297.122909 151.427689 
L 297.271815 151.68 
L 300.008727 153.950862 
L 300.442257 154.368 
L 302.894545 155.537019 
L 305.625448 157.056 
L 305.780364 157.099099 
L 308.666182 157.941934 
L 311.552 158.876884 
L 313.956419 159.744 
L 314.437818 159.826453 
L 317.323636 160.335149 
L 320.209455 160.872548 
L 323.095273 161.445935 
L 325.981091 162.063424 
L 327.594594 162.432 
L 328.866909 162.561184 
L 331.752727 162.856939 
L 334.638545 163.157821 
L 337.524364 163.466501 
L 340.410182 163.785571 
L 343.296 164.117622 
M 192.092494 41.472 
L 191.977972 44.16 
L 191.865736 46.848 
L 191.755148 49.536 
L 191.64542 52.224 
L 191.535514 54.912 
L 191.423988 57.6 
L 191.3087 60.288 
L 191.186204 62.976 
L 191.050425 65.664 
L 190.889241 68.352 
L 190.673885 71.04 
L 190.347636 73.557347 
L 190.334391 73.728 
L 190.149292 76.416 
L 189.981094 79.104 
L 189.831697 81.792 
L 189.704644 84.48 
L 189.606471 87.168 
L 189.549668 89.856 
L 189.560089 92.544 
L 189.698966 95.232 
L 190.149283 97.92 
L 190.347636 98.481494 
L 190.392488 97.92 
L 190.575 95.232 
L 190.746161 92.544 
L 190.923371 89.856 
L 191.132528 87.168 
L 191.435984 84.48 
L 192.097139 81.792 
L 193.233455 80.31077 
L 193.454913 79.104 
L 193.706594 76.416 
L 193.829133 73.728 
L 193.901349 71.04 
L 193.950608 68.352 
L 193.988717 65.664 
L 194.021567 62.976 
L 194.052476 60.288 
L 194.083568 57.6 
L 194.116438 54.912 
L 194.152531 52.224 
L 194.193441 49.536 
L 194.241227 46.848 
L 194.298905 44.16 
L 194.371347 41.472 
M 201.015427 41.472 
L 200.93996 44.16 
L 200.961026 46.848 
L 201.108774 49.536 
L 201.703014 52.224 
L 201.890909 52.549993 
L 203.259371 54.912 
L 203.730683 57.6 
L 203.920981 60.288 
L 203.989466 62.976 
L 203.966372 65.664 
L 203.808453 68.352 
L 203.131384 71.04 
L 201.890909 72.213943 
L 201.401988 73.728 
L 201.306556 76.416 
L 201.890909 79.076793 
L 204.063453 76.416 
L 204.776727 74.904916 
L 204.960062 73.728 
L 205.23932 71.04 
L 205.407958 68.352 
L 205.508639 65.664 
L 205.562544 62.976 
L 205.580759 60.288 
L 205.568863 57.6 
L 205.528886 54.912 
L 205.460039 52.224 
L 205.358667 49.536 
L 205.217443 46.848 
L 205.023422 44.16 
L 204.776727 41.676824 
L 204.729154 41.472 
M 210.611826 41.472 
L 210.984834 44.16 
L 211.3405 46.848 
L 211.681567 49.536 
L 212.010704 52.224 
L 212.330585 54.912 
L 212.643972 57.6 
L 212.953832 60.288 
L 213.263464 62.976 
L 213.434182 64.452805 
L 213.718569 65.664 
L 214.317521 68.352 
L 214.882419 71.04 
L 215.420461 73.728 
L 215.938614 76.416 
L 216.32 78.443191 
L 216.561303 79.104 
L 217.485313 81.792 
L 218.337329 84.48 
L 219.134045 87.168 
L 219.205818 87.41845 
L 220.468222 89.856 
L 221.713505 92.544 
L 222.091636 93.417944 
L 223.460731 95.232 
L 224.977455 97.510021 
L 225.445693 97.92 
L 227.863273 100.309615 
L 228.366737 100.608 
L 230.749091 102.190809 
L 233.39728 103.296 
L 233.634909 103.406367 
L 236.520727 104.107907 
L 239.406545 104.420232 
L 242.292364 104.423663 
L 245.178182 104.178463 
L 248.064 103.730483 
L 250.160231 103.296 
L 250.949818 103.112984 
L 253.835636 102.350907 
L 256.721455 101.46992 
L 259.276727 100.608 
L 259.607273 100.484974 
L 262.493091 99.410602 
L 265.378909 98.255476 
L 266.222382 97.92 
L 268.264727 97.033707 
L 271.150545 95.747376 
L 272.316175 95.232 
L 274.036364 94.408599 
L 276.922182 93.016706 
L 277.921874 92.544 
L 279.808 91.585224 
L 282.693818 90.103492 
L 283.195365 89.856 
L 285.579636 88.599271 
L 288.243667 87.168 
L 288.465455 87.041267 
L 291.351273 85.475538 
L 293.173538 84.48 
L 294.237091 83.865429 
L 297.122909 82.230049 
L 297.918817 81.792 
L 300.008727 80.581758 
L 302.539448 79.104 
L 302.894545 78.886519 
L 305.780364 77.197777 
L 307.123528 76.416 
L 308.666182 75.478756 
L 311.532529 73.728 
L 311.552 73.715617 
L 314.437818 71.983602 
L 315.997796 71.04 
L 317.323636 70.20878 
L 320.209455 68.396033 
L 320.283247 68.352 
L 323.095273 66.620933 
L 324.635507 65.664 
L 325.981091 64.803105 
L 328.819965 62.976 
L 328.866909 62.944937 
L 331.752727 61.134156 
L 333.089621 60.288 
L 334.638545 59.284551 
L 337.217884 57.6 
L 337.524364 57.395371 
L 340.410182 55.540425 
L 341.39064 54.912 
L 343.296 53.669272 
M 201.890909 292.015639 
L 202.088506 291.456 
L 202.576998 288.768 
L 202.675163 286.08 
L 202.417824 283.392 
L 201.890909 281.657031 
L 201.306604 283.392 
L 201.105837 286.08 
L 201.161966 288.768 
L 201.611024 291.456 
L 201.890909 292.015639 
z
M 201.890909 265.0953 
L 202.645195 264.576 
L 203.552755 261.888 
L 201.890909 261.050574 
L 201.573195 261.888 
L 201.659762 264.576 
L 201.890909 265.0953 
z
M 204.776727 259.522902 
L 204.862815 259.2 
L 205.086219 256.512 
L 204.984651 253.824 
L 204.776727 252.224061 
L 204.633886 253.824 
L 204.565551 256.512 
L 204.651128 259.2 
L 204.776727 259.522902 
z
M 199.005091 254.53731 
L 199.110823 253.824 
L 199.005091 253.589346 
L 198.90077 253.824 
L 199.005091 254.53731 
z
M 95.115636 176.224422 
L 95.612544 175.872 
L 95.115636 175.777321 
L 93.083559 175.872 
L 95.115636 176.224422 
z
M 317.323636 175.957228 
L 320.209455 176.258107 
L 323.095273 176.158944 
L 324.791548 175.872 
L 323.095273 175.566969 
L 320.209455 175.485283 
L 317.323636 175.777431 
L 316.999982 175.872 
L 317.323636 175.957228 
z
M 77.800727 173.489031 
L 80.686545 173.570717 
L 83.572364 173.278569 
L 83.896018 173.184 
L 83.572364 173.098772 
L 80.686545 172.797893 
L 77.800727 172.897056 
L 76.104452 173.184 
L 77.800727 173.489031 
z
M 305.780364 173.278679 
L 307.812441 173.184 
L 305.780364 172.831578 
L 305.283456 173.184 
L 305.780364 173.278679 
z
M 196.119273 96.831939 
L 196.262114 95.232 
L 196.330449 92.544 
L 196.244872 89.856 
L 196.119273 89.533098 
L 196.033185 89.856 
L 195.809781 92.544 
L 195.911349 95.232 
L 196.119273 96.831939 
z
M 201.890909 95.466654 
L 201.99523 95.232 
L 201.890909 94.51869 
L 201.785177 95.232 
L 201.890909 95.466654 
z
M 199.005091 88.005426 
L 199.322805 87.168 
L 199.236238 84.48 
L 199.005091 83.9607 
L 198.250805 84.48 
L 197.343245 87.168 
L 199.005091 88.005426 
z
M 199.005091 67.398969 
L 199.589396 65.664 
L 199.790163 62.976 
L 199.734034 60.288 
L 199.284976 57.6 
L 199.005091 57.040361 
L 198.807494 57.6 
L 198.319002 60.288 
L 198.220837 62.976 
L 198.478176 65.664 
L 199.005091 67.398969 
z
" clip-path="url(#p083e5b5778)" style="fill: none; stroke: #28ae80; stroke-width: 1.5"/>
    <path d="M 188.451374 307.584 
L 188.10467 304.896 
L 187.769538 302.208 
L 187.461818 299.675224 
L 187.413347 299.52 
L 186.620148 296.832 
L 185.900331 294.144 
L 185.240709 291.456 
L 184.630256 288.768 
L 184.576 288.519677 
L 183.259946 286.08 
L 182.019459 283.392 
L 181.690182 282.606451 
L 179.502757 280.704 
L 178.804364 279.987329 
L 175.918545 279.646262 
L 173.575148 280.704 
L 173.032727 280.988901 
L 170.382734 283.392 
L 170.146909 283.637328 
L 168.15585 286.08 
L 167.261091 287.32269 
L 166.265036 288.768 
L 164.595235 291.456 
L 164.375273 291.837884 
L 163.01917 294.144 
L 161.586149 296.832 
L 161.489455 297.023773 
L 160.165222 299.52 
L 158.854288 302.208 
L 158.603636 302.748966 
L 157.541127 304.896 
L 156.297373 307.584 
M 199.313145 307.584 
L 199.46408 304.896 
L 199.421947 302.208 
L 199.126452 299.52 
L 199.005091 299.042518 
L 197.336324 299.52 
L 197.049907 302.208 
L 197.342547 304.896 
L 198.006402 307.584 
M 207.915707 307.584 
L 207.990852 304.896 
L 208.054914 302.208 
L 208.106106 299.52 
L 208.141787 296.832 
L 208.157986 294.144 
L 208.148544 291.456 
L 208.103509 288.768 
L 208.005872 286.08 
L 207.824237 283.392 
L 207.662545 281.929978 
L 207.606605 283.392 
L 207.530378 286.08 
L 207.474907 288.768 
L 207.434216 291.456 
L 207.4049 294.144 
L 207.385184 296.832 
L 207.374505 299.52 
L 207.373438 302.208 
L 207.383932 304.896 
L 207.410064 307.584 
M 57.6 194.907205 
L 57.908669 194.688 
L 59.509153 192 
L 57.6 189.909517 
M 343.296 154.148795 
L 342.987331 154.368 
L 341.386847 157.056 
L 343.296 159.146483 
M 192.980293 41.472 
L 192.905148 44.16 
L 192.841086 46.848 
L 192.789894 49.536 
L 192.754213 52.224 
L 192.738014 54.912 
L 192.747456 57.6 
L 192.792491 60.288 
L 192.890128 62.976 
L 193.071763 65.664 
L 193.233455 67.126022 
L 193.289395 65.664 
L 193.365622 62.976 
L 193.421093 60.288 
L 193.461784 57.6 
L 193.4911 54.912 
L 193.510816 52.224 
L 193.521495 49.536 
L 193.522562 46.848 
L 193.512068 44.16 
L 193.485936 41.472 
M 201.582855 41.472 
L 201.43192 44.16 
L 201.474053 46.848 
L 201.769548 49.536 
L 201.890909 50.013482 
L 203.559676 49.536 
L 203.846093 46.848 
L 203.553453 44.16 
L 202.889598 41.472 
M 212.444626 41.472 
L 212.79133 44.16 
L 213.126462 46.848 
L 213.434182 49.380776 
L 213.482653 49.536 
L 214.275852 52.224 
L 214.995669 54.912 
L 215.655291 57.6 
L 216.265744 60.288 
L 216.32 60.536323 
L 217.636054 62.976 
L 218.876541 65.664 
L 219.205818 66.449549 
L 221.393243 68.352 
L 222.091636 69.068671 
L 224.977455 69.409738 
L 227.320852 68.352 
L 227.863273 68.067099 
L 230.513266 65.664 
L 230.749091 65.418672 
L 232.74015 62.976 
L 233.634909 61.73331 
L 234.630964 60.288 
L 236.300765 57.6 
L 236.520727 57.218116 
L 237.87683 54.912 
L 239.309851 52.224 
L 239.406545 52.032227 
L 240.730778 49.536 
L 242.041712 46.848 
L 242.292364 46.307034 
L 243.354873 44.16 
L 244.598627 41.472 
M 196.119273 297.70858 
L 196.323687 296.832 
L 196.375112 294.144 
L 196.344229 291.456 
L 196.303027 288.768 
L 196.249383 286.08 
L 196.155355 283.392 
L 196.119273 282.83639 
L 196.086684 283.392 
L 195.989401 286.08 
L 195.946623 288.768 
L 195.948921 291.456 
L 195.992452 294.144 
L 196.077676 296.832 
L 196.119273 297.70858 
z
M 201.890909 288.840261 
L 201.905006 288.768 
L 202.018012 286.08 
L 201.890909 285.066327 
L 201.763674 286.08 
L 201.875932 288.768 
L 201.890909 288.840261 
z
M 204.776727 66.21961 
L 204.809316 65.664 
L 204.906599 62.976 
L 204.949377 60.288 
L 204.947079 57.6 
L 204.903548 54.912 
L 204.818324 52.224 
L 204.776727 51.34742 
L 204.572313 52.224 
L 204.520888 54.912 
L 204.551771 57.6 
L 204.592973 60.288 
L 204.646617 62.976 
L 204.740645 65.664 
L 204.776727 66.21961 
z
M 199.005091 63.989673 
L 199.132326 62.976 
L 199.020068 60.288 
L 199.005091 60.215739 
L 198.990994 60.288 
L 198.877988 62.976 
L 199.005091 63.989673 
z
" clip-path="url(#p083e5b5778)" style="fill: none; stroke: #5ec962; stroke-width: 1.5"/>
    <path d="M 184.944354 307.584 
L 184.576 306.371542 
L 182.538233 304.896 
L 181.690182 304.147395 
L 180.152366 304.896 
L 178.804364 305.686715 
L 177.393523 307.584 
M 215.951646 41.472 
L 216.32 42.684458 
L 218.357767 44.16 
L 219.205818 44.908605 
L 220.743634 44.16 
L 222.091636 43.369285 
L 223.502477 41.472 
" clip-path="url(#p083e5b5778)" style="fill: none; stroke: #addc30; stroke-width: 1.5"/>
    <path clip-path="url(#p083e5b5778)" style="fill: none; stroke: #fde725; stroke-width: 1.5"/>
   </g>
   <g id="patch_3">
    <path d="M 57.6 307.584 
L 57.6 41.472 
" style="fill: none; stroke: #000000; stroke-width: 0.8; stroke-linejoin: miter; stroke-linecap: square"/>
   </g>
   <g id="patch_4">
    <path d="M 343.296 307.584 
L 343.296 41.472 
" style="fill: none; stroke: #000000; stroke-width: 0.8; stroke-linejoin: miter; stroke-linecap: square"/>
   </g>
   <g id="patch_5">
    <path d="M 57.6 307.584 
L 343.296 307.584 
" style="fill: none; stroke: #000000; stroke-width: 0.8; stroke-linejoin: miter; stroke-linecap: square"/>
   </g>
   <g id="patch_6">
    <path d="M 57.6 41.472 
L 343.296 41.472 
" style="fill: none; stroke: #000000; stroke-width: 0.8; stroke-linejoin: miter; stroke-linecap: square"/>
   </g>
  </g>
  <g id="axes_2">
   <g id="patch_7">
    <path d="M 361.152 307.584 
L 374.4576 307.584 
L 374.4576 41.472 
L 361.152 41.472 
z
" style="fill: #ffffff"/>
   </g>
   <g id="matplotlib.axis_3"/>
   <g id="matplotlib.axis_4">
    <g id="ytick_6">
     <g id="line2d_15">
      <defs>
       <path id="m9b93db0c57" d="M 0 0 
L 3.5 0 
" style="stroke: #000000; stroke-width: 0.8"/>
      </defs>
      <g>
       <use xlink:href="#m9b93db0c57" x="374.4576" y="307.584" style="stroke: #000000; stroke-width: 0.8"/>
      </g>
     </g>
     <g id="text_15">
      <!-- −8 -->
      <g transform="translate(381.4576 311.383219) scale(0.1 -0.1)">
       <defs>
        <path id="DejaVuSans-38" d="M 2034 2216 
Q 1584 2216 1326 1975 
Q 1069 1734 1069 1313 
Q 1069 891 1326 650 
Q 1584 409 2034 409 
Q 2484 409 2743 651 
Q 3003 894 3003 1313 
Q 3003 1734 2745 1975 
Q 2488 2216 2034 2216 
z
M 1403 2484 
Q 997 2584 770 2862 
Q 544 3141 544 3541 
Q 544 4100 942 4425 
Q 1341 4750 2034 4750 
Q 2731 4750 3128 4425 
Q 3525 4100 3525 3541 
Q 3525 3141 3298 2862 
Q 3072 2584 2669 2484 
Q 3125 2378 3379 2068 
Q 3634 1759 3634 1313 
Q 3634 634 3220 271 
Q 2806 -91 2034 -91 
Q 1263 -91 848 271 
Q 434 634 434 1313 
Q 434 1759 690 2068 
Q 947 2378 1403 2484 
z
M 1172 3481 
Q 1172 3119 1398 2916 
Q 1625 2713 2034 2713 
Q 2441 2713 2670 2916 
Q 2900 3119 2900 3481 
Q 2900 3844 2670 4047 
Q 2441 4250 2034 4250 
Q 1625 4250 1398 4047 
Q 1172 3844 1172 3481 
z
" transform="scale(0.015625)"/>
       </defs>
       <use xlink:href="#DejaVuSans-2212"/>
       <use xlink:href="#DejaVuSans-38" x="83.789062"/>
      </g>
     </g>
    </g>
    <g id="ytick_7">
     <g id="line2d_16">
      <g>
       <use xlink:href="#m9b93db0c57" x="374.4576" y="274.32" style="stroke: #000000; stroke-width: 0.8"/>
      </g>
     </g>
     <g id="text_16">
      <!-- −6 -->
      <g transform="translate(381.4576 278.119219) scale(0.1 -0.1)">
       <defs>
        <path id="DejaVuSans-36" d="M 2113 2584 
Q 1688 2584 1439 2293 
Q 1191 2003 1191 1497 
Q 1191 994 1439 701 
Q 1688 409 2113 409 
Q 2538 409 2786 701 
Q 3034 994 3034 1497 
Q 3034 2003 2786 2293 
Q 2538 2584 2113 2584 
z
M 3366 4563 
L 3366 3988 
Q 3128 4100 2886 4159 
Q 2644 4219 2406 4219 
Q 1781 4219 1451 3797 
Q 1122 3375 1075 2522 
Q 1259 2794 1537 2939 
Q 1816 3084 2150 3084 
Q 2853 3084 3261 2657 
Q 3669 2231 3669 1497 
Q 3669 778 3244 343 
Q 2819 -91 2113 -91 
Q 1303 -91 875 529 
Q 447 1150 447 2328 
Q 447 3434 972 4092 
Q 1497 4750 2381 4750 
Q 2619 4750 2861 4703 
Q 3103 4656 3366 4563 
z
" transform="scale(0.015625)"/>
       </defs>
       <use xlink:href="#DejaVuSans-2212"/>
       <use xlink:href="#DejaVuSans-36" x="83.789062"/>
      </g>
     </g>
    </g>
    <g id="ytick_8">
     <g id="line2d_17">
      <g>
       <use xlink:href="#m9b93db0c57" x="374.4576" y="241.056" style="stroke: #000000; stroke-width: 0.8"/>
      </g>
     </g>
     <g id="text_17">
      <!-- −4 -->
      <g transform="translate(381.4576 244.855219) scale(0.1 -0.1)">
       <defs>
        <path id="DejaVuSans-34" d="M 2419 4116 
L 825 1625 
L 2419 1625 
L 2419 4116 
z
M 2253 4666 
L 3047 4666 
L 3047 1625 
L 3713 1625 
L 3713 1100 
L 3047 1100 
L 3047 0 
L 2419 0 
L 2419 1100 
L 313 1100 
L 313 1709 
L 2253 4666 
z
" transform="scale(0.015625)"/>
       </defs>
       <use xlink:href="#DejaVuSans-2212"/>
       <use xlink:href="#DejaVuSans-34" x="83.789062"/>
      </g>
     </g>
    </g>
    <g id="ytick_9">
     <g id="line2d_18">
      <g>
       <use xlink:href="#m9b93db0c57" x="374.4576" y="207.792" style="stroke: #000000; stroke-width: 0.8"/>
      </g>
     </g>
     <g id="text_18">
      <!-- −2 -->
      <g transform="translate(381.4576 211.591219) scale(0.1 -0.1)">
       <use xlink:href="#DejaVuSans-2212"/>
       <use xlink:href="#DejaVuSans-32" x="83.789062"/>
      </g>
     </g>
    </g>
    <g id="ytick_10">
     <g id="line2d_19">
      <g>
       <use xlink:href="#m9b93db0c57" x="374.4576" y="174.528" style="stroke: #000000; stroke-width: 0.8"/>
      </g>
     </g>
     <g id="text_19">
      <!-- 0 -->
      <g transform="translate(381.4576 178.327219) scale(0.1 -0.1)">
       <use xlink:href="#DejaVuSans-30"/>
      </g>
     </g>
    </g>
    <g id="ytick_11">
     <g id="line2d_20">
      <g>
       <use xlink:href="#m9b93db0c57" x="374.4576" y="141.264" style="stroke: #000000; stroke-width: 0.8"/>
      </g>
     </g>
     <g id="text_20">
      <!-- 2 -->
      <g transform="translate(381.4576 145.063219) scale(0.1 -0.1)">
       <use xlink:href="#DejaVuSans-32"/>
      </g>
     </g>
    </g>
    <g id="ytick_12">
     <g id="line2d_21">
      <g>
       <use xlink:href="#m9b93db0c57" x="374.4576" y="108" style="stroke: #000000; stroke-width: 0.8"/>
      </g>
     </g>
     <g id="text_21">
      <!-- 4 -->
      <g transform="translate(381.4576 111.799219) scale(0.1 -0.1)">
       <use xlink:href="#DejaVuSans-34"/>
      </g>
     </g>
    </g>
    <g id="ytick_13">
     <g id="line2d_22">
      <g>
       <use xlink:href="#m9b93db0c57" x="374.4576" y="74.736" style="stroke: #000000; stroke-width: 0.8"/>
      </g>
     </g>
     <g id="text_22">
      <!-- 6 -->
      <g transform="translate(381.4576 78.535219) scale(0.1 -0.1)">
       <use xlink:href="#DejaVuSans-36"/>
      </g>
     </g>
    </g>
    <g id="ytick_14">
     <g id="line2d_23">
      <g>
       <use xlink:href="#m9b93db0c57" x="374.4576" y="41.472" style="stroke: #000000; stroke-width: 0.8"/>
      </g>
     </g>
     <g id="text_23">
      <!-- 8 -->
      <g transform="translate(381.4576 45.271219) scale(0.1 -0.1)">
       <use xlink:href="#DejaVuSans-38"/>
      </g>
     </g>
    </g>
   </g>
   <g id="LineCollection_1"/>
   <g id="LineCollection_2">
    <path d="M 361.152 307.584 
L 374.4576 307.584 
" clip-path="url(#pe7e3e07853)" style="fill: none; stroke: #440154; stroke-width: 1.5"/>
    <path d="M 361.152 274.32 
L 374.4576 274.32 
" clip-path="url(#pe7e3e07853)" style="fill: none; stroke: #472d7b; stroke-width: 1.5"/>
    <path d="M 361.152 241.056 
L 374.4576 241.056 
" clip-path="url(#pe7e3e07853)" style="fill: none; stroke: #3b528b; stroke-width: 1.5"/>
    <path d="M 361.152 207.792 
L 374.4576 207.792 
" clip-path="url(#pe7e3e07853)" style="fill: none; stroke: #2c728e; stroke-width: 1.5"/>
    <path d="M 361.152 174.528 
L 374.4576 174.528 
" clip-path="url(#pe7e3e07853)" style="fill: none; stroke: #21918c; stroke-width: 1.5"/>
    <path d="M 361.152 141.264 
L 374.4576 141.264 
" clip-path="url(#pe7e3e07853)" style="fill: none; stroke: #28ae80; stroke-width: 1.5"/>
    <path d="M 361.152 108 
L 374.4576 108 
" clip-path="url(#pe7e3e07853)" style="fill: none; stroke: #5ec962; stroke-width: 1.5"/>
    <path d="M 361.152 74.736 
L 374.4576 74.736 
" clip-path="url(#pe7e3e07853)" style="fill: none; stroke: #addc30; stroke-width: 1.5"/>
    <path d="M 361.152 41.472 
L 374.4576 41.472 
" clip-path="url(#pe7e3e07853)" style="fill: none; stroke: #fde725; stroke-width: 1.5"/>
   </g>
   <g id="patch_8">
    <path d="M 361.152 307.584 
L 367.8048 307.584 
L 374.4576 307.584 
L 374.4576 41.472 
L 367.8048 41.472 
L 361.152 41.472 
L 361.152 307.584 
z
" style="fill: none; stroke: #000000; stroke-width: 0.8; stroke-linejoin: miter; stroke-linecap: square"/>
   </g>
  </g>
 </g>
 <defs>
  <clipPath id="p083e5b5778">
   <rect x="57.6" y="41.472" width="285.696" height="266.112"/>
  </clipPath>
  <clipPath id="pe7e3e07853">
   <path d="M 361.152 309.084 
L 374.4576 309.084 
L 374.4576 39.972 
L 361.152 39.972 
z
"/>
  </clipPath>
 </defs>
</svg>
