<?xml version="1.0" encoding="utf-8" standalone="no"?>
<!DOCTYPE svg PUBLIC "-//W3C//DTD SVG 1.1//EN"
  "http://www.w3.org/Graphics/SVG/1.1/DTD/svg11.dtd">
<svg xmlns:xlink="http://www.w3.org/1999/xlink" width="460.8pt" height="345.6pt" viewBox="0 0 460.8 345.6" xmlns="http://www.w3.org/2000/svg" version="1.1">
 <metadata>
  <rdf:RDF xmlns:dc="http://purl.org/dc/elements/1.1/" xmlns:cc="http://creativecommons.org/ns#" xmlns:rdf="http://www.w3.org/1999/02/22-rdf-syntax-ns#">
   <cc:Work>
    <dc:type rdf:resource="http://purl.org/dc/dcmitype/StillImage"/>
    <dc:date>2024-11-14T08:25:02.476296</dc:date>
    <dc:format>image/svg+xml</dc:format>
    <dc:creator>
     <cc:Agent>
      <dc:title>Matplotlib v3.9.2, https://matplotlib.org/</dc:title>
     </cc:Agent>
    </dc:creator>
   </cc:Work>
  </rdf:RDF>
 </metadata>
 <defs>
  <style type="text/css">*{stroke-linejoin: round; stroke-linecap: butt}</style>
 </defs>
 <g id="figure_1">
  <g id="patch_1">
   <path d="M 0 345.6 
L 460.8 345.6 
L 460.8 0 
L 0 0 
z
" style="fill: #ffffff"/>
  </g>
  <g id="axes_1">
   <g id="patch_2">
    <path d="M 57.6 307.584 
L 414.72 307.584 
L 414.72 41.472 
L 57.6 41.472 
z
" style="fill: #ffffff"/>
   </g>
   <g id="PolyCollection_1">
    <path d="M 73.832727 295.485699 
L 73.832727 53.568 
L 74.157707 54.88633 
L 74.482686 56.210538 
L 74.807666 57.540421 
L 75.132645 58.875775 
L 75.457625 60.216401 
L 75.782604 61.562096 
L 76.107584 62.912661 
L 76.432563 64.267899 
L 76.757543 65.627612 
L 77.082523 66.991604 
L 77.407502 68.359681 
L 77.732482 69.731649 
L 78.057461 71.107316 
L 78.382441 72.486491 
L 78.70742 73.868985 
L 79.0324 75.254609 
L 79.357379 76.643176 
L 79.682359 78.034501 
L 80.007338 79.428401 
L 80.332318 80.824691 
L 80.657297 82.223191 
L 80.982277 83.623721 
L 81.307256 85.026103 
L 81.632236 86.43016 
L 81.957215 87.835716 
L 82.282195 89.242598 
L 82.607174 90.650634 
L 82.932154 92.059653 
L 83.257133 93.469486 
L 83.582113 94.879965 
L 83.907093 96.290925 
L 84.232072 97.702201 
L 84.557052 99.113631 
L 84.882031 100.525053 
L 85.207011 101.93631 
L 85.53199 103.347242 
L 85.85697 104.757694 
L 86.181949 106.167512 
L 86.506929 107.576543 
L 86.831908 108.984637 
L 87.156888 110.391644 
L 87.481867 111.797418 
L 87.806847 113.201812 
L 88.131826 114.604683 
L 88.456806 116.00589 
L 88.781785 117.405291 
L 89.106765 118.802748 
L 89.431744 120.198126 
L 89.756724 121.591288 
L 90.081704 122.982102 
L 90.406683 124.370436 
L 90.731663 125.756162 
L 91.056642 127.139151 
L 91.381622 128.519278 
L 91.706601 129.896419 
L 92.031581 131.270452 
L 92.35656 132.641256 
L 92.68154 134.008713 
L 93.006519 135.372706 
L 93.331499 136.733121 
L 93.656478 138.089844 
L 93.981458 139.442765 
L 94.306437 140.791774 
L 94.631417 142.136764 
L 94.956396 143.477629 
L 95.281376 144.814265 
L 95.606355 146.146571 
L 95.931335 147.474446 
L 96.256314 148.797791 
L 96.581294 150.116512 
L 96.906274 151.430512 
L 97.231253 152.739699 
L 97.556233 154.043982 
L 97.881212 155.343272 
L 98.206192 156.637482 
L 98.531171 157.926525 
L 98.856151 159.210319 
L 99.18113 160.48878 
L 99.50611 161.761829 
L 99.831089 163.029388 
L 100.156069 164.291379 
L 100.481048 165.547728 
L 100.806028 166.798362 
L 101.131007 168.043209 
L 101.455987 169.282199 
L 101.780966 170.515266 
L 102.105946 171.742341 
L 102.430925 172.963362 
L 102.755905 174.178264 
L 103.080885 175.386988 
L 103.405864 176.589473 
L 103.730844 177.785663 
L 104.055823 178.9755 
L 104.380803 180.158931 
L 104.705782 181.335902 
L 105.030762 182.506364 
L 105.355741 183.670265 
L 105.680721 184.827559 
L 106.0057 185.978199 
L 106.33068 187.12214 
L 106.655659 188.25934 
L 106.980639 189.389756 
L 107.305618 190.513349 
L 107.630598 191.630081 
L 107.955577 192.739914 
L 108.280557 193.842813 
L 108.605536 194.938745 
L 108.930516 196.027676 
L 109.255495 197.109577 
L 109.580475 198.184417 
L 109.905455 199.252169 
L 110.230434 200.312805 
L 110.555414 201.366302 
L 110.880393 202.412635 
L 111.205373 203.451781 
L 111.530352 204.483721 
L 111.855332 205.508434 
L 112.180311 206.525902 
L 112.505291 207.536108 
L 112.83027 208.539038 
L 113.15525 209.534675 
L 113.480229 210.523008 
L 113.805209 211.504025 
L 114.130188 212.477716 
L 114.455168 213.44407 
L 114.780147 214.403081 
L 115.105127 215.354741 
L 115.430106 216.299046 
L 115.755086 217.23599 
L 116.080066 218.165571 
L 116.405045 219.087786 
L 116.730025 220.002635 
L 117.055004 220.910117 
L 117.379984 221.810235 
L 117.704963 222.702991 
L 118.029943 223.588388 
L 118.354922 224.466431 
L 118.679902 225.337125 
L 119.004881 226.200478 
L 119.329861 227.056496 
L 119.65484 227.905188 
L 119.97982 228.746565 
L 120.304799 229.580637 
L 120.629779 230.407414 
L 120.954758 231.226911 
L 121.279738 232.03914 
L 121.604717 232.844115 
L 121.929697 233.641852 
L 122.254676 234.432367 
L 122.579656 235.215677 
L 122.904636 235.991799 
L 123.229615 236.760752 
L 123.554595 237.522556 
L 123.879574 238.277231 
L 124.204554 239.024797 
L 124.529533 239.765277 
L 124.854513 240.498693 
L 125.179492 241.225068 
L 125.504472 241.944426 
L 125.829451 242.656792 
L 126.154431 243.362191 
L 126.47941 244.060649 
L 126.80439 244.752193 
L 127.129369 245.43685 
L 127.454349 246.114647 
L 127.779328 246.785614 
L 128.104308 247.44978 
L 128.429287 248.107174 
L 128.754267 248.757827 
L 129.079247 249.401769 
L 129.404226 250.039031 
L 129.729206 250.669647 
L 130.054185 251.293647 
L 130.379165 251.911066 
L 130.704144 252.521936 
L 131.029124 253.126291 
L 131.354103 253.724165 
L 131.679083 254.315594 
L 132.004062 254.900613 
L 132.329042 255.479256 
L 132.654021 256.051561 
L 132.979001 256.617563 
L 133.30398 257.177299 
L 133.62896 257.730806 
L 133.953939 258.278123 
L 134.278919 258.819286 
L 134.603898 259.354334 
L 134.928878 259.883305 
L 135.253857 260.406238 
L 135.578837 260.923172 
L 135.903817 261.434147 
L 136.228796 261.939201 
L 136.553776 262.438376 
L 136.878755 262.93171 
L 137.203735 263.419244 
L 137.528714 263.90102 
L 137.853694 264.377076 
L 138.178673 264.847455 
L 138.503653 265.312198 
L 138.828632 265.771345 
L 139.153612 266.224939 
L 139.478591 266.673021 
L 139.803571 267.115632 
L 140.12855 267.552815 
L 140.45353 267.984611 
L 140.778509 268.411063 
L 141.103489 268.832213 
L 141.428468 269.248103 
L 141.753448 269.658776 
L 142.078428 270.064274 
L 142.403407 270.464639 
L 142.728387 270.859915 
L 143.053366 271.250143 
L 143.378346 271.635367 
L 143.703325 272.01563 
L 144.028305 272.390973 
L 144.353284 272.76144 
L 144.678264 273.127074 
L 145.003243 273.487916 
L 145.328223 273.844011 
L 145.653202 274.195401 
L 145.978182 274.542128 
L 146.303161 274.884234 
L 146.628141 275.221764 
L 146.95312 275.554758 
L 147.2781 275.883261 
L 147.603079 276.207313 
L 147.928059 276.526958 
L 148.253038 276.842238 
L 148.578018 277.153194 
L 148.902998 277.45987 
L 149.227977 277.762306 
L 149.552957 278.060546 
L 149.877936 278.35463 
L 150.202916 278.644601 
L 150.527895 278.9305 
L 150.852875 279.212368 
L 151.177854 279.490247 
L 151.502834 279.764178 
L 151.827813 280.034202 
L 152.152793 280.300359 
L 152.477772 280.562692 
L 152.802752 280.821239 
L 153.127731 281.076041 
L 153.452711 281.327139 
L 153.77769 281.574573 
L 154.10267 281.818383 
L 154.427649 282.058608 
L 154.752629 282.295287 
L 155.077609 282.528461 
L 155.402588 282.758167 
L 155.727568 282.984446 
L 156.052547 283.207336 
L 156.377527 283.426875 
L 156.702506 283.643102 
L 157.027486 283.856055 
L 157.352465 284.065771 
L 157.677445 284.272288 
L 158.002424 284.475644 
L 158.327404 284.675876 
L 158.652383 284.873021 
L 158.977363 285.067116 
L 159.302342 285.258197 
L 159.627322 285.4463 
L 159.952301 285.631462 
L 160.277281 285.813718 
L 160.60226 285.993105 
L 160.92724 286.169656 
L 161.252219 286.343408 
L 161.577199 286.514394 
L 161.902179 286.682651 
L 162.227158 286.848211 
L 162.552138 287.01111 
L 162.877117 287.17138 
L 163.202097 287.329056 
L 163.527076 287.48417 
L 163.852056 287.636757 
L 164.177035 287.786848 
L 164.502015 287.934476 
L 164.826994 288.079673 
L 165.151974 288.222471 
L 165.476953 288.362903 
L 165.801933 288.500999 
L 166.126912 288.63679 
L 166.451892 288.770308 
L 166.776871 288.901584 
L 167.101851 289.030647 
L 167.42683 289.157527 
L 167.75181 289.282256 
L 168.07679 289.404861 
L 168.401769 289.525372 
L 168.726749 289.64382 
L 169.051728 289.760231 
L 169.376708 289.874635 
L 169.701687 289.98706 
L 170.026667 290.097534 
L 170.351646 290.206084 
L 170.676626 290.312738 
L 171.001605 290.417523 
L 171.326585 290.520466 
L 171.651564 290.621594 
L 171.976544 290.720933 
L 172.301523 290.818508 
L 172.626503 290.914346 
L 172.951482 291.008473 
L 173.276462 291.100913 
L 173.601441 291.191691 
L 173.926421 291.280833 
L 174.2514 291.368362 
L 174.57638 291.454303 
L 174.90136 291.53868 
L 175.226339 291.621516 
L 175.551319 291.702836 
L 175.876298 291.782661 
L 176.201278 291.861015 
L 176.526257 291.937921 
L 176.851237 292.0134 
L 177.176216 292.087476 
L 177.501196 292.160169 
L 177.826175 292.231502 
L 178.151155 292.301496 
L 178.476134 292.370172 
L 178.801114 292.43755 
L 179.126093 292.503652 
L 179.451073 292.568498 
L 179.776052 292.632108 
L 180.101032 292.694501 
L 180.426011 292.755698 
L 180.750991 292.815717 
L 181.075971 292.874578 
L 181.40095 292.9323 
L 181.72593 292.988902 
L 182.050909 293.044401 
L 182.375889 293.098817 
L 182.700868 293.152166 
L 183.025848 293.204468 
L 183.350827 293.255738 
L 183.675807 293.305995 
L 184.000786 293.355256 
L 184.325766 293.403537 
L 184.650745 293.450855 
L 184.975725 293.497227 
L 185.300704 293.542668 
L 185.625684 293.587194 
L 185.950663 293.630822 
L 186.275643 293.673567 
L 186.600622 293.715443 
L 186.925602 293.756467 
L 187.250581 293.796652 
L 187.575561 293.836014 
L 187.900541 293.874568 
L 188.22552 293.912327 
L 188.5505 293.949305 
L 188.875479 293.985517 
L 189.200459 294.020975 
L 189.525438 294.055694 
L 189.850418 294.089687 
L 190.175397 294.122966 
L 190.500377 294.155546 
L 190.825356 294.187437 
L 191.150336 294.218654 
L 191.475315 294.249208 
L 191.800295 294.279111 
L 192.125274 294.308376 
L 192.450254 294.337014 
L 192.775233 294.365036 
L 193.100213 294.392455 
L 193.425192 294.419281 
L 193.750172 294.445526 
L 194.075152 294.4712 
L 194.400131 294.496315 
L 194.725111 294.52088 
L 195.05009 294.544906 
L 195.37507 294.568404 
L 195.700049 294.591384 
L 196.025029 294.613854 
L 196.350008 294.635827 
L 196.674988 294.65731 
L 196.999967 294.678313 
L 197.324947 294.698846 
L 197.649926 294.718918 
L 197.974906 294.738537 
L 198.299885 294.757714 
L 198.624865 294.776455 
L 198.949844 294.794771 
L 199.274824 294.812669 
L 199.599803 294.830158 
L 199.924783 294.847246 
L 200.249762 294.86394 
L 200.574742 294.88025 
L 200.899722 294.896182 
L 201.224701 294.911744 
L 201.549681 294.926944 
L 201.87466 294.941789 
L 202.19964 294.956286 
L 202.524619 294.970443 
L 202.849599 294.984266 
L 203.174578 294.997762 
L 203.499558 295.010938 
L 203.824537 295.023801 
L 204.149517 295.036357 
L 204.474496 295.048613 
L 204.799476 295.060574 
L 205.124455 295.072248 
L 205.449435 295.08364 
L 205.774414 295.094755 
L 206.099394 295.105601 
L 206.424373 295.116182 
L 206.749353 295.126505 
L 207.074333 295.136574 
L 207.399312 295.146396 
L 207.724292 295.155975 
L 208.049271 295.165317 
L 208.374251 295.174427 
L 208.69923 295.18331 
L 209.02421 295.191971 
L 209.349189 295.200415 
L 209.674169 295.208647 
L 209.999148 295.216671 
L 210.324128 295.224492 
L 210.649107 295.232114 
L 210.974087 295.239542 
L 211.299066 295.246781 
L 211.624046 295.253833 
L 211.949025 295.260705 
L 212.274005 295.267399 
L 212.598984 295.273919 
L 212.923964 295.28027 
L 213.248943 295.286456 
L 213.573923 295.29248 
L 213.898903 295.298346 
L 214.223882 295.304057 
L 214.548862 295.309618 
L 214.873841 295.315031 
L 215.198821 295.320301 
L 215.5238 295.32543 
L 215.84878 295.330421 
L 216.173759 295.335278 
L 216.498739 295.340005 
L 216.823718 295.344603 
L 217.148698 295.349077 
L 217.473677 295.353429 
L 217.798657 295.357662 
L 218.123636 295.361779 
L 218.448616 295.365782 
L 218.773595 295.369675 
L 219.098575 295.37346 
L 219.423554 295.377139 
L 219.748534 295.380716 
L 220.073514 295.384193 
L 220.398493 295.387571 
L 220.723473 295.390855 
L 221.048452 295.394045 
L 221.373432 295.397144 
L 221.698411 295.400155 
L 222.023391 295.40308 
L 222.34837 295.40592 
L 222.67335 295.408679 
L 222.998329 295.411357 
L 223.323309 295.413957 
L 223.648288 295.416482 
L 223.973268 295.418932 
L 224.298247 295.42131 
L 224.623227 295.423618 
L 224.948206 295.425857 
L 225.273186 295.42803 
L 225.598165 295.430137 
L 225.923145 295.432181 
L 226.248124 295.434163 
L 226.573104 295.436085 
L 226.898084 295.437949 
L 227.223063 295.439756 
L 227.548043 295.441507 
L 227.873022 295.443204 
L 228.198002 295.444848 
L 228.522981 295.446441 
L 228.847961 295.447985 
L 229.17294 295.44948 
L 229.49792 295.450927 
L 229.822899 295.452329 
L 230.147879 295.453686 
L 230.472858 295.455 
L 230.797838 295.456271 
L 231.122817 295.457502 
L 231.447797 295.458692 
L 231.772776 295.459843 
L 232.097756 295.460957 
L 232.422735 295.462034 
L 232.747715 295.463075 
L 233.072695 295.464081 
L 233.397674 295.465054 
L 233.722654 295.465994 
L 234.047633 295.466902 
L 234.372613 295.467779 
L 234.697592 295.468626 
L 235.022572 295.469444 
L 235.347551 295.470234 
L 235.672531 295.470996 
L 235.99751 295.471731 
L 236.32249 295.47244 
L 236.647469 295.473124 
L 236.972449 295.473784 
L 237.297428 295.47442 
L 237.622408 295.475033 
L 237.947387 295.475623 
L 238.272367 295.476192 
L 238.597346 295.47674 
L 238.922326 295.477268 
L 239.247305 295.477775 
L 239.572285 295.478264 
L 239.897265 295.478734 
L 240.222244 295.479186 
L 240.547224 295.47962 
L 240.872203 295.480038 
L 241.197183 295.480439 
L 241.522162 295.480825 
L 241.847142 295.481195 
L 242.172121 295.48155 
L 242.497101 295.48189 
L 242.82208 295.482217 
L 243.14706 295.48253 
L 243.472039 295.48283 
L 243.797019 295.483118 
L 244.121998 295.483393 
L 244.446978 295.483657 
L 244.771957 295.483909 
L 245.096937 295.48415 
L 245.421916 295.48438 
L 245.746896 295.4846 
L 246.071876 295.48481 
L 246.396855 295.48501 
L 246.721835 295.485201 
L 247.046814 295.485383 
L 247.371794 295.485556 
L 247.696773 295.485721 
L 248.021753 295.485878 
L 248.346732 295.486027 
L 248.671712 295.486168 
L 248.996691 295.486302 
L 249.321671 295.486429 
L 249.64665 295.486549 
L 249.97163 295.486663 
L 250.296609 295.486771 
L 250.621589 295.486872 
L 250.946568 295.486968 
L 251.271548 295.487058 
L 251.596527 295.487142 
L 251.921507 295.487222 
L 252.246486 295.487296 
L 252.571466 295.487366 
L 252.896446 295.487431 
L 253.221425 295.487491 
L 253.546405 295.487547 
L 253.871384 295.4876 
L 254.196364 295.487648 
L 254.521343 295.487692 
L 254.846323 295.487733 
L 255.171302 295.48777 
L 255.496282 295.487804 
L 255.821261 295.487835 
L 256.146241 295.487863 
L 256.47122 295.487888 
L 256.7962 295.48791 
L 257.121179 295.487929 
L 257.446159 295.487946 
L 257.771138 295.48796 
L 258.096118 295.487972 
L 258.421097 295.487981 
L 258.746077 295.487989 
L 259.071057 295.487995 
L 259.396036 295.487998 
L 259.721016 295.488 
L 260.045995 295.488 
L 260.370975 295.487998 
L 260.695954 295.487995 
L 261.020934 295.48799 
L 261.345913 295.487984 
L 261.670893 295.487977 
L 261.995872 295.487968 
L 262.320852 295.487958 
L 262.645831 295.487947 
L 262.970811 295.487934 
L 263.29579 295.487921 
L 263.62077 295.487907 
L 263.945749 295.487892 
L 264.270729 295.487876 
L 264.595708 295.487859 
L 264.920688 295.487842 
L 265.245667 295.487823 
L 265.570647 295.487805 
L 265.895627 295.487785 
L 266.220606 295.487765 
L 266.545586 295.487745 
L 266.870565 295.487724 
L 267.195545 295.487702 
L 267.520524 295.487681 
L 267.845504 295.487658 
L 268.170483 295.487636 
L 268.495463 295.487613 
L 268.820442 295.48759 
L 269.145422 295.487567 
L 269.470401 295.487543 
L 269.795381 295.48752 
L 270.12036 295.487496 
L 270.44534 295.487472 
L 270.770319 295.487448 
L 271.095299 295.487424 
L 271.420278 295.4874 
L 271.745258 295.487376 
L 272.070238 295.487351 
L 272.395217 295.487327 
L 272.720197 295.487303 
L 273.045176 295.487279 
L 273.370156 295.487255 
L 273.695135 295.487231 
L 274.020115 295.487207 
L 274.345094 295.487183 
L 274.670074 295.487159 
L 274.995053 295.487135 
L 275.320033 295.487112 
L 275.645012 295.487088 
L 275.969992 295.487065 
L 276.294971 295.487042 
L 276.619951 295.487019 
L 276.94493 295.486996 
L 277.26991 295.486974 
L 277.594889 295.486952 
L 277.919869 295.486929 
L 278.244848 295.486907 
L 278.569828 295.486886 
L 278.894808 295.486864 
L 279.219787 295.486843 
L 279.544767 295.486822 
L 279.869746 295.486801 
L 280.194726 295.48678 
L 280.519705 295.48676 
L 280.844685 295.48674 
L 281.169664 295.48672 
L 281.494644 295.486701 
L 281.819623 295.486681 
L 282.144603 295.486662 
L 282.469582 295.486643 
L 282.794562 295.486625 
L 283.119541 295.486606 
L 283.444521 295.486588 
L 283.7695 295.48657 
L 284.09448 295.486553 
L 284.419459 295.486535 
L 284.744439 295.486518 
L 285.069419 295.486501 
L 285.394398 295.486485 
L 285.719378 295.486469 
L 286.044357 295.486453 
L 286.369337 295.486437 
L 286.694316 295.486421 
L 287.019296 295.486406 
L 287.344275 295.486391 
L 287.669255 295.486376 
L 287.994234 295.486362 
L 288.319214 295.486347 
L 288.644193 295.486333 
L 288.969173 295.486319 
L 289.294152 295.486306 
L 289.619132 295.486293 
L 289.944111 295.486279 
L 290.269091 295.486267 
L 290.59407 295.486254 
L 290.91905 295.486242 
L 291.244029 295.486229 
L 291.569009 295.486217 
L 291.893989 295.486206 
L 292.218968 295.486194 
L 292.543948 295.486183 
L 292.868927 295.486172 
L 293.193907 295.486161 
L 293.518886 295.48615 
L 293.843866 295.48614 
L 294.168845 295.48613 
L 294.493825 295.48612 
L 294.818804 295.48611 
L 295.143784 295.4861 
L 295.468763 295.486091 
L 295.793743 295.486081 
L 296.118722 295.486072 
L 296.443702 295.486063 
L 296.768681 295.486055 
L 297.093661 295.486046 
L 297.41864 295.486038 
L 297.74362 295.48603 
L 298.0686 295.486022 
L 298.393579 295.486014 
L 298.718559 295.486006 
L 299.043538 295.485999 
L 299.368518 295.485991 
L 299.693497 295.485984 
L 300.018477 295.485977 
L 300.343456 295.48597 
L 300.668436 295.485963 
L 300.993415 295.485957 
L 301.318395 295.48595 
L 301.643374 295.485944 
L 301.968354 295.485938 
L 302.293333 295.485932 
L 302.618313 295.485926 
L 302.943292 295.48592 
L 303.268272 295.485915 
L 303.593251 295.485909 
L 303.918231 295.485904 
L 304.24321 295.485899 
L 304.56819 295.485893 
L 304.89317 295.485888 
L 305.218149 295.485884 
L 305.543129 295.485879 
L 305.868108 295.485874 
L 306.193088 295.48587 
L 306.518067 295.485865 
L 306.843047 295.485861 
L 307.168026 295.485856 
L 307.493006 295.485852 
L 307.817985 295.485848 
L 308.142965 295.485844 
L 308.467944 295.485841 
L 308.792924 295.485837 
L 309.117903 295.485833 
L 309.442883 295.48583 
L 309.767862 295.485826 
L 310.092842 295.485823 
L 310.417821 295.485819 
L 310.742801 295.485816 
L 311.067781 295.485813 
L 311.39276 295.48581 
L 311.71774 295.485807 
L 312.042719 295.485804 
L 312.367699 295.485801 
L 312.692678 295.485798 
L 313.017658 295.485795 
L 313.342637 295.485793 
L 313.667617 295.48579 
L 313.992596 295.485788 
L 314.317576 295.485785 
L 314.642555 295.485783 
L 314.967535 295.485781 
L 315.292514 295.485778 
L 315.617494 295.485776 
L 315.942473 295.485774 
L 316.267453 295.485772 
L 316.592432 295.48577 
L 316.917412 295.485768 
L 317.242391 295.485766 
L 317.567371 295.485764 
L 317.892351 295.485762 
L 318.21733 295.48576 
L 318.54231 295.485759 
L 318.867289 295.485757 
L 319.192269 295.485755 
L 319.517248 295.485754 
L 319.842228 295.485752 
L 320.167207 295.485751 
L 320.492187 295.485749 
L 320.817166 295.485748 
L 321.142146 295.485746 
L 321.467125 295.485745 
L 321.792105 295.485743 
L 322.117084 295.485742 
L 322.442064 295.485741 
L 322.767043 295.48574 
L 323.092023 295.485739 
L 323.417002 295.485737 
L 323.741982 295.485736 
L 324.066962 295.485735 
L 324.391941 295.485734 
L 324.716921 295.485733 
L 325.0419 295.485732 
L 325.36688 295.485731 
L 325.691859 295.48573 
L 326.016839 295.485729 
L 326.341818 295.485728 
L 326.666798 295.485727 
L 326.991777 295.485727 
L 327.316757 295.485726 
L 327.641736 295.485725 
L 327.966716 295.485724 
L 328.291695 295.485723 
L 328.616675 295.485723 
L 328.941654 295.485722 
L 329.266634 295.485721 
L 329.591613 295.485721 
L 329.916593 295.48572 
L 330.241572 295.485719 
L 330.566552 295.485719 
L 330.891532 295.485718 
L 331.216511 295.485717 
L 331.541491 295.485717 
L 331.86647 295.485716 
L 332.19145 295.485716 
L 332.516429 295.485715 
L 332.841409 295.485715 
L 333.166388 295.485714 
L 333.491368 295.485714 
L 333.816347 295.485713 
L 334.141327 295.485713 
L 334.466306 295.485712 
L 334.791286 295.485712 
L 335.116265 295.485712 
L 335.441245 295.485711 
L 335.766224 295.485711 
L 336.091204 295.48571 
L 336.416183 295.48571 
L 336.741163 295.48571 
L 337.066143 295.485709 
L 337.391122 295.485709 
L 337.716102 295.485709 
L 338.041081 295.485708 
L 338.366061 295.485708 
L 338.69104 295.485708 
L 339.01602 295.485708 
L 339.340999 295.485707 
L 339.665979 295.485707 
L 339.990958 295.485707 
L 340.315938 295.485706 
L 340.640917 295.485706 
L 340.965897 295.485706 
L 341.290876 295.485706 
L 341.615856 295.485706 
L 341.940835 295.485705 
L 342.265815 295.485705 
L 342.590794 295.485705 
L 342.915774 295.485705 
L 343.240753 295.485705 
L 343.565733 295.485704 
L 343.890713 295.485704 
L 344.215692 295.485704 
L 344.540672 295.485704 
L 344.865651 295.485704 
L 345.190631 295.485703 
L 345.51561 295.485703 
L 345.84059 295.485703 
L 346.165569 295.485703 
L 346.490549 295.485703 
L 346.815528 295.485703 
L 347.140508 295.485703 
L 347.465487 295.485703 
L 347.790467 295.485702 
L 348.115446 295.485702 
L 348.440426 295.485702 
L 348.765405 295.485702 
L 349.090385 295.485702 
L 349.415364 295.485702 
L 349.740344 295.485702 
L 350.065324 295.485702 
L 350.390303 295.485702 
L 350.715283 295.485701 
L 351.040262 295.485701 
L 351.365242 295.485701 
L 351.690221 295.485701 
L 352.015201 295.485701 
L 352.34018 295.485701 
L 352.66516 295.485701 
L 352.990139 295.485701 
L 353.315119 295.485701 
L 353.640098 295.485701 
L 353.965078 295.485701 
L 354.290057 295.485701 
L 354.615037 295.485701 
L 354.940016 295.485701 
L 355.264996 295.4857 
L 355.589975 295.4857 
L 355.914955 295.4857 
L 356.239934 295.4857 
L 356.564914 295.4857 
L 356.889894 295.4857 
L 357.214873 295.4857 
L 357.539853 295.4857 
L 357.864832 295.4857 
L 358.189812 295.4857 
L 358.514791 295.4857 
L 358.839771 295.4857 
L 359.16475 295.4857 
L 359.48973 295.4857 
L 359.814709 295.4857 
L 360.139689 295.4857 
L 360.464668 295.4857 
L 360.789648 295.4857 
L 361.114627 295.4857 
L 361.439607 295.4857 
L 361.764586 295.4857 
L 362.089566 295.4857 
L 362.414545 295.4857 
L 362.739525 295.4857 
L 363.064505 295.4857 
L 363.389484 295.485699 
L 363.714464 295.485699 
L 364.039443 295.485699 
L 364.364423 295.485699 
L 364.689402 295.485699 
L 365.014382 295.485699 
L 365.339361 295.485699 
L 365.664341 295.485699 
L 365.98932 295.485699 
L 366.3143 295.485699 
L 366.639279 295.485699 
L 366.964259 295.485699 
L 367.289238 295.485699 
L 367.614218 295.485699 
L 367.939197 295.485699 
L 368.264177 295.485699 
L 368.589156 295.485699 
L 368.914136 295.485699 
L 369.239115 295.485699 
L 369.564095 295.485699 
L 369.889075 295.485699 
L 370.214054 295.485699 
L 370.539034 295.485699 
L 370.864013 295.485699 
L 371.188993 295.485699 
L 371.513972 295.485699 
L 371.838952 295.485699 
L 372.163931 295.485699 
L 372.488911 295.485699 
L 372.81389 295.485699 
L 373.13887 295.485699 
L 373.463849 295.485699 
L 373.788829 295.485699 
L 374.113808 295.485699 
L 374.438788 295.485699 
L 374.763767 295.485699 
L 375.088747 295.485699 
L 375.413726 295.485699 
L 375.738706 295.485699 
L 376.063686 295.485699 
L 376.388665 295.485699 
L 376.713645 295.485699 
L 377.038624 295.485699 
L 377.363604 295.485699 
L 377.688583 295.485699 
L 378.013563 295.485699 
L 378.338542 295.485699 
L 378.663522 295.485699 
L 378.988501 295.485699 
L 379.313481 295.485699 
L 379.63846 295.485699 
L 379.96344 295.485699 
L 380.288419 295.485699 
L 380.613399 295.485699 
L 380.938378 295.485699 
L 381.263358 295.485699 
L 381.588337 295.485699 
L 381.913317 295.485699 
L 382.238296 295.485699 
L 382.563276 295.485699 
L 382.888256 295.485699 
L 383.213235 295.485699 
L 383.538215 295.485699 
L 383.863194 295.485699 
L 384.188174 295.485699 
L 384.513153 295.485699 
L 384.838133 295.485699 
L 385.163112 295.485699 
L 385.488092 295.485699 
L 385.813071 295.485699 
L 386.138051 295.485699 
L 386.46303 295.485699 
L 386.78801 295.485699 
L 387.112989 295.485699 
L 387.437969 295.485699 
L 387.762948 295.485699 
L 388.087928 295.485699 
L 388.412907 295.485699 
L 388.737887 295.485699 
L 389.062867 295.485699 
L 389.387846 295.485699 
L 389.712826 295.485699 
L 390.037805 295.485699 
L 390.362785 295.485699 
L 390.687764 295.485699 
L 391.012744 295.485699 
L 391.337723 295.485699 
L 391.662703 295.485699 
L 391.987682 295.485699 
L 392.312662 295.485699 
L 392.637641 295.485699 
L 392.962621 295.485699 
L 393.2876 295.485699 
L 393.61258 295.485699 
L 393.937559 295.485699 
L 394.262539 295.485699 
L 394.587518 295.485699 
L 394.912498 295.485699 
L 395.237477 295.485699 
L 395.562457 295.485699 
L 395.887437 295.485699 
L 396.212416 295.485699 
L 396.537396 295.485699 
L 396.862375 295.485699 
L 397.187355 295.485699 
L 397.512334 295.485699 
L 397.837314 295.485699 
L 398.162293 295.485699 
L 398.487273 295.485699 
L 398.487273 295.485699 
L 398.487273 295.485699 
L 398.162293 295.485699 
L 397.837314 295.485699 
L 397.512334 295.485699 
L 397.187355 295.485699 
L 396.862375 295.485699 
L 396.537396 295.485699 
L 396.212416 295.485699 
L 395.887437 295.485699 
L 395.562457 295.485699 
L 395.237477 295.485699 
L 394.912498 295.485699 
L 394.587518 295.485699 
L 394.262539 295.485699 
L 393.937559 295.485699 
L 393.61258 295.485699 
L 393.2876 295.485699 
L 392.962621 295.485699 
L 392.637641 295.485699 
L 392.312662 295.485699 
L 391.987682 295.485699 
L 391.662703 295.485699 
L 391.337723 295.485699 
L 391.012744 295.485699 
L 390.687764 295.485699 
L 390.362785 295.485699 
L 390.037805 295.485699 
L 389.712826 295.485699 
L 389.387846 295.485699 
L 389.062867 295.485699 
L 388.737887 295.485699 
L 388.412907 295.485699 
L 388.087928 295.485699 
L 387.762948 295.485699 
L 387.437969 295.485699 
L 387.112989 295.485699 
L 386.78801 295.485699 
L 386.46303 295.485699 
L 386.138051 295.485699 
L 385.813071 295.485699 
L 385.488092 295.485699 
L 385.163112 295.485699 
L 384.838133 295.485699 
L 384.513153 295.485699 
L 384.188174 295.485699 
L 383.863194 295.485699 
L 383.538215 295.485699 
L 383.213235 295.485699 
L 382.888256 295.485699 
L 382.563276 295.485699 
L 382.238296 295.485699 
L 381.913317 295.485699 
L 381.588337 295.485699 
L 381.263358 295.485699 
L 380.938378 295.485699 
L 380.613399 295.485699 
L 380.288419 295.485699 
L 379.96344 295.485699 
L 379.63846 295.485699 
L 379.313481 295.485699 
L 378.988501 295.485699 
L 378.663522 295.485699 
L 378.338542 295.485699 
L 378.013563 295.485699 
L 377.688583 295.485699 
L 377.363604 295.485699 
L 377.038624 295.485699 
L 376.713645 295.485699 
L 376.388665 295.485699 
L 376.063686 295.485699 
L 375.738706 295.485699 
L 375.413726 295.485699 
L 375.088747 295.485699 
L 374.763767 295.485699 
L 374.438788 295.485699 
L 374.113808 295.485699 
L 373.788829 295.485699 
L 373.463849 295.485699 
L 373.13887 295.485699 
L 372.81389 295.485699 
L 372.488911 295.485699 
L 372.163931 295.485699 
L 371.838952 295.485699 
L 371.513972 295.485699 
L 371.188993 295.485699 
L 370.864013 295.485699 
L 370.539034 295.485699 
L 370.214054 295.485699 
L 369.889075 295.485699 
L 369.564095 295.485699 
L 369.239115 295.485699 
L 368.914136 295.485699 
L 368.589156 295.485699 
L 368.264177 295.485699 
L 367.939197 295.485699 
L 367.614218 295.485699 
L 367.289238 295.485699 
L 366.964259 295.485699 
L 366.639279 295.485699 
L 366.3143 295.485699 
L 365.98932 295.485699 
L 365.664341 295.485699 
L 365.339361 295.485699 
L 365.014382 295.485699 
L 364.689402 295.485699 
L 364.364423 295.485699 
L 364.039443 295.485699 
L 363.714464 295.485699 
L 363.389484 295.485699 
L 363.064505 295.485699 
L 362.739525 295.485699 
L 362.414545 295.485699 
L 362.089566 295.485699 
L 361.764586 295.485699 
L 361.439607 295.485699 
L 361.114627 295.485699 
L 360.789648 295.485699 
L 360.464668 295.485699 
L 360.139689 295.485699 
L 359.814709 295.485699 
L 359.48973 295.485699 
L 359.16475 295.485699 
L 358.839771 295.485699 
L 358.514791 295.485699 
L 358.189812 295.485699 
L 357.864832 295.485699 
L 357.539853 295.485699 
L 357.214873 295.485699 
L 356.889894 295.485699 
L 356.564914 295.485699 
L 356.239934 295.485699 
L 355.914955 295.485699 
L 355.589975 295.485699 
L 355.264996 295.485699 
L 354.940016 295.485699 
L 354.615037 295.485699 
L 354.290057 295.485699 
L 353.965078 295.485699 
L 353.640098 295.485699 
L 353.315119 295.485699 
L 352.990139 295.485699 
L 352.66516 295.485699 
L 352.34018 295.485699 
L 352.015201 295.485699 
L 351.690221 295.485699 
L 351.365242 295.485699 
L 351.040262 295.485699 
L 350.715283 295.485699 
L 350.390303 295.485699 
L 350.065324 295.485699 
L 349.740344 295.485699 
L 349.415364 295.485699 
L 349.090385 295.485699 
L 348.765405 295.485699 
L 348.440426 295.485699 
L 348.115446 295.485699 
L 347.790467 295.485699 
L 347.465487 295.485699 
L 347.140508 295.485699 
L 346.815528 295.485699 
L 346.490549 295.485699 
L 346.165569 295.485699 
L 345.84059 295.485699 
L 345.51561 295.485699 
L 345.190631 295.485699 
L 344.865651 295.485699 
L 344.540672 295.485699 
L 344.215692 295.485699 
L 343.890713 295.485699 
L 343.565733 295.485699 
L 343.240753 295.485699 
L 342.915774 295.485699 
L 342.590794 295.485699 
L 342.265815 295.485699 
L 341.940835 295.485699 
L 341.615856 295.485699 
L 341.290876 295.485699 
L 340.965897 295.485699 
L 340.640917 295.485699 
L 340.315938 295.485699 
L 339.990958 295.485699 
L 339.665979 295.485699 
L 339.340999 295.485699 
L 339.01602 295.485699 
L 338.69104 295.485699 
L 338.366061 295.485699 
L 338.041081 295.485699 
L 337.716102 295.485699 
L 337.391122 295.485699 
L 337.066143 295.485699 
L 336.741163 295.485699 
L 336.416183 295.485699 
L 336.091204 295.485699 
L 335.766224 295.485699 
L 335.441245 295.485699 
L 335.116265 295.485699 
L 334.791286 295.485699 
L 334.466306 295.485699 
L 334.141327 295.485699 
L 333.816347 295.485699 
L 333.491368 295.485699 
L 333.166388 295.485699 
L 332.841409 295.485699 
L 332.516429 295.485699 
L 332.19145 295.485699 
L 331.86647 295.485699 
L 331.541491 295.485699 
L 331.216511 295.485699 
L 330.891532 295.485699 
L 330.566552 295.485699 
L 330.241572 295.485699 
L 329.916593 295.485699 
L 329.591613 295.485699 
L 329.266634 295.485699 
L 328.941654 295.485699 
L 328.616675 295.485699 
L 328.291695 295.485699 
L 327.966716 295.485699 
L 327.641736 295.485699 
L 327.316757 295.485699 
L 326.991777 295.485699 
L 326.666798 295.485699 
L 326.341818 295.485699 
L 326.016839 295.485699 
L 325.691859 295.485699 
L 325.36688 295.485699 
L 325.0419 295.485699 
L 324.716921 295.485699 
L 324.391941 295.485699 
L 324.066962 295.485699 
L 323.741982 295.485699 
L 323.417002 295.485699 
L 323.092023 295.485699 
L 322.767043 295.485699 
L 322.442064 295.485699 
L 322.117084 295.485699 
L 321.792105 295.485699 
L 321.467125 295.485699 
L 321.142146 295.485699 
L 320.817166 295.485699 
L 320.492187 295.485699 
L 320.167207 295.485699 
L 319.842228 295.485699 
L 319.517248 295.485699 
L 319.192269 295.485699 
L 318.867289 295.485699 
L 318.54231 295.485699 
L 318.21733 295.485699 
L 317.892351 295.485699 
L 317.567371 295.485699 
L 317.242391 295.485699 
L 316.917412 295.485699 
L 316.592432 295.485699 
L 316.267453 295.485699 
L 315.942473 295.485699 
L 315.617494 295.485699 
L 315.292514 295.485699 
L 314.967535 295.485699 
L 314.642555 295.485699 
L 314.317576 295.485699 
L 313.992596 295.485699 
L 313.667617 295.485699 
L 313.342637 295.485699 
L 313.017658 295.485699 
L 312.692678 295.485699 
L 312.367699 295.485699 
L 312.042719 295.485699 
L 311.71774 295.485699 
L 311.39276 295.485699 
L 311.067781 295.485699 
L 310.742801 295.485699 
L 310.417821 295.485699 
L 310.092842 295.485699 
L 309.767862 295.485699 
L 309.442883 295.485699 
L 309.117903 295.485699 
L 308.792924 295.485699 
L 308.467944 295.485699 
L 308.142965 295.485699 
L 307.817985 295.485699 
L 307.493006 295.485699 
L 307.168026 295.485699 
L 306.843047 295.485699 
L 306.518067 295.485699 
L 306.193088 295.485699 
L 305.868108 295.485699 
L 305.543129 295.485699 
L 305.218149 295.485699 
L 304.89317 295.485699 
L 304.56819 295.485699 
L 304.24321 295.485699 
L 303.918231 295.485699 
L 303.593251 295.485699 
L 303.268272 295.485699 
L 302.943292 295.485699 
L 302.618313 295.485699 
L 302.293333 295.485699 
L 301.968354 295.485699 
L 301.643374 295.485699 
L 301.318395 295.485699 
L 300.993415 295.485699 
L 300.668436 295.485699 
L 300.343456 295.485699 
L 300.018477 295.485699 
L 299.693497 295.485699 
L 299.368518 295.485699 
L 299.043538 295.485699 
L 298.718559 295.485699 
L 298.393579 295.485699 
L 298.0686 295.485699 
L 297.74362 295.485699 
L 297.41864 295.485699 
L 297.093661 295.485699 
L 296.768681 295.485699 
L 296.443702 295.485699 
L 296.118722 295.485699 
L 295.793743 295.485699 
L 295.468763 295.485699 
L 295.143784 295.485699 
L 294.818804 295.485699 
L 294.493825 295.485699 
L 294.168845 295.485699 
L 293.843866 295.485699 
L 293.518886 295.485699 
L 293.193907 295.485699 
L 292.868927 295.485699 
L 292.543948 295.485699 
L 292.218968 295.485699 
L 291.893989 295.485699 
L 291.569009 295.485699 
L 291.244029 295.485699 
L 290.91905 295.485699 
L 290.59407 295.485699 
L 290.269091 295.485699 
L 289.944111 295.485699 
L 289.619132 295.485699 
L 289.294152 295.485699 
L 288.969173 295.485699 
L 288.644193 295.485699 
L 288.319214 295.485699 
L 287.994234 295.485699 
L 287.669255 295.485699 
L 287.344275 295.485699 
L 287.019296 295.485699 
L 286.694316 295.485699 
L 286.369337 295.485699 
L 286.044357 295.485699 
L 285.719378 295.485699 
L 285.394398 295.485699 
L 285.069419 295.485699 
L 284.744439 295.485699 
L 284.419459 295.485699 
L 284.09448 295.485699 
L 283.7695 295.485699 
L 283.444521 295.485699 
L 283.119541 295.485699 
L 282.794562 295.485699 
L 282.469582 295.485699 
L 282.144603 295.485699 
L 281.819623 295.485699 
L 281.494644 295.485699 
L 281.169664 295.485699 
L 280.844685 295.485699 
L 280.519705 295.485699 
L 280.194726 295.485699 
L 279.869746 295.485699 
L 279.544767 295.485699 
L 279.219787 295.485699 
L 278.894808 295.485699 
L 278.569828 295.485699 
L 278.244848 295.485699 
L 277.919869 295.485699 
L 277.594889 295.485699 
L 277.26991 295.485699 
L 276.94493 295.485699 
L 276.619951 295.485699 
L 276.294971 295.485699 
L 275.969992 295.485699 
L 275.645012 295.485699 
L 275.320033 295.485699 
L 274.995053 295.485699 
L 274.670074 295.485699 
L 274.345094 295.485699 
L 274.020115 295.485699 
L 273.695135 295.485699 
L 273.370156 295.485699 
L 273.045176 295.485699 
L 272.720197 295.485699 
L 272.395217 295.485699 
L 272.070238 295.485699 
L 271.745258 295.485699 
L 271.420278 295.485699 
L 271.095299 295.485699 
L 270.770319 295.485699 
L 270.44534 295.485699 
L 270.12036 295.485699 
L 269.795381 295.485699 
L 269.470401 295.485699 
L 269.145422 295.485699 
L 268.820442 295.485699 
L 268.495463 295.485699 
L 268.170483 295.485699 
L 267.845504 295.485699 
L 267.520524 295.485699 
L 267.195545 295.485699 
L 266.870565 295.485699 
L 266.545586 295.485699 
L 266.220606 295.485699 
L 265.895627 295.485699 
L 265.570647 295.485699 
L 265.245667 295.485699 
L 264.920688 295.485699 
L 264.595708 295.485699 
L 264.270729 295.485699 
L 263.945749 295.485699 
L 263.62077 295.485699 
L 263.29579 295.485699 
L 262.970811 295.485699 
L 262.645831 295.485699 
L 262.320852 295.485699 
L 261.995872 295.485699 
L 261.670893 295.485699 
L 261.345913 295.485699 
L 261.020934 295.485699 
L 260.695954 295.485699 
L 260.370975 295.485699 
L 260.045995 295.485699 
L 259.721016 295.485699 
L 259.396036 295.485699 
L 259.071057 295.485699 
L 258.746077 295.485699 
L 258.421097 295.485699 
L 258.096118 295.485699 
L 257.771138 295.485699 
L 257.446159 295.485699 
L 257.121179 295.485699 
L 256.7962 295.485699 
L 256.47122 295.485699 
L 256.146241 295.485699 
L 255.821261 295.485699 
L 255.496282 295.485699 
L 255.171302 295.485699 
L 254.846323 295.485699 
L 254.521343 295.485699 
L 254.196364 295.485699 
L 253.871384 295.485699 
L 253.546405 295.485699 
L 253.221425 295.485699 
L 252.896446 295.485699 
L 252.571466 295.485699 
L 252.246486 295.485699 
L 251.921507 295.485699 
L 251.596527 295.485699 
L 251.271548 295.485699 
L 250.946568 295.485699 
L 250.621589 295.485699 
L 250.296609 295.485699 
L 249.97163 295.485699 
L 249.64665 295.485699 
L 249.321671 295.485699 
L 248.996691 295.485699 
L 248.671712 295.485699 
L 248.346732 295.485699 
L 248.021753 295.485699 
L 247.696773 295.485699 
L 247.371794 295.485699 
L 247.046814 295.485699 
L 246.721835 295.485699 
L 246.396855 295.485699 
L 246.071876 295.485699 
L 245.746896 295.485699 
L 245.421916 295.485699 
L 245.096937 295.485699 
L 244.771957 295.485699 
L 244.446978 295.485699 
L 244.121998 295.485699 
L 243.797019 295.485699 
L 243.472039 295.485699 
L 243.14706 295.485699 
L 242.82208 295.485699 
L 242.497101 295.485699 
L 242.172121 295.485699 
L 241.847142 295.485699 
L 241.522162 295.485699 
L 241.197183 295.485699 
L 240.872203 295.485699 
L 240.547224 295.485699 
L 240.222244 295.485699 
L 239.897265 295.485699 
L 239.572285 295.485699 
L 239.247305 295.485699 
L 238.922326 295.485699 
L 238.597346 295.485699 
L 238.272367 295.485699 
L 237.947387 295.485699 
L 237.622408 295.485699 
L 237.297428 295.485699 
L 236.972449 295.485699 
L 236.647469 295.485699 
L 236.32249 295.485699 
L 235.99751 295.485699 
L 235.672531 295.485699 
L 235.347551 295.485699 
L 235.022572 295.485699 
L 234.697592 295.485699 
L 234.372613 295.485699 
L 234.047633 295.485699 
L 233.722654 295.485699 
L 233.397674 295.485699 
L 233.072695 295.485699 
L 232.747715 295.485699 
L 232.422735 295.485699 
L 232.097756 295.485699 
L 231.772776 295.485699 
L 231.447797 295.485699 
L 231.122817 295.485699 
L 230.797838 295.485699 
L 230.472858 295.485699 
L 230.147879 295.485699 
L 229.822899 295.485699 
L 229.49792 295.485699 
L 229.17294 295.485699 
L 228.847961 295.485699 
L 228.522981 295.485699 
L 228.198002 295.485699 
L 227.873022 295.485699 
L 227.548043 295.485699 
L 227.223063 295.485699 
L 226.898084 295.485699 
L 226.573104 295.485699 
L 226.248124 295.485699 
L 225.923145 295.485699 
L 225.598165 295.485699 
L 225.273186 295.485699 
L 224.948206 295.485699 
L 224.623227 295.485699 
L 224.298247 295.485699 
L 223.973268 295.485699 
L 223.648288 295.485699 
L 223.323309 295.485699 
L 222.998329 295.485699 
L 222.67335 295.485699 
L 222.34837 295.485699 
L 222.023391 295.485699 
L 221.698411 295.485699 
L 221.373432 295.485699 
L 221.048452 295.485699 
L 220.723473 295.485699 
L 220.398493 295.485699 
L 220.073514 295.485699 
L 219.748534 295.485699 
L 219.423554 295.485699 
L 219.098575 295.485699 
L 218.773595 295.485699 
L 218.448616 295.485699 
L 218.123636 295.485699 
L 217.798657 295.485699 
L 217.473677 295.485699 
L 217.148698 295.485699 
L 216.823718 295.485699 
L 216.498739 295.485699 
L 216.173759 295.485699 
L 215.84878 295.485699 
L 215.5238 295.485699 
L 215.198821 295.485699 
L 214.873841 295.485699 
L 214.548862 295.485699 
L 214.223882 295.485699 
L 213.898903 295.485699 
L 213.573923 295.485699 
L 213.248943 295.485699 
L 212.923964 295.485699 
L 212.598984 295.485699 
L 212.274005 295.485699 
L 211.949025 295.485699 
L 211.624046 295.485699 
L 211.299066 295.485699 
L 210.974087 295.485699 
L 210.649107 295.485699 
L 210.324128 295.485699 
L 209.999148 295.485699 
L 209.674169 295.485699 
L 209.349189 295.485699 
L 209.02421 295.485699 
L 208.69923 295.485699 
L 208.374251 295.485699 
L 208.049271 295.485699 
L 207.724292 295.485699 
L 207.399312 295.485699 
L 207.074333 295.485699 
L 206.749353 295.485699 
L 206.424373 295.485699 
L 206.099394 295.485699 
L 205.774414 295.485699 
L 205.449435 295.485699 
L 205.124455 295.485699 
L 204.799476 295.485699 
L 204.474496 295.485699 
L 204.149517 295.485699 
L 203.824537 295.485699 
L 203.499558 295.485699 
L 203.174578 295.485699 
L 202.849599 295.485699 
L 202.524619 295.485699 
L 202.19964 295.485699 
L 201.87466 295.485699 
L 201.549681 295.485699 
L 201.224701 295.485699 
L 200.899722 295.485699 
L 200.574742 295.485699 
L 200.249762 295.485699 
L 199.924783 295.485699 
L 199.599803 295.485699 
L 199.274824 295.485699 
L 198.949844 295.485699 
L 198.624865 295.485699 
L 198.299885 295.485699 
L 197.974906 295.485699 
L 197.649926 295.485699 
L 197.324947 295.485699 
L 196.999967 295.485699 
L 196.674988 295.485699 
L 196.350008 295.485699 
L 196.025029 295.485699 
L 195.700049 295.485699 
L 195.37507 295.485699 
L 195.05009 295.485699 
L 194.725111 295.485699 
L 194.400131 295.485699 
L 194.075152 295.485699 
L 193.750172 295.485699 
L 193.425192 295.485699 
L 193.100213 295.485699 
L 192.775233 295.485699 
L 192.450254 295.485699 
L 192.125274 295.485699 
L 191.800295 295.485699 
L 191.475315 295.485699 
L 191.150336 295.485699 
L 190.825356 295.485699 
L 190.500377 295.485699 
L 190.175397 295.485699 
L 189.850418 295.485699 
L 189.525438 295.485699 
L 189.200459 295.485699 
L 188.875479 295.485699 
L 188.5505 295.485699 
L 188.22552 295.485699 
L 187.900541 295.485699 
L 187.575561 295.485699 
L 187.250581 295.485699 
L 186.925602 295.485699 
L 186.600622 295.485699 
L 186.275643 295.485699 
L 185.950663 295.485699 
L 185.625684 295.485699 
L 185.300704 295.485699 
L 184.975725 295.485699 
L 184.650745 295.485699 
L 184.325766 295.485699 
L 184.000786 295.485699 
L 183.675807 295.485699 
L 183.350827 295.485699 
L 183.025848 295.485699 
L 182.700868 295.485699 
L 182.375889 295.485699 
L 182.050909 295.485699 
L 181.72593 295.485699 
L 181.40095 295.485699 
L 181.075971 295.485699 
L 180.750991 295.485699 
L 180.426011 295.485699 
L 180.101032 295.485699 
L 179.776052 295.485699 
L 179.451073 295.485699 
L 179.126093 295.485699 
L 178.801114 295.485699 
L 178.476134 295.485699 
L 178.151155 295.485699 
L 177.826175 295.485699 
L 177.501196 295.485699 
L 177.176216 295.485699 
L 176.851237 295.485699 
L 176.526257 295.485699 
L 176.201278 295.485699 
L 175.876298 295.485699 
L 175.551319 295.485699 
L 175.226339 295.485699 
L 174.90136 295.485699 
L 174.57638 295.485699 
L 174.2514 295.485699 
L 173.926421 295.485699 
L 173.601441 295.485699 
L 173.276462 295.485699 
L 172.951482 295.485699 
L 172.626503 295.485699 
L 172.301523 295.485699 
L 171.976544 295.485699 
L 171.651564 295.485699 
L 171.326585 295.485699 
L 171.001605 295.485699 
L 170.676626 295.485699 
L 170.351646 295.485699 
L 170.026667 295.485699 
L 169.701687 295.485699 
L 169.376708 295.485699 
L 169.051728 295.485699 
L 168.726749 295.485699 
L 168.401769 295.485699 
L 168.07679 295.485699 
L 167.75181 295.485699 
L 167.42683 295.485699 
L 167.101851 295.485699 
L 166.776871 295.485699 
L 166.451892 295.485699 
L 166.126912 295.485699 
L 165.801933 295.485699 
L 165.476953 295.485699 
L 165.151974 295.485699 
L 164.826994 295.485699 
L 164.502015 295.485699 
L 164.177035 295.485699 
L 163.852056 295.485699 
L 163.527076 295.485699 
L 163.202097 295.485699 
L 162.877117 295.485699 
L 162.552138 295.485699 
L 162.227158 295.485699 
L 161.902179 295.485699 
L 161.577199 295.485699 
L 161.252219 295.485699 
L 160.92724 295.485699 
L 160.60226 295.485699 
L 160.277281 295.485699 
L 159.952301 295.485699 
L 159.627322 295.485699 
L 159.302342 295.485699 
L 158.977363 295.485699 
L 158.652383 295.485699 
L 158.327404 295.485699 
L 158.002424 295.485699 
L 157.677445 295.485699 
L 157.352465 295.485699 
L 157.027486 295.485699 
L 156.702506 295.485699 
L 156.377527 295.485699 
L 156.052547 295.485699 
L 155.727568 295.485699 
L 155.402588 295.485699 
L 155.077609 295.485699 
L 154.752629 295.485699 
L 154.427649 295.485699 
L 154.10267 295.485699 
L 153.77769 295.485699 
L 153.452711 295.485699 
L 153.127731 295.485699 
L 152.802752 295.485699 
L 152.477772 295.485699 
L 152.152793 295.485699 
L 151.827813 295.485699 
L 151.502834 295.485699 
L 151.177854 295.485699 
L 150.852875 295.485699 
L 150.527895 295.485699 
L 150.202916 295.485699 
L 149.877936 295.485699 
L 149.552957 295.485699 
L 149.227977 295.485699 
L 148.902998 295.485699 
L 148.578018 295.485699 
L 148.253038 295.485699 
L 147.928059 295.485699 
L 147.603079 295.485699 
L 147.2781 295.485699 
L 146.95312 295.485699 
L 146.628141 295.485699 
L 146.303161 295.485699 
L 145.978182 295.485699 
L 145.653202 295.485699 
L 145.328223 295.485699 
L 145.003243 295.485699 
L 144.678264 295.485699 
L 144.353284 295.485699 
L 144.028305 295.485699 
L 143.703325 295.485699 
L 143.378346 295.485699 
L 143.053366 295.485699 
L 142.728387 295.485699 
L 142.403407 295.485699 
L 142.078428 295.485699 
L 141.753448 295.485699 
L 141.428468 295.485699 
L 141.103489 295.485699 
L 140.778509 295.485699 
L 140.45353 295.485699 
L 140.12855 295.485699 
L 139.803571 295.485699 
L 139.478591 295.485699 
L 139.153612 295.485699 
L 138.828632 295.485699 
L 138.503653 295.485699 
L 138.178673 295.485699 
L 137.853694 295.485699 
L 137.528714 295.485699 
L 137.203735 295.485699 
L 136.878755 295.485699 
L 136.553776 295.485699 
L 136.228796 295.485699 
L 135.903817 295.485699 
L 135.578837 295.485699 
L 135.253857 295.485699 
L 134.928878 295.485699 
L 134.603898 295.485699 
L 134.278919 295.485699 
L 133.953939 295.485699 
L 133.62896 295.485699 
L 133.30398 295.485699 
L 132.979001 295.485699 
L 132.654021 295.485699 
L 132.329042 295.485699 
L 132.004062 295.485699 
L 131.679083 295.485699 
L 131.354103 295.485699 
L 131.029124 295.485699 
L 130.704144 295.485699 
L 130.379165 295.485699 
L 130.054185 295.485699 
L 129.729206 295.485699 
L 129.404226 295.485699 
L 129.079247 295.485699 
L 128.754267 295.485699 
L 128.429287 295.485699 
L 128.104308 295.485699 
L 127.779328 295.485699 
L 127.454349 295.485699 
L 127.129369 295.485699 
L 126.80439 295.485699 
L 126.47941 295.485699 
L 126.154431 295.485699 
L 125.829451 295.485699 
L 125.504472 295.485699 
L 125.179492 295.485699 
L 124.854513 295.485699 
L 124.529533 295.485699 
L 124.204554 295.485699 
L 123.879574 295.485699 
L 123.554595 295.485699 
L 123.229615 295.485699 
L 122.904636 295.485699 
L 122.579656 295.485699 
L 122.254676 295.485699 
L 121.929697 295.485699 
L 121.604717 295.485699 
L 121.279738 295.485699 
L 120.954758 295.485699 
L 120.629779 295.485699 
L 120.304799 295.485699 
L 119.97982 295.485699 
L 119.65484 295.485699 
L 119.329861 295.485699 
L 119.004881 295.485699 
L 118.679902 295.485699 
L 118.354922 295.485699 
L 118.029943 295.485699 
L 117.704963 295.485699 
L 117.379984 295.485699 
L 117.055004 295.485699 
L 116.730025 295.485699 
L 116.405045 295.485699 
L 116.080066 295.485699 
L 115.755086 295.485699 
L 115.430106 295.485699 
L 115.105127 295.485699 
L 114.780147 295.485699 
L 114.455168 295.485699 
L 114.130188 295.485699 
L 113.805209 295.485699 
L 113.480229 295.485699 
L 113.15525 295.485699 
L 112.83027 295.485699 
L 112.505291 295.485699 
L 112.180311 295.485699 
L 111.855332 295.485699 
L 111.530352 295.485699 
L 111.205373 295.485699 
L 110.880393 295.485699 
L 110.555414 295.485699 
L 110.230434 295.485699 
L 109.905455 295.485699 
L 109.580475 295.485699 
L 109.255495 295.485699 
L 108.930516 295.485699 
L 108.605536 295.485699 
L 108.280557 295.485699 
L 107.955577 295.485699 
L 107.630598 295.485699 
L 107.305618 295.485699 
L 106.980639 295.485699 
L 106.655659 295.485699 
L 106.33068 295.485699 
L 106.0057 295.485699 
L 105.680721 295.485699 
L 105.355741 295.485699 
L 105.030762 295.485699 
L 104.705782 295.485699 
L 104.380803 295.485699 
L 104.055823 295.485699 
L 103.730844 295.485699 
L 103.405864 295.485699 
L 103.080885 295.485699 
L 102.755905 295.485699 
L 102.430925 295.485699 
L 102.105946 295.485699 
L 101.780966 295.485699 
L 101.455987 295.485699 
L 101.131007 295.485699 
L 100.806028 295.485699 
L 100.481048 295.485699 
L 100.156069 295.485699 
L 99.831089 295.485699 
L 99.50611 295.485699 
L 99.18113 295.485699 
L 98.856151 295.485699 
L 98.531171 295.485699 
L 98.206192 295.485699 
L 97.881212 295.485699 
L 97.556233 295.485699 
L 97.231253 295.485699 
L 96.906274 295.485699 
L 96.581294 295.485699 
L 96.256314 295.485699 
L 95.931335 295.485699 
L 95.606355 295.485699 
L 95.281376 295.485699 
L 94.956396 295.485699 
L 94.631417 295.485699 
L 94.306437 295.485699 
L 93.981458 295.485699 
L 93.656478 295.485699 
L 93.331499 295.485699 
L 93.006519 295.485699 
L 92.68154 295.485699 
L 92.35656 295.485699 
L 92.031581 295.485699 
L 91.706601 295.485699 
L 91.381622 295.485699 
L 91.056642 295.485699 
L 90.731663 295.485699 
L 90.406683 295.485699 
L 90.081704 295.485699 
L 89.756724 295.485699 
L 89.431744 295.485699 
L 89.106765 295.485699 
L 88.781785 295.485699 
L 88.456806 295.485699 
L 88.131826 295.485699 
L 87.806847 295.485699 
L 87.481867 295.485699 
L 87.156888 295.485699 
L 86.831908 295.485699 
L 86.506929 295.485699 
L 86.181949 295.485699 
L 85.85697 295.485699 
L 85.53199 295.485699 
L 85.207011 295.485699 
L 84.882031 295.485699 
L 84.557052 295.485699 
L 84.232072 295.485699 
L 83.907093 295.485699 
L 83.582113 295.485699 
L 83.257133 295.485699 
L 82.932154 295.485699 
L 82.607174 295.485699 
L 82.282195 295.485699 
L 81.957215 295.485699 
L 81.632236 295.485699 
L 81.307256 295.485699 
L 80.982277 295.485699 
L 80.657297 295.485699 
L 80.332318 295.485699 
L 80.007338 295.485699 
L 79.682359 295.485699 
L 79.357379 295.485699 
L 79.0324 295.485699 
L 78.70742 295.485699 
L 78.382441 295.485699 
L 78.057461 295.485699 
L 77.732482 295.485699 
L 77.407502 295.485699 
L 77.082523 295.485699 
L 76.757543 295.485699 
L 76.432563 295.485699 
L 76.107584 295.485699 
L 75.782604 295.485699 
L 75.457625 295.485699 
L 75.132645 295.485699 
L 74.807666 295.485699 
L 74.482686 295.485699 
L 74.157707 295.485699 
L 73.832727 295.485699 
z
" clip-path="url(#p6df0f2a048)" style="fill: #1f77b4"/>
   </g>
   <g id="matplotlib.axis_1">
    <g id="xtick_1">
     <g id="line2d_1">
      <defs>
       <path id="me684fa425e" d="M 0 0 
L 0 3.5 
" style="stroke: #000000; stroke-width: 0.8"/>
      </defs>
      <g>
       <use xlink:href="#me684fa425e" x="73.832727" y="307.584" style="stroke: #000000; stroke-width: 0.8"/>
      </g>
     </g>
     <g id="text_1">
      <!-- 1.0 -->
      <g transform="translate(65.881165 322.182437) scale(0.1 -0.1)">
       <defs>
        <path id="DejaVuSans-31" d="M 794 531 
L 1825 531 
L 1825 4091 
L 703 3866 
L 703 4441 
L 1819 4666 
L 2450 4666 
L 2450 531 
L 3481 531 
L 3481 0 
L 794 0 
L 794 531 
z
" transform="scale(0.015625)"/>
        <path id="DejaVuSans-2e" d="M 684 794 
L 1344 794 
L 1344 0 
L 684 0 
L 684 794 
z
" transform="scale(0.015625)"/>
        <path id="DejaVuSans-30" d="M 2034 4250 
Q 1547 4250 1301 3770 
Q 1056 3291 1056 2328 
Q 1056 1369 1301 889 
Q 1547 409 2034 409 
Q 2525 409 2770 889 
Q 3016 1369 3016 2328 
Q 3016 3291 2770 3770 
Q 2525 4250 2034 4250 
z
M 2034 4750 
Q 2819 4750 3233 4129 
Q 3647 3509 3647 2328 
Q 3647 1150 3233 529 
Q 2819 -91 2034 -91 
Q 1250 -91 836 529 
Q 422 1150 422 2328 
Q 422 3509 836 4129 
Q 1250 4750 2034 4750 
z
" transform="scale(0.015625)"/>
       </defs>
       <use xlink:href="#DejaVuSans-31"/>
       <use xlink:href="#DejaVuSans-2e" x="63.623047"/>
       <use xlink:href="#DejaVuSans-30" x="95.410156"/>
      </g>
     </g>
    </g>
    <g id="xtick_2">
     <g id="line2d_2">
      <g>
       <use xlink:href="#me684fa425e" x="114.414545" y="307.584" style="stroke: #000000; stroke-width: 0.8"/>
      </g>
     </g>
     <g id="text_2">
      <!-- 1.5 -->
      <g transform="translate(106.462983 322.182437) scale(0.1 -0.1)">
       <defs>
        <path id="DejaVuSans-35" d="M 691 4666 
L 3169 4666 
L 3169 4134 
L 1269 4134 
L 1269 2991 
Q 1406 3038 1543 3061 
Q 1681 3084 1819 3084 
Q 2600 3084 3056 2656 
Q 3513 2228 3513 1497 
Q 3513 744 3044 326 
Q 2575 -91 1722 -91 
Q 1428 -91 1123 -41 
Q 819 9 494 109 
L 494 744 
Q 775 591 1075 516 
Q 1375 441 1709 441 
Q 2250 441 2565 725 
Q 2881 1009 2881 1497 
Q 2881 1984 2565 2268 
Q 2250 2553 1709 2553 
Q 1456 2553 1204 2497 
Q 953 2441 691 2322 
L 691 4666 
z
" transform="scale(0.015625)"/>
       </defs>
       <use xlink:href="#DejaVuSans-31"/>
       <use xlink:href="#DejaVuSans-2e" x="63.623047"/>
       <use xlink:href="#DejaVuSans-35" x="95.410156"/>
      </g>
     </g>
    </g>
    <g id="xtick_3">
     <g id="line2d_3">
      <g>
       <use xlink:href="#me684fa425e" x="154.996364" y="307.584" style="stroke: #000000; stroke-width: 0.8"/>
      </g>
     </g>
     <g id="text_3">
      <!-- 2.0 -->
      <g transform="translate(147.044801 322.182437) scale(0.1 -0.1)">
       <defs>
        <path id="DejaVuSans-32" d="M 1228 531 
L 3431 531 
L 3431 0 
L 469 0 
L 469 531 
Q 828 903 1448 1529 
Q 2069 2156 2228 2338 
Q 2531 2678 2651 2914 
Q 2772 3150 2772 3378 
Q 2772 3750 2511 3984 
Q 2250 4219 1831 4219 
Q 1534 4219 1204 4116 
Q 875 4013 500 3803 
L 500 4441 
Q 881 4594 1212 4672 
Q 1544 4750 1819 4750 
Q 2544 4750 2975 4387 
Q 3406 4025 3406 3419 
Q 3406 3131 3298 2873 
Q 3191 2616 2906 2266 
Q 2828 2175 2409 1742 
Q 1991 1309 1228 531 
z
" transform="scale(0.015625)"/>
       </defs>
       <use xlink:href="#DejaVuSans-32"/>
       <use xlink:href="#DejaVuSans-2e" x="63.623047"/>
       <use xlink:href="#DejaVuSans-30" x="95.410156"/>
      </g>
     </g>
    </g>
    <g id="xtick_4">
     <g id="line2d_4">
      <g>
       <use xlink:href="#me684fa425e" x="195.578182" y="307.584" style="stroke: #000000; stroke-width: 0.8"/>
      </g>
     </g>
     <g id="text_4">
      <!-- 2.5 -->
      <g transform="translate(187.626619 322.182437) scale(0.1 -0.1)">
       <use xlink:href="#DejaVuSans-32"/>
       <use xlink:href="#DejaVuSans-2e" x="63.623047"/>
       <use xlink:href="#DejaVuSans-35" x="95.410156"/>
      </g>
     </g>
    </g>
    <g id="xtick_5">
     <g id="line2d_5">
      <g>
       <use xlink:href="#me684fa425e" x="236.16" y="307.584" style="stroke: #000000; stroke-width: 0.8"/>
      </g>
     </g>
     <g id="text_5">
      <!-- 3.0 -->
      <g transform="translate(228.208437 322.182437) scale(0.1 -0.1)">
       <defs>
        <path id="DejaVuSans-33" d="M 2597 2516 
Q 3050 2419 3304 2112 
Q 3559 1806 3559 1356 
Q 3559 666 3084 287 
Q 2609 -91 1734 -91 
Q 1441 -91 1130 -33 
Q 819 25 488 141 
L 488 750 
Q 750 597 1062 519 
Q 1375 441 1716 441 
Q 2309 441 2620 675 
Q 2931 909 2931 1356 
Q 2931 1769 2642 2001 
Q 2353 2234 1838 2234 
L 1294 2234 
L 1294 2753 
L 1863 2753 
Q 2328 2753 2575 2939 
Q 2822 3125 2822 3475 
Q 2822 3834 2567 4026 
Q 2313 4219 1838 4219 
Q 1578 4219 1281 4162 
Q 984 4106 628 3988 
L 628 4550 
Q 988 4650 1302 4700 
Q 1616 4750 1894 4750 
Q 2613 4750 3031 4423 
Q 3450 4097 3450 3541 
Q 3450 3153 3228 2886 
Q 3006 2619 2597 2516 
z
" transform="scale(0.015625)"/>
       </defs>
       <use xlink:href="#DejaVuSans-33"/>
       <use xlink:href="#DejaVuSans-2e" x="63.623047"/>
       <use xlink:href="#DejaVuSans-30" x="95.410156"/>
      </g>
     </g>
    </g>
    <g id="xtick_6">
     <g id="line2d_6">
      <g>
       <use xlink:href="#me684fa425e" x="276.741818" y="307.584" style="stroke: #000000; stroke-width: 0.8"/>
      </g>
     </g>
     <g id="text_6">
      <!-- 3.5 -->
      <g transform="translate(268.790256 322.182437) scale(0.1 -0.1)">
       <use xlink:href="#DejaVuSans-33"/>
       <use xlink:href="#DejaVuSans-2e" x="63.623047"/>
       <use xlink:href="#DejaVuSans-35" x="95.410156"/>
      </g>
     </g>
    </g>
    <g id="xtick_7">
     <g id="line2d_7">
      <g>
       <use xlink:href="#me684fa425e" x="317.323636" y="307.584" style="stroke: #000000; stroke-width: 0.8"/>
      </g>
     </g>
     <g id="text_7">
      <!-- 4.0 -->
      <g transform="translate(309.372074 322.182437) scale(0.1 -0.1)">
       <defs>
        <path id="DejaVuSans-34" d="M 2419 4116 
L 825 1625 
L 2419 1625 
L 2419 4116 
z
M 2253 4666 
L 3047 4666 
L 3047 1625 
L 3713 1625 
L 3713 1100 
L 3047 1100 
L 3047 0 
L 2419 0 
L 2419 1100 
L 313 1100 
L 313 1709 
L 2253 4666 
z
" transform="scale(0.015625)"/>
       </defs>
       <use xlink:href="#DejaVuSans-34"/>
       <use xlink:href="#DejaVuSans-2e" x="63.623047"/>
       <use xlink:href="#DejaVuSans-30" x="95.410156"/>
      </g>
     </g>
    </g>
    <g id="xtick_8">
     <g id="line2d_8">
      <g>
       <use xlink:href="#me684fa425e" x="357.905455" y="307.584" style="stroke: #000000; stroke-width: 0.8"/>
      </g>
     </g>
     <g id="text_8">
      <!-- 4.5 -->
      <g transform="translate(349.953892 322.182437) scale(0.1 -0.1)">
       <use xlink:href="#DejaVuSans-34"/>
       <use xlink:href="#DejaVuSans-2e" x="63.623047"/>
       <use xlink:href="#DejaVuSans-35" x="95.410156"/>
      </g>
     </g>
    </g>
    <g id="xtick_9">
     <g id="line2d_9">
      <g>
       <use xlink:href="#me684fa425e" x="398.487273" y="307.584" style="stroke: #000000; stroke-width: 0.8"/>
      </g>
     </g>
     <g id="text_9">
      <!-- 5.0 -->
      <g transform="translate(390.53571 322.182437) scale(0.1 -0.1)">
       <use xlink:href="#DejaVuSans-35"/>
       <use xlink:href="#DejaVuSans-2e" x="63.623047"/>
       <use xlink:href="#DejaVuSans-30" x="95.410156"/>
      </g>
     </g>
    </g>
   </g>
   <g id="matplotlib.axis_2">
    <g id="ytick_1">
     <g id="line2d_10">
      <defs>
       <path id="mcf17a2b122" d="M 0 0 
L -3.5 0 
" style="stroke: #000000; stroke-width: 0.8"/>
      </defs>
      <g>
       <use xlink:href="#mcf17a2b122" x="57.6" y="295.485699" style="stroke: #000000; stroke-width: 0.8"/>
      </g>
     </g>
     <g id="text_10">
      <!-- 0.00 -->
      <g transform="translate(28.334375 299.284918) scale(0.1 -0.1)">
       <use xlink:href="#DejaVuSans-30"/>
       <use xlink:href="#DejaVuSans-2e" x="63.623047"/>
       <use xlink:href="#DejaVuSans-30" x="95.410156"/>
       <use xlink:href="#DejaVuSans-30" x="159.033203"/>
      </g>
     </g>
    </g>
    <g id="ytick_2">
     <g id="line2d_11">
      <g>
       <use xlink:href="#mcf17a2b122" x="57.6" y="256.411239" style="stroke: #000000; stroke-width: 0.8"/>
      </g>
     </g>
     <g id="text_11">
      <!-- 0.05 -->
      <g transform="translate(28.334375 260.210458) scale(0.1 -0.1)">
       <use xlink:href="#DejaVuSans-30"/>
       <use xlink:href="#DejaVuSans-2e" x="63.623047"/>
       <use xlink:href="#DejaVuSans-30" x="95.410156"/>
       <use xlink:href="#DejaVuSans-35" x="159.033203"/>
      </g>
     </g>
    </g>
    <g id="ytick_3">
     <g id="line2d_12">
      <g>
       <use xlink:href="#mcf17a2b122" x="57.6" y="217.336779" style="stroke: #000000; stroke-width: 0.8"/>
      </g>
     </g>
     <g id="text_12">
      <!-- 0.10 -->
      <g transform="translate(28.334375 221.135998) scale(0.1 -0.1)">
       <use xlink:href="#DejaVuSans-30"/>
       <use xlink:href="#DejaVuSans-2e" x="63.623047"/>
       <use xlink:href="#DejaVuSans-31" x="95.410156"/>
       <use xlink:href="#DejaVuSans-30" x="159.033203"/>
      </g>
     </g>
    </g>
    <g id="ytick_4">
     <g id="line2d_13">
      <g>
       <use xlink:href="#mcf17a2b122" x="57.6" y="178.262319" style="stroke: #000000; stroke-width: 0.8"/>
      </g>
     </g>
     <g id="text_13">
      <!-- 0.15 -->
      <g transform="translate(28.334375 182.061538) scale(0.1 -0.1)">
       <use xlink:href="#DejaVuSans-30"/>
       <use xlink:href="#DejaVuSans-2e" x="63.623047"/>
       <use xlink:href="#DejaVuSans-31" x="95.410156"/>
       <use xlink:href="#DejaVuSans-35" x="159.033203"/>
      </g>
     </g>
    </g>
    <g id="ytick_5">
     <g id="line2d_14">
      <g>
       <use xlink:href="#mcf17a2b122" x="57.6" y="139.187859" style="stroke: #000000; stroke-width: 0.8"/>
      </g>
     </g>
     <g id="text_14">
      <!-- 0.20 -->
      <g transform="translate(28.334375 142.987078) scale(0.1 -0.1)">
       <use xlink:href="#DejaVuSans-30"/>
       <use xlink:href="#DejaVuSans-2e" x="63.623047"/>
       <use xlink:href="#DejaVuSans-32" x="95.410156"/>
       <use xlink:href="#DejaVuSans-30" x="159.033203"/>
      </g>
     </g>
    </g>
    <g id="ytick_6">
     <g id="line2d_15">
      <g>
       <use xlink:href="#mcf17a2b122" x="57.6" y="100.113399" style="stroke: #000000; stroke-width: 0.8"/>
      </g>
     </g>
     <g id="text_15">
      <!-- 0.25 -->
      <g transform="translate(28.334375 103.912618) scale(0.1 -0.1)">
       <use xlink:href="#DejaVuSans-30"/>
       <use xlink:href="#DejaVuSans-2e" x="63.623047"/>
       <use xlink:href="#DejaVuSans-32" x="95.410156"/>
       <use xlink:href="#DejaVuSans-35" x="159.033203"/>
      </g>
     </g>
    </g>
    <g id="ytick_7">
     <g id="line2d_16">
      <g>
       <use xlink:href="#mcf17a2b122" x="57.6" y="61.03894" style="stroke: #000000; stroke-width: 0.8"/>
      </g>
     </g>
     <g id="text_16">
      <!-- 0.30 -->
      <g transform="translate(28.334375 64.838158) scale(0.1 -0.1)">
       <use xlink:href="#DejaVuSans-30"/>
       <use xlink:href="#DejaVuSans-2e" x="63.623047"/>
       <use xlink:href="#DejaVuSans-33" x="95.410156"/>
       <use xlink:href="#DejaVuSans-30" x="159.033203"/>
      </g>
     </g>
    </g>
   </g>
   <g id="line2d_17">
    <path d="M 73.832727 53.568 
L 78.382441 72.486491 
L 85.85697 104.757694 
L 93.331499 136.733121 
L 98.206192 156.637482 
L 102.430925 172.963362 
L 106.33068 187.12214 
L 109.905455 199.252169 
L 113.15525 209.534675 
L 116.405045 219.087786 
L 119.65484 227.905188 
L 122.579656 235.215677 
L 125.504472 241.944426 
L 128.429287 248.107174 
L 131.354103 253.724165 
L 134.278919 258.819286 
L 136.878755 262.93171 
L 139.478591 266.673021 
L 142.078428 270.064274 
L 144.678264 273.127074 
L 147.2781 275.883261 
L 150.202916 278.644601 
L 153.127731 281.076041 
L 156.052547 283.207336 
L 158.977363 285.067116 
L 161.902179 286.682651 
L 165.151974 288.222471 
L 168.401769 289.525372 
L 171.976544 290.720933 
L 175.876298 291.782661 
L 180.101032 292.694501 
L 184.650745 293.450855 
L 189.850418 294.089687 
L 196.025029 294.613854 
L 203.499558 295.010938 
L 213.248943 295.286456 
L 227.548043 295.441507 
L 257.446159 295.487946 
L 398.487273 295.485699 
L 398.487273 295.485699 
" clip-path="url(#p6df0f2a048)" style="fill: none; stroke: #1f77b4; stroke-width: 1.5; stroke-linecap: square"/>
   </g>
   <g id="patch_3">
    <path d="M 57.6 307.584 
L 57.6 41.472 
" style="fill: none; stroke: #000000; stroke-width: 0.8; stroke-linejoin: miter; stroke-linecap: square"/>
   </g>
   <g id="patch_4">
    <path d="M 414.72 307.584 
L 414.72 41.472 
" style="fill: none; stroke: #000000; stroke-width: 0.8; stroke-linejoin: miter; stroke-linecap: square"/>
   </g>
   <g id="patch_5">
    <path d="M 57.6 307.584 
L 414.72 307.584 
" style="fill: none; stroke: #000000; stroke-width: 0.8; stroke-linejoin: miter; stroke-linecap: square"/>
   </g>
   <g id="patch_6">
    <path d="M 57.6 41.472 
L 414.72 41.472 
" style="fill: none; stroke: #000000; stroke-width: 0.8; stroke-linejoin: miter; stroke-linecap: square"/>
   </g>
  </g>
 </g>
 <defs>
  <clipPath id="p6df0f2a048">
   <rect x="57.6" y="41.472" width="357.12" height="266.112"/>
  </clipPath>
 </defs>
</svg>
